<svg width="25" height="24" viewBox="0 0 25 24" fill="none" xmlns="http://www.w3.org/2000/svg">
<path d="M15.9338 15.4487C16.4577 15.6233 17.024 15.3402 17.1987 14.8162C17.3733 14.2923 17.0902 13.726 16.5662 13.5513L15.9338 15.4487ZM12.5 13.25H11.5C11.5 13.6804 11.7754 14.0626 12.1838 14.1987L12.5 13.25ZM13.5 8.02319C13.5 7.4709 13.0523 7.02319 12.5 7.02319C11.9477 7.02319 11.5 7.4709 11.5 8.02319H13.5ZM16.5662 13.5513L12.8162 12.3013L12.1838 14.1987L15.9338 15.4487L16.5662 13.5513ZM13.5 13.25V8.02319H11.5V13.25H13.5ZM21.5 12C21.5 16.9706 17.4706 21 12.5 21V23C18.5751 23 23.5 18.0751 23.5 12H21.5ZM12.5 21C7.52944 21 3.5 16.9706 3.5 12H1.5C1.5 18.0751 6.42487 23 12.5 23V21ZM3.5 12C3.5 7.02944 7.52944 3 12.5 3V1C6.42487 1 1.5 5.92487 1.5 12H3.5ZM12.5 3C17.4706 3 21.5 7.02944 21.5 12H23.5C23.5 5.92487 18.5751 1 12.5 1V3Z" fill="black"/>
</svg>
