<?xml version="1.0" encoding="utf-8"?><svg xmlns="http://www.w3.org/2000/svg" xmlns:xlink="http://www.w3.org/1999/xlink"><symbol viewBox="0 0 24 24" id="arrow" xmlns="http://www.w3.org/2000/svg">
    <path d="M18.7099 8.20998C18.6169 8.11625 18.5063 8.04186 18.3844 7.99109C18.2626 7.94032 18.1319 7.91418 17.9999 7.91418C17.8679 7.91418 17.7371 7.94032 17.6153 7.99109C17.4934 8.04186 17.3828 8.11625 17.2899 8.20998L12.7099 12.79C12.6169 12.8837 12.5063 12.9581 12.3844 13.0089C12.2626 13.0596 12.1319 13.0858 11.9999 13.0858C11.8679 13.0858 11.7371 13.0596 11.6153 13.0089C11.4934 12.9581 11.3828 12.8837 11.2899 12.79L6.70986 8.20998C6.6169 8.11625 6.5063 8.04186 6.38444 7.99109C6.26258 7.94032 6.13187 7.91418 5.99986 7.91418C5.86785 7.91418 5.73714 7.94032 5.61528 7.99109C5.49343 8.04186 5.38282 8.11625 5.28986 8.20998C5.10361 8.39734 4.99907 8.6508 4.99907 8.91498C4.99907 9.17917 5.10361 9.43262 5.28986 9.61998L9.87986 14.21C10.4424 14.7718 11.2049 15.0873 11.9999 15.0873C12.7949 15.0873 13.5574 14.7718 14.1199 14.21L18.7099 9.61998C18.8961 9.43262 19.0007 9.17917 19.0007 8.91498C19.0007 8.6508 18.8961 8.39734 18.7099 8.20998Z"/>
</symbol><symbol viewBox="0 0 25 24" id="clock__logo" xmlns="http://www.w3.org/2000/svg">
    <path d="M15.9338 15.4487C16.4577 15.6233 17.024 15.3402 17.1987 14.8162C17.3733 14.2923 17.0902 13.726 16.5662 13.5513L15.9338 15.4487ZM12.5 13.25H11.5C11.5 13.6804 11.7754 14.0626 12.1838 14.1987L12.5 13.25ZM13.5 8.02319C13.5 7.4709 13.0523 7.02319 12.5 7.02319C11.9477 7.02319 11.5 7.4709 11.5 8.02319H13.5ZM16.5662 13.5513L12.8162 12.3013L12.1838 14.1987L15.9338 15.4487L16.5662 13.5513ZM13.5 13.25V8.02319H11.5V13.25H13.5ZM21.5 12C21.5 16.9706 17.4706 21 12.5 21V23C18.5751 23 23.5 18.0751 23.5 12H21.5ZM12.5 21C7.52944 21 3.5 16.9706 3.5 12H1.5C1.5 18.0751 6.42487 23 12.5 23V21ZM3.5 12C3.5 7.02944 7.52944 3 12.5 3V1C6.42487 1 1.5 5.92487 1.5 12H3.5ZM12.5 3C17.4706 3 21.5 7.02944 21.5 12H23.5C23.5 5.92487 18.5751 1 12.5 1V3Z"/>
</symbol><symbol viewBox="0 0 24 24" id="location__logo" xmlns="http://www.w3.org/2000/svg">
    <g clip-path="url(#cclip0_2017_14)">
        <path d="M12.0001 6.00001C11.209 6.00001 10.4356 6.23461 9.77784 6.67413C9.12005 7.11366 8.60736 7.73837 8.30461 8.46928C8.00185 9.20018 7.92264 10.0044 8.07698 10.7804C8.23132 11.5563 8.61229 12.269 9.1717 12.8284C9.73111 13.3878 10.4438 13.7688 11.2198 13.9232C11.9957 14.0775 12.8 13.9983 13.5309 13.6955C14.2618 13.3928 14.8865 12.8801 15.326 12.2223C15.7655 11.5645 16.0001 10.7911 16.0001 10C16.0001 8.93914 15.5787 7.92173 14.8286 7.17158C14.0784 6.42144 13.061 6.00001 12.0001 6.00001ZM12.0001 12C11.6046 12 11.2179 11.8827 10.889 11.6629C10.5601 11.4432 10.3037 11.1308 10.1524 10.7654C10.001 10.3999 9.96138 9.99779 10.0386 9.60983C10.1157 9.22187 10.3062 8.8655 10.5859 8.5858C10.8656 8.30609 11.222 8.11561 11.6099 8.03844C11.9979 7.96127 12.4 8.00088 12.7655 8.15225C13.1309 8.30363 13.4433 8.55997 13.6631 8.88887C13.8828 9.21777 14.0001 9.60445 14.0001 10C14.0001 10.5304 13.7894 11.0392 13.4143 11.4142C13.0393 11.7893 12.5306 12 12.0001 12Z"/>
        <path d="M11.9999 24.0003C11.1579 24.0046 10.3271 23.8071 9.57701 23.4243C8.82697 23.0416 8.17954 22.4847 7.68895 21.8003C3.87795 16.5433 1.94495 12.5913 1.94495 10.0533C1.94495 7.38654 3.00431 4.82901 4.88999 2.94333C6.77567 1.05765 9.33319 -0.00170898 11.9999 -0.00170898C14.6667 -0.00170898 17.2242 1.05765 19.1099 2.94333C20.9956 4.82901 22.0549 7.38654 22.0549 10.0533C22.0549 12.5913 20.1219 16.5433 16.3109 21.8003C15.8204 22.4847 15.1729 23.0416 14.4229 23.4243C13.6728 23.8071 12.842 24.0046 11.9999 24.0003ZM11.9999 2.18129C9.91236 2.18367 7.91096 3.01402 6.43482 4.49016C4.95867 5.96631 4.12833 7.96771 4.12595 10.0553C4.12595 12.0653 6.01895 15.7823 9.45495 20.5213C9.74664 20.9231 10.1293 21.2501 10.5717 21.4756C11.014 21.701 11.5034 21.8186 11.9999 21.8186C12.4964 21.8186 12.9859 21.701 13.4282 21.4756C13.8706 21.2501 14.2533 20.9231 14.5449 20.5213C17.9809 15.7823 19.8739 12.0653 19.8739 10.0553C19.8716 7.96771 19.0412 5.96631 17.5651 4.49016C16.0889 3.01402 14.0875 2.18367 11.9999 2.18129Z"/>
    </g>
    <defs>
        <clipPath id="cclip0_2017_14">
            <rect width="24" height="24"/>
        </clipPath>
    </defs>
</symbol><symbol viewBox="0 0 60 60" id="medal" xmlns="http://www.w3.org/2000/svg">
    <path d="M31.0442 4.36658C31.8192 4.70849 32.4623 5.21162 33.2117 5.66071C33.841 6.14789 34.5947 6.38056 35.4729 6.35871C35.9618 6.34631 36.6179 6.31649 37.4413 6.26925C38.6887 6.19661 39.8343 6.55004 40.6588 7.52617C40.8936 7.80372 41.1118 8.13648 41.3135 8.52445C41.6597 9.18879 41.9962 9.82862 42.3229 10.4439C42.6443 11.0303 43.1206 11.4797 43.7517 11.7921C44.1156 11.9899 44.6493 12.2651 45.3529 12.6177C46.2818 13.0836 47.0869 13.7674 47.4912 14.7648C47.7059 15.4563 47.784 16.177 47.7256 16.927C47.682 17.5104 47.6548 18.0948 47.6442 18.68C47.6324 19.3573 47.8002 19.9835 48.1476 20.5587C48.3434 20.8817 48.5327 21.1684 48.7156 21.4188C48.9013 21.717 49.0691 21.9869 49.2189 22.2284C49.4554 22.6075 49.6456 22.9937 49.7896 23.387C50.0508 24.1246 50.0688 24.85 49.8435 25.5634C49.602 26.3092 49.2304 26.9204 48.7916 27.5821C48.3057 28.2523 47.9999 28.7608 47.8742 29.1074C47.5354 30.0419 47.6469 31.0872 47.7212 32.104C47.7754 32.7719 47.73 33.4224 47.585 34.0554C47.4104 34.6572 47.104 35.1644 46.6658 35.5772C46.26 35.9599 45.8622 36.2474 45.4723 36.4399C44.8826 36.7317 44.3002 37.0317 43.7251 37.3399C43.1271 37.6363 42.6682 38.0695 42.3486 38.6393L41.8912 39.4773C41.877 39.5039 41.877 39.5304 41.8912 39.557L42.5476 40.7883C42.9404 41.5122 43.3247 42.2256 43.7003 42.9283C43.8189 43.1492 43.8148 43.3833 43.688 43.6307C43.3695 44.1693 42.6449 44.1445 42.3512 43.6086C41.9183 42.8191 41.4769 42.005 41.0269 41.1665C41.0243 41.1618 41.0205 41.1579 41.0159 41.1551C41.0114 41.1523 41.0062 41.1507 41.0008 41.1506C40.9955 41.1504 40.9902 41.1516 40.9854 41.1541C40.9807 41.1566 40.9767 41.1602 40.9738 41.1647C40.578 41.7978 40.0387 42.2666 39.3557 42.5713L38.4392 42.8052C38.0234 42.8554 37.6321 42.8687 37.2652 42.8451C36.4985 42.7954 35.8716 42.7647 35.3844 42.7529C34.2892 42.7272 33.5938 43.194 32.7242 43.7574C32.6953 43.7763 32.6891 43.8008 32.7056 43.8309L33.4151 45.1437L34.6616 47.4432L35.2305 48.4857L35.7356 49.4282L38.3879 54.3089C38.4103 54.349 38.4342 54.3502 38.4595 54.3124C39.2033 53.2129 39.9564 52.1056 40.719 50.9907C40.9702 50.6246 41.3312 50.4147 41.8018 50.3609L43.826 50.306L45.8881 50.2555C45.9194 50.2543 45.9277 50.2399 45.9129 50.2121L45.4706 49.3751L44.3506 47.2961C44.1583 46.9536 44.0409 46.7336 43.9985 46.6362C43.8534 46.3014 43.9808 45.8992 44.2904 45.7052C44.6063 45.5086 45.0574 45.5582 45.2813 45.8744C45.3532 45.976 45.4196 46.0841 45.4803 46.1986C45.8902 46.9704 46.4965 48.0871 47.2992 49.5487C47.7203 50.3435 47.5876 51.0161 46.9011 51.5665C46.6611 51.7053 46.3809 51.7767 46.0607 51.7808L42.0097 51.8863C41.9791 51.8874 41.9552 51.9004 41.9381 51.9252L41.6798 52.2875L40.7853 53.5949C40.4167 54.1329 40.0496 54.67 39.6839 55.2062C39.3849 55.6446 39.0717 55.9493 38.5692 55.9927C37.911 56.0494 37.4274 55.774 37.1184 55.1663C37.0134 54.959 36.7412 54.458 36.3018 53.6631L35.5322 52.2459L35.2163 51.6568L34.0096 49.4309L33.3152 48.1668L32.9498 47.4759L31.4034 44.6317C31.3987 44.6232 31.3911 44.6167 31.3819 44.6135C31.3728 44.6102 31.3628 44.6104 31.3538 44.614L30.4948 44.9683C30.059 45.107 29.5848 45.1507 29.0723 45.0994C28.5845 45.0244 28.1201 44.8629 27.6789 44.6148C27.6447 44.596 27.6182 44.6039 27.5993 44.6388L26.5978 46.4821L26.1732 47.258L24.9789 49.4574L24.7683 49.8658L23.7412 51.7454L22.7159 53.6321L22.416 54.1875C22.2178 54.5536 22.0191 54.918 21.8197 55.2806C21.7053 55.4896 21.5225 55.6745 21.2712 55.8351C20.7498 56.0624 20.286 56.048 19.8796 55.7917C19.672 55.6612 19.4467 55.4134 19.2037 55.0485C18.509 54.005 17.8012 52.9648 17.0805 51.9279C17.072 51.9155 17.0607 51.9053 17.0475 51.8981C17.0343 51.8909 17.0195 51.8868 17.0044 51.8863L16.2622 51.865L13.2932 51.7915C12.7969 51.7808 12.413 51.787 12.037 51.5116C11.3567 51.0138 11.3177 50.1342 11.7742 49.4379L12.2086 48.6354L12.8818 47.3847L14.3203 44.7273L15.159 43.1825L17.123 39.5552C17.133 39.5375 17.1333 39.5192 17.1239 39.5003C16.8036 38.8502 16.3798 38.0308 15.7544 37.6242C15.2542 37.2994 14.6869 36.9956 14.0523 36.7128L13.3428 36.3328C12.8621 36.047 12.4451 35.7148 12.0918 35.3363C11.8654 35.0593 11.6781 34.7484 11.5301 34.4035C11.2883 33.6329 11.2077 32.8472 11.2885 32.0465L11.3514 30.0623C11.2956 29.3572 11.0435 28.8408 10.6463 28.2526C10.2788 27.7088 9.9291 27.1537 9.59705 26.5874C9.46494 26.3624 9.32398 26.0402 9.17418 25.621C8.93591 24.8875 8.9421 24.1621 9.19276 23.4446C9.34433 23.0324 9.49708 22.6952 9.65102 22.433C9.89873 22.0102 10.2558 21.4463 10.7224 20.7412C10.9477 20.4016 11.1154 20.073 11.2257 19.7553C11.2989 19.5451 11.3384 19.3059 11.3443 19.0378L11.2655 16.5302C11.2461 15.8995 11.3404 15.2827 11.5486 14.6798C11.7079 14.3119 11.9119 13.9886 12.1608 13.7098C12.4947 13.3703 12.8922 13.0585 13.3534 12.7744L14.1284 12.3723C14.681 12.1119 15.1389 11.8736 15.5022 11.6575C15.9994 11.3625 16.3338 11.017 16.6337 10.5113C17.0557 9.80175 17.3999 9.04795 17.79 8.30832L18.4358 7.41457C19.7735 6.01857 21.3738 6.2409 23.1184 6.34897C23.7778 6.38971 24.2935 6.35369 24.6657 6.2409C24.9423 6.15764 25.2714 5.99938 25.653 5.76612C25.8919 5.62026 26.3457 5.32323 27.0145 4.87502C27.5029 4.56264 28.0095 4.31668 28.5344 4.13716C29.3801 3.89623 30.2167 3.9727 31.0442 4.36658ZM26.7128 6.88752C26.1219 7.30266 25.4802 7.60353 24.7878 7.79014C24.0606 7.89348 23.3045 7.9109 22.5195 7.8424C21.8825 7.77862 21.2494 7.78069 20.6201 7.8486C20.3281 7.90116 20.0624 8.01719 19.823 8.19671C19.6626 8.31954 19.5249 8.46068 19.4099 8.62012C19.0648 9.09903 18.7534 9.66416 18.4756 10.3155L18.1448 10.9232C17.8345 11.542 17.4294 12.072 16.9292 12.5131L16.2463 12.9879L14.0319 14.1518L13.4631 14.5628C13.1216 14.8481 12.9184 15.2018 12.8535 15.624C12.7839 16.0805 12.7683 16.568 12.8066 17.0864L12.873 19.0635C12.8412 19.8223 12.6105 20.5629 12.1812 21.2851L11.8689 21.7962L10.9064 23.2967C10.4552 24.1497 10.357 24.8937 10.8807 25.76L11.9344 27.4147C12.2186 27.8405 12.4578 28.3256 12.6518 28.87C12.7996 29.2855 12.8748 29.7532 12.8774 30.173C12.881 30.649 12.8571 31.2687 12.8058 32.0323C12.7869 32.4226 12.7901 32.8138 12.8155 33.2059C12.8468 33.6943 13.0128 34.0991 13.3136 34.4204L14.108 35.0227L16.2277 36.1184L16.8001 36.4931C17.3875 36.9939 17.834 37.5602 18.1395 38.192L18.4703 38.8059C18.7729 39.4676 19.1232 40.2205 19.6248 40.7466C20.1494 41.2967 20.9129 41.3534 21.6401 41.3197C22.0654 41.3008 22.4903 41.2808 22.9149 41.2595C23.51 41.2152 24.1081 41.2344 24.7091 41.3171C25.4079 41.4836 26.0664 41.7821 26.6845 42.2126C27.4678 42.7417 27.9853 43.0733 28.2371 43.2073C28.5822 43.391 28.8859 43.5106 29.1483 43.5661C29.7296 43.6892 30.3418 43.4518 30.8549 43.1524L31.0955 43.0125C31.8652 42.5182 32.58 42.0009 33.3912 41.605C34.096 41.3132 34.843 41.1931 35.6321 41.2444L37.5253 41.3312C37.7943 41.3312 38.0762 41.3085 38.3711 41.263C38.6506 41.2199 38.8977 41.1243 39.1124 40.976C39.3519 40.7942 39.5512 40.5822 39.7105 40.3401C40.013 39.8676 40.2781 39.3745 40.5058 38.8608C41.0622 37.7376 41.6134 36.8049 42.7192 36.1662C43.1232 35.9324 43.527 35.713 43.9304 35.5081C44.5113 35.2701 45.0601 34.943 45.5767 34.5267C45.8982 34.2586 46.0928 33.8927 46.1606 33.4292C46.2161 33.05 46.2293 32.6083 46.2004 32.104L46.127 30.1101L46.2509 29.1765C46.3812 28.72 46.5623 28.286 46.794 27.8744C47.1031 27.3819 47.4174 26.8938 47.7371 26.4102C48.0096 25.9974 48.2591 25.5661 48.405 25.0939C48.6625 24.2604 48.221 23.426 47.7592 22.7431C47.4048 22.2193 47.0627 21.6834 46.733 21.1354C46.5307 20.758 46.3703 20.3612 46.2517 19.9449L46.1288 19.0254L46.1969 17.0953C46.2228 16.6825 46.2158 16.2509 46.1757 15.8003C46.1279 15.2682 45.8873 14.8286 45.4538 14.4814C45.0191 14.1601 44.5169 13.8702 43.9472 13.6115C43.1946 13.2607 42.6025 12.9218 42.1707 12.5946C41.4312 12.0339 40.9596 11.1411 40.5049 10.2659C40.3056 9.78935 40.0437 9.30424 39.7193 8.81056C39.5843 8.56845 39.3949 8.35822 39.1514 8.17988C38.9449 8.02871 38.6943 7.92212 38.3994 7.86012C38.1039 7.79811 37.8291 7.77419 37.5749 7.78837C36.8471 7.82911 36.1051 7.86041 35.349 7.88226C34.6784 7.89998 34.0288 7.77892 33.4001 7.51909C32.9666 7.30827 32.6024 7.10425 32.3075 6.90701C31.4644 6.34188 30.7027 5.73335 29.7968 5.54999C28.8033 5.34892 27.6559 6.26305 26.7128 6.88752ZM14.5831 47.4281L14.0487 48.4202L13.0818 50.2077C13.0785 50.2136 13.0768 50.2204 13.0768 50.2272C13.0769 50.234 13.0788 50.2407 13.0822 50.2467C13.0857 50.2526 13.0907 50.2576 13.0966 50.2612C13.1026 50.2647 13.1093 50.2668 13.1163 50.267L16.2799 50.3423C16.7912 50.3453 17.1144 50.3547 17.2495 50.3707C17.5957 50.4102 17.8968 50.5593 18.1527 50.818L18.8189 51.772L20.5529 54.3098C20.5711 54.3363 20.5885 54.3357 20.605 54.308L20.8032 53.967L22.0055 51.7569L22.7 50.4734L23.2157 49.5283L24.326 47.475L24.9975 46.2296L26.2891 43.8557C26.2987 43.8384 26.3015 43.818 26.2969 43.7987C26.2923 43.7793 26.2807 43.7624 26.2643 43.7512C25.4398 43.1754 24.6515 42.7122 23.5961 42.7503C21.7463 42.8167 19.7115 43.2561 18.3465 41.5899L18.0191 41.1532C18.0173 41.1507 18.0149 41.1487 18.0121 41.1474C18.0092 41.1461 18.0061 41.1455 18.0029 41.1458C17.9997 41.1461 17.9966 41.1471 17.9939 41.1489C17.9912 41.1506 17.9889 41.153 17.9873 41.1559L14.5831 47.4281Z"/>
    <path d="M30.2781 8.8327L31.1221 8.88585C31.8328 8.96203 32.5443 9.08426 33.2568 9.25256C33.9445 9.42795 34.6392 9.65264 35.3411 9.92665L36.546 10.4776L37.4723 10.9843C38.1151 11.3663 38.7869 11.8355 39.4875 12.3918L39.9405 12.7922C40.5568 13.352 41.1286 13.9484 41.6559 14.5814L41.8523 14.8339C42.8443 16.1023 43.6263 17.4877 44.1984 18.99C44.4886 19.7671 44.718 20.5584 44.8867 21.3639C45.0336 22.0731 45.1282 22.764 45.1707 23.4366C45.2238 24.2043 45.2244 24.9516 45.1725 25.6785C45.1282 26.3399 45.0395 27.0007 44.9062 27.6609C44.744 28.4528 44.5246 29.2332 44.248 30.0021L43.68 31.344L43.3518 31.9853C42.9366 32.7695 42.4491 33.5192 41.8894 34.2343L41.6559 34.5346C41.1569 35.1387 40.6235 35.7006 40.0555 36.2203L39.461 36.7349C38.8252 37.2593 38.1481 37.7335 37.4298 38.1575L36.5929 38.6181L35.3367 39.1912C34.6254 39.4776 33.91 39.7064 33.1904 39.8777C32.498 40.0424 31.7941 40.1641 31.0787 40.2426L29.0838 40.309C28.3147 40.2907 27.5577 40.2169 26.8128 40.0876L24.7993 39.5995C24.1293 39.3828 23.4204 39.1014 22.6725 38.7554L22.3735 38.5986L20.6909 37.603C19.9996 37.1241 19.4214 36.6685 18.956 36.2362C15.8986 33.3952 14.1859 29.8745 13.8178 25.6741L13.8249 23.4331C13.8733 22.7658 13.9709 22.0716 14.1177 21.3506C14.1673 21.2006 14.1876 21.0825 14.1788 20.9963L14.7795 19.0423C15.0119 18.4228 15.3023 17.7774 15.6509 17.1059C15.734 16.9601 15.8405 16.7767 15.9703 16.5559C16.0705 16.3864 16.2044 16.2609 16.3719 16.1794C16.9794 16.0542 17.3324 16.3229 17.4309 16.9855L16.4073 19.0307L16.2003 19.5728C15.9874 20.1403 15.814 20.7199 15.6801 21.3116C15.5238 21.9813 15.4141 22.6619 15.351 23.3534C15.2926 24.1151 15.2914 24.8937 15.3474 25.6892C15.4058 26.3736 15.512 27.063 15.6659 27.7575C16.2793 30.3528 17.5149 32.6072 19.3727 34.5204L20.3759 35.447C20.8537 35.8639 21.3559 36.2336 21.8825 36.556L22.4425 36.8997C23.1632 37.3266 23.9426 37.6874 24.7807 37.9821C25.3953 38.21 26.0712 38.3931 26.8084 38.5313C27.4707 38.673 28.2085 38.758 29.0219 38.7864C29.6983 38.8212 30.3943 38.7944 31.1097 38.7058C31.8988 38.6131 32.6402 38.4675 33.3338 38.2691C34.0615 38.0624 34.7407 37.8126 35.3712 37.5197C36.0176 37.2351 36.6569 36.8769 37.2891 36.4453L37.5908 36.2522C39.2009 35.1248 40.5226 33.7303 41.5559 32.0686L41.9045 31.4645L42.5989 30.0357C42.9033 29.3306 43.1436 28.5824 43.3199 27.7911C43.4916 27.0872 43.6042 26.3751 43.6579 25.6546C43.7104 24.8409 43.708 24.0841 43.6508 23.3844C43.5818 22.6084 43.468 21.9063 43.3093 21.278C43.1265 20.476 42.885 19.7346 42.5848 19.0538C42.386 18.5294 42.1236 18.0085 41.7974 17.4912L41.5674 17.0652C40.0145 14.5927 37.9113 12.752 35.2579 11.5432C34.674 11.2857 34.0403 11.0566 33.3568 10.8558C32.6337 10.6468 31.8693 10.4995 31.0637 10.4138C30.33 10.3258 29.6057 10.3007 28.8909 10.3385C28.1708 10.3681 27.461 10.4522 26.7615 10.591C26.0927 10.7144 25.4448 10.8895 24.8179 11.1163C23.9668 11.4068 23.1618 11.7779 22.4027 12.2297L21.9622 12.5007C21.429 12.8237 20.9097 13.2014 20.4042 13.6337L19.3612 14.6036C18.78 15.159 17.8298 14.6603 18.0678 13.879C18.1466 13.6204 18.3987 13.4007 18.6022 13.2102L18.8861 12.9357C19.4659 12.4166 20.074 11.935 20.7103 11.4909L22.3319 10.5113L22.6664 10.3598C23.3941 10.0179 24.1057 9.7365 24.8011 9.51564C25.4923 9.30246 26.2065 9.13328 26.9437 9.00809C28.0402 8.83329 29.1516 8.77483 30.2781 8.8327Z"/>
    <path d="M32.1536 17.0422C32.5493 17.847 32.9463 18.6516 33.3444 19.4559C33.4806 19.7314 33.5293 19.8917 33.8124 19.9316C34.2747 19.9954 34.7536 20.0627 35.2491 20.1335L37.551 20.4666C37.9804 20.5245 38.4309 20.5906 38.9028 20.665C39.0779 20.6922 39.2829 20.7607 39.5176 20.8705C39.7317 20.9992 39.9272 21.1687 40.1042 21.379C40.5253 21.9972 40.5901 22.6465 40.2988 23.3268C40.0788 23.6793 39.7992 24 39.4601 24.2888L37.4378 26.2694L36.0869 27.5883L36.4903 30.0836L36.8309 32.0837C36.9866 32.9278 37.1547 33.6143 36.638 34.3406C36.3237 34.7623 35.894 35.0135 35.349 35.0944C34.9722 35.134 34.6139 35.0664 34.2742 34.8916C33.7504 34.6223 32.6977 34.069 31.1159 33.2316C30.667 32.9942 30.2085 32.7489 29.7402 32.4955C29.6246 32.4329 29.5202 32.4143 29.427 32.4397C29.3268 32.4663 29.1861 32.5354 29.005 32.647L24.7312 34.8987C24.0571 35.2117 23.4163 35.17 22.8088 34.7738L22.3151 34.2804C21.8639 33.5266 22.0294 32.9163 22.1683 32.1253L22.5372 29.9702L22.7548 28.6087C22.8247 28.3253 23.0114 27.676 22.8132 27.4829C21.5806 26.28 20.3479 25.0777 19.1153 23.876C18.6027 23.3764 18.4249 22.7661 18.5818 22.0451L18.7782 21.5712C19.0059 21.1856 19.3146 20.9216 19.7045 20.7793C19.9669 20.6842 20.2606 20.6234 20.5856 20.5968L24.848 19.975C25.1231 19.9431 25.4239 19.9369 25.5424 19.6995C25.6285 19.5253 25.7161 19.3511 25.8052 19.1769L28.0045 14.7311C28.3059 14.4028 28.6506 14.1808 29.0387 14.065C29.7122 13.9428 30.2651 14.0712 30.6974 14.4503C30.8968 14.6257 31.1371 14.9933 31.4184 15.5531C31.6673 16.0474 31.9124 16.5437 32.1536 17.0422ZM28.944 16.2352L28.5795 16.9651L27.5878 18.9829C27.3702 19.4122 27.1493 19.8607 26.9252 20.3284C26.8391 20.5085 26.7294 20.6736 26.5961 20.8236L26.1812 21.1664C25.7512 21.4144 25.2691 21.4551 24.794 21.5216L22.6035 21.836C22.1382 21.8986 21.3965 22.0105 20.3786 22.1717C20.1079 22.2151 19.9309 22.4853 20.1238 22.705C20.3759 22.992 20.6626 23.255 20.9368 23.5208L22.4213 24.9699L23.2653 25.7955C23.858 26.3677 24.3534 26.7663 24.4277 27.5786C24.4348 27.7055 24.4292 27.8322 24.4109 27.9586C24.313 28.6235 24.2042 29.2861 24.0845 29.9463L23.7448 31.9171C23.6769 32.3098 23.6115 32.7031 23.5484 33.097C23.5142 33.3072 23.5625 33.4557 23.6935 33.5425C23.8403 33.6391 23.9651 33.5806 24.1048 33.5133C24.3732 33.3828 24.6327 33.2452 24.8833 33.1005L26.6359 32.1722L26.9013 32.0447C27.5076 31.7252 28.1018 31.4125 28.6839 31.1066C28.7954 31.0482 28.9354 30.9974 29.1041 30.9543C29.9083 30.7975 30.3816 31.1536 31.0557 31.4849L32.3933 32.1899L33.2754 32.6594C33.802 32.9358 34.3272 33.2166 34.851 33.5018C34.9972 33.5809 35.109 33.611 35.1863 33.5921C35.4145 33.5349 35.5121 33.4064 35.4791 33.2068C35.4142 32.8159 35.3511 32.4474 35.2898 32.1014L34.9253 30.0003L34.5643 27.8018C34.5608 26.8513 35.1181 26.3872 35.7392 25.7893C36.8727 24.6974 37.9069 23.6876 38.8417 22.7599C39.0496 22.5535 38.9585 22.2249 38.6586 22.1708C38.4451 22.1319 38.0703 22.074 37.5342 21.9972L35.3251 21.6766C34.7395 21.588 34.1553 21.5009 33.5726 21.4153C33.1627 21.355 32.8162 21.1974 32.5331 20.9423C32.3568 20.7828 32.1568 20.4769 31.9333 20.0246C31.4308 19.0112 30.9295 17.9914 30.4294 16.9651C30.2418 16.5836 30.054 16.1936 29.8658 15.795C29.8063 15.6686 29.7411 15.5915 29.6703 15.5638C29.4491 15.4764 29.2831 15.5413 29.1722 15.7587C29.0537 15.9913 28.9776 16.1502 28.944 16.2352Z"/>
    <path d="M31.0442 4.36658C31.8192 4.70849 32.4623 5.21162 33.2117 5.66071C33.841 6.14789 34.5947 6.38056 35.4729 6.35871C35.9618 6.34631 36.6179 6.31649 37.4413 6.26925C38.6887 6.19661 39.8343 6.55004 40.6588 7.52617C40.8936 7.80372 41.1118 8.13648 41.3135 8.52445C41.6597 9.18879 41.9962 9.82862 42.3229 10.4439C42.6443 11.0303 43.1206 11.4797 43.7517 11.7921C44.1156 11.9899 44.6493 12.2651 45.3529 12.6177C46.2818 13.0836 47.0869 13.7674 47.4912 14.7648C47.7059 15.4563 47.784 16.177 47.7256 16.927C47.682 17.5104 47.6548 18.0948 47.6442 18.68C47.6324 19.3573 47.8002 19.9835 48.1476 20.5587C48.3434 20.8817 48.5327 21.1684 48.7156 21.4188C48.9013 21.717 49.0691 21.9869 49.2189 22.2284C49.4554 22.6075 49.6456 22.9937 49.7896 23.387C50.0508 24.1246 50.0688 24.85 49.8435 25.5634C49.602 26.3092 49.2304 26.9204 48.7916 27.5821C48.3057 28.2523 47.9999 28.7608 47.8742 29.1074C47.5354 30.0419 47.6469 31.0872 47.7212 32.104C47.7754 32.7719 47.73 33.4224 47.585 34.0554C47.4104 34.6572 47.104 35.1644 46.6658 35.5772C46.26 35.9599 45.8622 36.2474 45.4723 36.4399C44.8826 36.7317 44.3002 37.0317 43.7251 37.3399C43.1271 37.6363 42.6682 38.0695 42.3486 38.6393L41.8912 39.4773C41.877 39.5039 41.877 39.5304 41.8912 39.557L42.5476 40.7883C42.9404 41.5122 43.3247 42.2256 43.7003 42.9283C43.8189 43.1492 43.8148 43.3833 43.688 43.6307C43.3695 44.1693 42.6449 44.1445 42.3512 43.6086C41.9183 42.8191 41.4769 42.005 41.0269 41.1665C41.0243 41.1618 41.0205 41.1579 41.0159 41.1551C41.0114 41.1523 41.0062 41.1507 41.0008 41.1506C40.9955 41.1504 40.9902 41.1516 40.9854 41.1541C40.9807 41.1566 40.9767 41.1602 40.9738 41.1647C40.578 41.7978 40.0387 42.2666 39.3557 42.5713L38.4392 42.8052C38.0234 42.8554 37.6321 42.8687 37.2652 42.8451C36.4985 42.7954 35.8716 42.7647 35.3844 42.7529C34.2892 42.7272 33.5938 43.194 32.7242 43.7574C32.6953 43.7763 32.6891 43.8008 32.7056 43.8309L33.4151 45.1437L34.6616 47.4432L35.2305 48.4857L35.7356 49.4282L38.3879 54.3089C38.4103 54.349 38.4342 54.3502 38.4595 54.3124C39.2033 53.2129 39.9564 52.1056 40.719 50.9907C40.9702 50.6246 41.3312 50.4147 41.8018 50.3609L43.826 50.306L45.8881 50.2555C45.9194 50.2543 45.9277 50.2399 45.9129 50.2121L45.4706 49.3751L44.3506 47.2961C44.1583 46.9536 44.0409 46.7336 43.9985 46.6362C43.8534 46.3014 43.9808 45.8992 44.2904 45.7052C44.6063 45.5086 45.0574 45.5582 45.2813 45.8744C45.3532 45.976 45.4196 46.0841 45.4803 46.1986C45.8902 46.9704 46.4965 48.0871 47.2992 49.5487C47.7203 50.3435 47.5876 51.0161 46.9011 51.5665C46.6611 51.7053 46.3809 51.7767 46.0607 51.7808L42.0097 51.8863C41.9791 51.8874 41.9552 51.9004 41.9381 51.9252L41.6798 52.2875L40.7853 53.5949C40.4167 54.1329 40.0496 54.67 39.6839 55.2062C39.3849 55.6446 39.0717 55.9493 38.5692 55.9927C37.911 56.0494 37.4274 55.774 37.1184 55.1663C37.0134 54.959 36.7412 54.458 36.3018 53.6631L35.5322 52.2459L35.2163 51.6568L34.0096 49.4309L33.3152 48.1668L32.9498 47.4759L31.4034 44.6317C31.3987 44.6232 31.3911 44.6167 31.3819 44.6135C31.3728 44.6102 31.3628 44.6104 31.3538 44.614L30.4948 44.9683C30.059 45.107 29.5848 45.1507 29.0723 45.0994C28.5845 45.0244 28.1201 44.8629 27.6789 44.6148C27.6447 44.596 27.6182 44.6039 27.5993 44.6388L26.5978 46.4821L26.1732 47.258L24.9789 49.4574L24.7683 49.8658L23.7412 51.7454L22.7159 53.6321L22.416 54.1875C22.2178 54.5536 22.0191 54.918 21.8197 55.2806C21.7053 55.4896 21.5225 55.6745 21.2712 55.8351C20.7498 56.0624 20.286 56.048 19.8796 55.7917C19.672 55.6612 19.4467 55.4134 19.2037 55.0485C18.509 54.005 17.8012 52.9648 17.0805 51.9279C17.072 51.9155 17.0607 51.9053 17.0475 51.8981C17.0343 51.8909 17.0195 51.8868 17.0044 51.8863L16.2622 51.865L13.2932 51.7915C12.7969 51.7808 12.413 51.787 12.037 51.5116C11.3567 51.0138 11.3177 50.1342 11.7742 49.4379L12.2086 48.6354L12.8818 47.3847L14.3203 44.7273L15.159 43.1825L17.123 39.5552C17.133 39.5375 17.1333 39.5192 17.1239 39.5003C16.8036 38.8502 16.3798 38.0308 15.7544 37.6242C15.2542 37.2994 14.6869 36.9956 14.0523 36.7128L13.3428 36.3328C12.8621 36.047 12.4451 35.7148 12.0918 35.3363C11.8654 35.0593 11.6781 34.7484 11.5301 34.4035C11.2883 33.6329 11.2077 32.8472 11.2885 32.0465L11.3514 30.0623C11.2956 29.3572 11.0435 28.8408 10.6463 28.2526C10.2788 27.7088 9.9291 27.1537 9.59705 26.5874C9.46494 26.3624 9.32398 26.0402 9.17418 25.621C8.93591 24.8875 8.9421 24.1621 9.19276 23.4446C9.34433 23.0324 9.49708 22.6952 9.65102 22.433C9.89873 22.0102 10.2558 21.4463 10.7224 20.7412C10.9477 20.4016 11.1154 20.073 11.2257 19.7553C11.2989 19.5451 11.3384 19.3059 11.3443 19.0378L11.2655 16.5302C11.2461 15.8995 11.3404 15.2827 11.5486 14.6798C11.7079 14.3119 11.9119 13.9886 12.1608 13.7098C12.4947 13.3703 12.8922 13.0585 13.3534 12.7744L14.1284 12.3723C14.681 12.1119 15.1389 11.8736 15.5022 11.6575C15.9994 11.3625 16.3338 11.017 16.6337 10.5113C17.0557 9.80175 17.3999 9.04795 17.79 8.30832L18.4358 7.41457C19.7735 6.01857 21.3738 6.2409 23.1184 6.34897C23.7778 6.38971 24.2935 6.35369 24.6657 6.2409C24.9423 6.15764 25.2714 5.99938 25.653 5.76612C25.8919 5.62026 26.3457 5.32323 27.0145 4.87502C27.5029 4.56264 28.0095 4.31668 28.5344 4.13716C29.3801 3.89623 30.2167 3.9727 31.0442 4.36658ZM26.7128 6.88752C26.1219 7.30266 25.4802 7.60353 24.7878 7.79014C24.0606 7.89348 23.3045 7.9109 22.5195 7.8424C21.8825 7.77862 21.2494 7.78069 20.6201 7.8486C20.3281 7.90116 20.0624 8.01719 19.823 8.19671C19.6626 8.31954 19.5249 8.46068 19.4099 8.62012C19.0648 9.09903 18.7534 9.66416 18.4756 10.3155L18.1448 10.9232C17.8345 11.542 17.4294 12.072 16.9292 12.5131L16.2463 12.9879L14.0319 14.1518L13.4631 14.5628C13.1216 14.8481 12.9184 15.2018 12.8535 15.624C12.7839 16.0805 12.7683 16.568 12.8066 17.0864L12.873 19.0635C12.8412 19.8223 12.6105 20.5629 12.1812 21.2851L11.8689 21.7962L10.9064 23.2967C10.4552 24.1497 10.357 24.8937 10.8807 25.76L11.9344 27.4147C12.2186 27.8405 12.4578 28.3256 12.6518 28.87C12.7996 29.2855 12.8748 29.7532 12.8774 30.173C12.881 30.649 12.8571 31.2687 12.8058 32.0323C12.7869 32.4226 12.7901 32.8138 12.8155 33.2059C12.8468 33.6943 13.0128 34.0991 13.3136 34.4204L14.108 35.0227L16.2277 36.1184L16.8001 36.4931C17.3875 36.9939 17.834 37.5602 18.1395 38.192L18.4703 38.8059C18.7729 39.4676 19.1232 40.2205 19.6248 40.7466C20.1494 41.2967 20.9129 41.3534 21.6401 41.3197C22.0654 41.3008 22.4903 41.2808 22.9149 41.2595C23.51 41.2152 24.1081 41.2344 24.7091 41.3171C25.4079 41.4836 26.0664 41.7821 26.6845 42.2126C27.4678 42.7417 27.9853 43.0733 28.2371 43.2073C28.5822 43.391 28.8859 43.5106 29.1483 43.5661C29.7296 43.6892 30.3418 43.4518 30.8549 43.1524L31.0955 43.0125C31.8652 42.5182 32.58 42.0009 33.3912 41.605C34.096 41.3132 34.843 41.1931 35.6321 41.2444L37.5253 41.3312C37.7943 41.3312 38.0762 41.3085 38.3711 41.263C38.6506 41.2199 38.8977 41.1243 39.1124 40.976C39.3519 40.7942 39.5512 40.5822 39.7105 40.3401C40.013 39.8676 40.2781 39.3745 40.5058 38.8608C41.0622 37.7376 41.6134 36.8049 42.7192 36.1662C43.1232 35.9324 43.527 35.713 43.9304 35.5081C44.5113 35.2701 45.0601 34.943 45.5767 34.5267C45.8982 34.2586 46.0928 33.8927 46.1606 33.4292C46.2161 33.05 46.2293 32.6083 46.2004 32.104L46.127 30.1101L46.2509 29.1765C46.3812 28.72 46.5623 28.286 46.794 27.8744C47.1031 27.3819 47.4174 26.8938 47.7371 26.4102C48.0096 25.9974 48.2591 25.5661 48.405 25.0939C48.6625 24.2604 48.221 23.426 47.7592 22.7431C47.4048 22.2193 47.0627 21.6834 46.733 21.1354C46.5307 20.758 46.3703 20.3612 46.2517 19.9449L46.1288 19.0254L46.1969 17.0953C46.2228 16.6825 46.2158 16.2509 46.1757 15.8003C46.1279 15.2682 45.8873 14.8286 45.4538 14.4814C45.0191 14.1601 44.5169 13.8702 43.9472 13.6115C43.1946 13.2607 42.6025 12.9218 42.1707 12.5946C41.4312 12.0339 40.9596 11.1411 40.5049 10.2659C40.3056 9.78935 40.0437 9.30424 39.7193 8.81056C39.5843 8.56845 39.3949 8.35822 39.1514 8.17988C38.9449 8.02871 38.6943 7.92212 38.3994 7.86012C38.1039 7.79811 37.8291 7.77419 37.5749 7.78837C36.8471 7.82911 36.1051 7.86041 35.349 7.88226C34.6784 7.89998 34.0288 7.77892 33.4001 7.51909C32.9666 7.30827 32.6024 7.10425 32.3075 6.90701C31.4644 6.34188 30.7027 5.73335 29.7968 5.54999C28.8033 5.34892 27.6559 6.26305 26.7128 6.88752ZM14.5831 47.4281L14.0487 48.4202L13.0818 50.2077C13.0785 50.2136 13.0768 50.2204 13.0768 50.2272C13.0769 50.234 13.0788 50.2407 13.0822 50.2467C13.0857 50.2526 13.0907 50.2576 13.0966 50.2612C13.1026 50.2647 13.1093 50.2668 13.1163 50.267L16.2799 50.3423C16.7912 50.3453 17.1144 50.3547 17.2495 50.3707C17.5957 50.4102 17.8968 50.5593 18.1527 50.818L18.8189 51.772L20.5529 54.3098C20.5711 54.3363 20.5885 54.3357 20.605 54.308L20.8032 53.967L22.0055 51.7569L22.7 50.4734L23.2157 49.5283L24.326 47.475L24.9975 46.2296L26.2891 43.8557C26.2987 43.8384 26.3015 43.818 26.2969 43.7987C26.2923 43.7793 26.2807 43.7624 26.2643 43.7512C25.4398 43.1754 24.6515 42.7122 23.5961 42.7503C21.7463 42.8167 19.7115 43.2561 18.3465 41.5899L18.0191 41.1532C18.0173 41.1507 18.0149 41.1487 18.0121 41.1474C18.0092 41.1461 18.0061 41.1455 18.0029 41.1458C17.9997 41.1461 17.9966 41.1471 17.9939 41.1489C17.9912 41.1506 17.9889 41.153 17.9873 41.1559L14.5831 47.4281Z"/>
    <path d="M30.2781 8.8327L31.1221 8.88585C31.8328 8.96203 32.5443 9.08426 33.2568 9.25256C33.9445 9.42795 34.6392 9.65264 35.3411 9.92665L36.546 10.4776L37.4723 10.9843C38.1151 11.3663 38.7869 11.8355 39.4875 12.3918L39.9405 12.7922C40.5568 13.352 41.1286 13.9484 41.6559 14.5814L41.8523 14.8339C42.8443 16.1023 43.6263 17.4877 44.1984 18.99C44.4886 19.7671 44.718 20.5584 44.8867 21.3639C45.0336 22.0731 45.1282 22.764 45.1707 23.4366C45.2238 24.2043 45.2244 24.9516 45.1725 25.6785C45.1282 26.3399 45.0395 27.0007 44.9062 27.6609C44.744 28.4528 44.5246 29.2332 44.248 30.0021L43.68 31.344L43.3518 31.9853C42.9366 32.7695 42.4491 33.5192 41.8894 34.2343L41.6559 34.5346C41.1569 35.1387 40.6235 35.7006 40.0555 36.2203L39.461 36.7349C38.8252 37.2593 38.1481 37.7335 37.4298 38.1575L36.5929 38.6181L35.3367 39.1912C34.6254 39.4776 33.91 39.7064 33.1904 39.8777C32.498 40.0424 31.7941 40.1641 31.0787 40.2426L29.0838 40.309C28.3147 40.2907 27.5577 40.2169 26.8128 40.0876L24.7993 39.5995C24.1293 39.3828 23.4204 39.1014 22.6725 38.7554L22.3735 38.5986L20.6909 37.603C19.9996 37.1241 19.4214 36.6685 18.956 36.2362C15.8986 33.3952 14.1859 29.8745 13.8178 25.6741L13.8249 23.4331C13.8733 22.7658 13.9709 22.0716 14.1177 21.3506C14.1673 21.2006 14.1876 21.0825 14.1788 20.9963L14.7795 19.0423C15.0119 18.4228 15.3023 17.7774 15.6509 17.1059C15.734 16.9601 15.8405 16.7767 15.9703 16.5559C16.0705 16.3864 16.2044 16.2609 16.3719 16.1794C16.9794 16.0542 17.3324 16.3229 17.4309 16.9855L16.4073 19.0307L16.2003 19.5728C15.9874 20.1403 15.814 20.7199 15.6801 21.3116C15.5238 21.9813 15.4141 22.6619 15.351 23.3534C15.2926 24.1151 15.2914 24.8937 15.3474 25.6892C15.4058 26.3736 15.512 27.063 15.6659 27.7575C16.2793 30.3528 17.5149 32.6072 19.3727 34.5204L20.3759 35.447C20.8537 35.8639 21.3559 36.2336 21.8825 36.556L22.4425 36.8997C23.1632 37.3266 23.9426 37.6874 24.7807 37.9821C25.3953 38.21 26.0712 38.3931 26.8084 38.5313C27.4707 38.673 28.2085 38.758 29.0219 38.7864C29.6983 38.8212 30.3943 38.7944 31.1097 38.7058C31.8988 38.6131 32.6402 38.4675 33.3338 38.2691C34.0615 38.0624 34.7407 37.8126 35.3712 37.5197C36.0176 37.2351 36.6569 36.8769 37.2891 36.4453L37.5908 36.2522C39.2009 35.1248 40.5226 33.7303 41.5559 32.0686L41.9045 31.4645L42.5989 30.0357C42.9033 29.3306 43.1436 28.5824 43.3199 27.7911C43.4916 27.0872 43.6042 26.3751 43.6579 25.6546C43.7104 24.8409 43.708 24.0841 43.6508 23.3844C43.5818 22.6084 43.468 21.9063 43.3093 21.278C43.1265 20.476 42.885 19.7346 42.5848 19.0538C42.386 18.5294 42.1236 18.0085 41.7974 17.4912L41.5674 17.0652C40.0145 14.5927 37.9113 12.752 35.2579 11.5432C34.674 11.2857 34.0403 11.0566 33.3568 10.8558C32.6337 10.6468 31.8693 10.4995 31.0637 10.4138C30.33 10.3258 29.6057 10.3007 28.8909 10.3385C28.1708 10.3681 27.461 10.4522 26.7615 10.591C26.0927 10.7144 25.4448 10.8895 24.8179 11.1163C23.9668 11.4068 23.1618 11.7779 22.4027 12.2297L21.9622 12.5007C21.429 12.8237 20.9097 13.2014 20.4042 13.6337L19.3612 14.6036C18.78 15.159 17.8298 14.6603 18.0678 13.879C18.1466 13.6204 18.3987 13.4007 18.6022 13.2102L18.8861 12.9357C19.4659 12.4166 20.074 11.935 20.7103 11.4909L22.3319 10.5113L22.6664 10.3598C23.3941 10.0179 24.1057 9.7365 24.8011 9.51564C25.4923 9.30246 26.2065 9.13328 26.9437 9.00809C28.0402 8.83329 29.1516 8.77483 30.2781 8.8327Z"/>
    <path d="M32.1536 17.0422C32.5493 17.847 32.9463 18.6516 33.3444 19.4559C33.4806 19.7314 33.5293 19.8917 33.8124 19.9316C34.2747 19.9954 34.7536 20.0627 35.2491 20.1335L37.551 20.4666C37.9804 20.5245 38.4309 20.5906 38.9028 20.665C39.0779 20.6922 39.2829 20.7607 39.5176 20.8705C39.7317 20.9992 39.9272 21.1687 40.1042 21.379C40.5253 21.9972 40.5901 22.6465 40.2988 23.3268C40.0788 23.6793 39.7992 24 39.4601 24.2888L37.4378 26.2694L36.0869 27.5883L36.4903 30.0836L36.8309 32.0837C36.9866 32.9278 37.1547 33.6143 36.638 34.3406C36.3237 34.7623 35.894 35.0135 35.349 35.0944C34.9722 35.134 34.6139 35.0664 34.2742 34.8916C33.7504 34.6223 32.6977 34.069 31.1159 33.2316C30.667 32.9942 30.2085 32.7489 29.7402 32.4955C29.6246 32.4329 29.5202 32.4143 29.427 32.4397C29.3268 32.4663 29.1861 32.5354 29.005 32.647L24.7312 34.8987C24.0571 35.2117 23.4163 35.17 22.8088 34.7738L22.3151 34.2804C21.8639 33.5266 22.0294 32.9163 22.1683 32.1253L22.5372 29.9702L22.7548 28.6087C22.8247 28.3253 23.0114 27.676 22.8132 27.4829C21.5806 26.28 20.3479 25.0777 19.1153 23.876C18.6027 23.3764 18.4249 22.7661 18.5818 22.0451L18.7782 21.5712C19.0059 21.1856 19.3146 20.9216 19.7045 20.7793C19.9669 20.6842 20.2606 20.6234 20.5856 20.5968L24.848 19.975C25.1231 19.9431 25.4239 19.9369 25.5424 19.6995C25.6285 19.5253 25.7161 19.3511 25.8052 19.1769L28.0045 14.7311C28.3059 14.4028 28.6506 14.1808 29.0387 14.065C29.7122 13.9428 30.2651 14.0712 30.6974 14.4503C30.8968 14.6257 31.1371 14.9933 31.4184 15.5531C31.6673 16.0474 31.9124 16.5437 32.1536 17.0422ZM28.944 16.2352L28.5795 16.9651L27.5878 18.9829C27.3702 19.4122 27.1493 19.8607 26.9252 20.3284C26.8391 20.5085 26.7294 20.6736 26.5961 20.8236L26.1812 21.1664C25.7512 21.4144 25.2691 21.4551 24.794 21.5216L22.6035 21.836C22.1382 21.8986 21.3965 22.0105 20.3786 22.1717C20.1079 22.2151 19.9309 22.4853 20.1238 22.705C20.3759 22.992 20.6626 23.255 20.9368 23.5208L22.4213 24.9699L23.2653 25.7955C23.858 26.3677 24.3534 26.7663 24.4277 27.5786C24.4348 27.7055 24.4292 27.8322 24.4109 27.9586C24.313 28.6235 24.2042 29.2861 24.0845 29.9463L23.7448 31.9171C23.6769 32.3098 23.6115 32.7031 23.5484 33.097C23.5142 33.3072 23.5625 33.4557 23.6935 33.5425C23.8403 33.6391 23.9651 33.5806 24.1048 33.5133C24.3732 33.3828 24.6327 33.2452 24.8833 33.1005L26.6359 32.1722L26.9013 32.0447C27.5076 31.7252 28.1018 31.4125 28.6839 31.1066C28.7954 31.0482 28.9354 30.9974 29.1041 30.9543C29.9083 30.7975 30.3816 31.1536 31.0557 31.4849L32.3933 32.1899L33.2754 32.6594C33.802 32.9358 34.3272 33.2166 34.851 33.5018C34.9972 33.5809 35.109 33.611 35.1863 33.5921C35.4145 33.5349 35.5121 33.4064 35.4791 33.2068C35.4142 32.8159 35.3511 32.4474 35.2898 32.1014L34.9253 30.0003L34.5643 27.8018C34.5608 26.8513 35.1181 26.3872 35.7392 25.7893C36.8727 24.6974 37.9069 23.6876 38.8417 22.7599C39.0496 22.5535 38.9585 22.2249 38.6586 22.1708C38.4451 22.1319 38.0703 22.074 37.5342 21.9972L35.3251 21.6766C34.7395 21.588 34.1553 21.5009 33.5726 21.4153C33.1627 21.355 32.8162 21.1974 32.5331 20.9423C32.3568 20.7828 32.1568 20.4769 31.9333 20.0246C31.4308 19.0112 30.9295 17.9914 30.4294 16.9651C30.2418 16.5836 30.054 16.1936 29.8658 15.795C29.8063 15.6686 29.7411 15.5915 29.6703 15.5638C29.4491 15.4764 29.2831 15.5413 29.1722 15.7587C29.0537 15.9913 28.9776 16.1502 28.944 16.2352Z"/>
    <path d="M41.5 40.5L46 49" stroke-width="2.5" stroke-linecap="square"/>
</symbol><symbol viewBox="0 0 24 24" id="phone__logo" xmlns="http://www.w3.org/2000/svg">
    <g clip-path="url(#eclip0_2017_22)">
        <path d="M23.0929 16.7391C23.6724 17.3202 23.9978 18.1074 23.9978 18.9281C23.9978 19.7488 23.6724 20.536 23.0929 21.1171L22.1829 22.1661C13.9929 30.0071 -5.9371 10.0821 1.78289 1.86613L2.93289 0.866132C3.51466 0.302809 4.29482 -0.0088188 5.10459 -0.00133303C5.91436 0.00615273 6.68863 0.332151 7.25989 0.906132C7.29089 0.937132 9.14388 3.34413 9.14388 3.34413C9.69371 3.92176 9.99979 4.68906 9.99848 5.48654C9.99718 6.28401 9.6886 7.05031 9.13688 7.62613L7.97888 9.08213C8.61973 10.6392 9.56195 12.0544 10.7514 13.2462C11.9408 14.4381 13.3541 15.3831 14.9099 16.0271L16.3749 14.8621C16.9508 14.3108 17.7169 14.0026 18.5142 14.0015C19.3114 14.0004 20.0784 14.3065 20.6559 14.8561C20.6559 14.8561 23.0619 16.7081 23.0929 16.7391ZM21.7169 18.1931C21.7169 18.1931 19.3239 16.3521 19.2929 16.3211C19.0869 16.1169 18.8085 16.0023 18.5184 16.0023C18.2283 16.0023 17.9499 16.1169 17.7439 16.3211C17.7169 16.3491 15.6999 17.9561 15.6999 17.9561C15.564 18.0643 15.4022 18.1352 15.2305 18.1619C15.0589 18.1885 14.8832 18.17 14.7209 18.1081C12.7053 17.3577 10.8746 16.1829 9.35272 14.6632C7.83082 13.1436 6.65329 11.3146 5.89989 9.30013C5.83309 9.13559 5.81131 8.95622 5.83679 8.78047C5.86227 8.60472 5.9341 8.43893 6.04489 8.30013C6.04489 8.30013 7.65189 6.28213 7.67888 6.25613C7.88315 6.05012 7.99776 5.77175 7.99776 5.48163C7.99776 5.19152 7.88315 4.91315 7.67888 4.70713C7.64788 4.67713 5.80689 2.28213 5.80689 2.28213C5.59779 2.09464 5.32489 1.99423 5.04414 2.00148C4.76338 2.00873 4.49603 2.1231 4.29689 2.32113L3.14689 3.32113C-2.4951 10.1051 14.7759 26.4181 20.7209 20.8001L21.6319 19.7501C21.8453 19.5524 21.9736 19.2794 21.9894 18.9888C22.0053 18.6983 21.9076 18.4129 21.7169 18.1931Z"/>
    </g>
    <defs>
        <clipPath id="eclip0_2017_22">
            <rect width="24" height="24"/>
        </clipPath>
    </defs>
</symbol></svg>