<?xml version="1.0" encoding="utf-8"?><svg viewBox="0 0 60 60" xmlns="http://www.w3.org/2000/svg" xmlns:xlink="http://www.w3.org/1999/xlink"><style>:root>svg{display:none}:root>svg:target{display:block}</style><svg fill="none" viewBox="0 0 24 24" id="arrow" xmlns="http://www.w3.org/2000/svg"><path d="M18.71 8.21a1 1 0 0 0-1.42 0l-4.58 4.58a1.001 1.001 0 0 1-1.42 0L6.71 8.21a1 1 0 1 0-1.42 1.41l4.59 4.59a3 3 0 0 0 4.24 0l4.59-4.59a1 1 0 0 0 0-1.41Z" fill="#000"/></svg><svg fill="none" viewBox="0 0 25 24" id="clock__logo" xmlns="http://www.w3.org/2000/svg"><path d="M15.934 15.449a1 1 0 0 0 .632-1.898l-.632 1.898ZM12.5 13.25h-1a1 1 0 0 0 .684.949l.316-.949Zm1-5.227a1 1 0 1 0-2 0h2Zm3.066 5.528-3.75-1.25-.632 1.898 3.75 1.25.632-1.898ZM13.5 13.25V8.023h-2v5.227h2Zm8-1.25a9 9 0 0 1-9 9v2c6.075 0 11-4.925 11-11h-2Zm-9 9a9 9 0 0 1-9-9h-2c0 6.075 4.925 11 11 11v-2Zm-9-9a9 9 0 0 1 9-9V1c-6.075 0-11 4.925-11 11h2Zm9-9a9 9 0 0 1 9 9h2c0-6.075-4.925-11-11-11v2Z" fill="#000"/></svg><svg fill="none" viewBox="0 0 24 24" id="location__logo" xmlns="http://www.w3.org/2000/svg"><g clip-path="url(#ca)" fill="#000"><path d="M12 6a4 4 0 1 0 0 8 4 4 0 0 0 0-8Zm0 6a2 2 0 1 1 0-4 2 2 0 0 1 0 4Z"/><path d="M12 24a5.27 5.27 0 0 1-4.311-2.2c-3.811-5.257-5.744-9.209-5.744-11.747a10.055 10.055 0 1 1 20.11 0c0 2.538-1.933 6.49-5.744 11.747A5.27 5.27 0 0 1 12 24Zm0-21.819a7.883 7.883 0 0 0-7.874 7.874c0 2.01 1.893 5.727 5.329 10.466a3.145 3.145 0 0 0 5.09 0c3.436-4.739 5.329-8.456 5.329-10.466A7.883 7.883 0 0 0 12 2.181Z"/></g><defs><clipPath id="ca"><path fill="#fff" d="M0 0h24v24H0z"/></clipPath></defs></svg><svg fill="none" viewBox="0 0 60 60" id="medal" xmlns="http://www.w3.org/2000/svg"><path d="M31.044 4.367c.775.341 1.418.845 2.168 1.294.629.487 1.383.72 2.26.698a64.899 64.899 0 0 0 1.97-.09c1.247-.072 2.392.281 3.217 1.257.235.278.453.61.654.998.347.665.683 1.305 1.01 1.92a3.2 3.2 0 0 0 1.429 1.348c.364.198.897.473 1.6.826.93.466 1.735 1.15 2.14 2.147.214.691.292 1.412.234 2.162-.044.583-.071 1.168-.082 1.753a3.447 3.447 0 0 0 .504 1.879c.195.323.385.61.568.86l.503.81c.236.379.427.765.57 1.158.262.738.28 1.463.054 2.176-.241.746-.613 1.357-1.051 2.02-.486.67-.792 1.178-.918 1.524-.339.935-.227 1.98-.153 2.997a6.378 6.378 0 0 1-.136 1.951 3.319 3.319 0 0 1-.92 1.522c-.405.383-.803.67-1.193.863-.59.292-1.172.592-1.747.9a3.136 3.136 0 0 0-1.376 1.3l-.458.837a.08.08 0 0 0 0 .08l.657 1.231c.392.724.777 1.438 1.152 2.14.119.221.115.455-.012.703a.756.756 0 0 1-1.337-.022 308.91 308.91 0 0 1-1.324-2.443.03.03 0 0 0-.026-.015.03.03 0 0 0-.027.014 3.594 3.594 0 0 1-1.618 1.406l-.917.234c-.416.05-.807.064-1.174.04-.767-.05-1.393-.08-1.88-.092-1.096-.026-1.791.441-2.66 1.004-.03.02-.036.044-.02.074l.71 1.313 1.247 2.3.569 1.042.505.942 2.652 4.88c.022.041.046.042.072.004.743-1.1 1.496-2.206 2.259-3.321.251-.366.612-.576 1.083-.63l2.024-.055 2.062-.05c.031-.002.04-.016.025-.044l-.442-.837-1.12-2.079c-.193-.342-.31-.562-.352-.66a.756.756 0 0 1 .291-.93c.316-.197.767-.148.991.168.072.102.139.21.2.325.41.771 1.015 1.888 1.818 3.35.421.794.289 1.467-.398 2.017-.24.14-.52.21-.84.215l-4.051.105a.086.086 0 0 0-.072.04l-.258.361-.895 1.308-1.101 1.611c-.3.439-.612.743-1.115.787-.658.056-1.142-.219-1.45-.827a66.66 66.66 0 0 0-.817-1.503l-.77-1.417-.316-.59-1.206-2.225-.695-1.264-.365-.691-1.547-2.844a.04.04 0 0 0-.021-.018.04.04 0 0 0-.028 0l-.86.354a3.5 3.5 0 0 1-1.422.131 4.09 4.09 0 0 1-1.393-.484c-.034-.019-.06-.011-.08.024l-1.001 1.843-.425.776-1.194 2.2-.21.408-1.028 1.88-1.025 1.886-.3.556c-.198.366-.397.73-.596 1.093a1.563 1.563 0 0 1-.549.554c-.521.227-.985.213-1.391-.043-.208-.13-.433-.379-.676-.744a188.378 188.378 0 0 0-2.123-3.12.095.095 0 0 0-.077-.042l-.742-.021-2.969-.074c-.496-.01-.88-.004-1.256-.28-.68-.497-.72-1.377-.263-2.073l.435-.803.673-1.25 1.438-2.658.839-1.544 1.964-3.628a.055.055 0 0 0 0-.055c-.32-.65-.743-1.47-1.369-1.876-.5-.325-1.067-.628-1.702-.911l-.71-.38a5.64 5.64 0 0 1-1.25-.997 3.886 3.886 0 0 1-.562-.932 5.836 5.836 0 0 1-.241-2.358l.062-1.984c-.055-.705-.308-1.221-.705-1.81a30.762 30.762 0 0 1-1.049-1.665 5.925 5.925 0 0 1-.423-.966 3.32 3.32 0 0 1 .019-2.176c.151-.413.304-.75.458-1.012.248-.423.605-.987 1.071-1.692.226-.34.393-.668.504-.986.073-.21.112-.45.118-.717l-.079-2.508a5.14 5.14 0 0 1 .284-1.85c.159-.368.363-.691.612-.97.334-.34.731-.652 1.192-.936l.775-.402c.553-.26 1.01-.498 1.374-.714.497-.295.832-.641 1.132-1.147.422-.71.766-1.463 1.156-2.203l.646-.893c1.337-1.396 2.938-1.174 4.682-1.066.66.04 1.176.005 1.548-.108.276-.083.605-.242.987-.475.239-.146.693-.443 1.362-.891a7.049 7.049 0 0 1 1.52-.738c.845-.24 1.682-.164 2.51.23Zm-4.331 2.52a6.074 6.074 0 0 1-1.925.903 9.941 9.941 0 0 1-2.268.052 9.155 9.155 0 0 0-1.9.007 1.861 1.861 0 0 0-.797.348 2.02 2.02 0 0 0-.413.423 8.794 8.794 0 0 0-.934 1.696l-.331.607a5.207 5.207 0 0 1-1.216 1.59l-.683.475-2.214 1.164-.569.41a1.678 1.678 0 0 0-.61 1.062c-.07.457-.085.944-.046 1.462l.066 1.978c-.032.758-.262 1.499-.692 2.221l-.312.511-.963 1.5c-.45.854-.549 1.598-.025 2.464l1.053 1.655a6.6 6.6 0 0 1 .718 1.455c.148.415.223.883.225 1.303.004.476-.02 1.096-.071 1.86-.02.39-.016.78.01 1.173.03.488.197.893.498 1.214l.794.603 2.12 1.095.572.375a5.211 5.211 0 0 1 1.34 1.699l.33.614c.303.662.653 1.415 1.155 1.94.524.55 1.288.607 2.015.574l1.275-.06a8.499 8.499 0 0 1 1.794.057 5.778 5.778 0 0 1 1.976.896c.783.529 1.3.86 1.552.994.345.184.649.304.911.36.582.122 1.194-.115 1.707-.415l.24-.14c.77-.494 1.485-1.011 2.296-1.407a4.942 4.942 0 0 1 2.241-.36l1.893.086c.27 0 .551-.023.846-.068.28-.043.527-.139.741-.287.24-.182.44-.394.599-.636.302-.472.567-.966.795-1.48.556-1.122 1.107-2.055 2.213-2.694a25.23 25.23 0 0 1 1.211-.658 6.614 6.614 0 0 0 1.647-.981c.321-.268.516-.634.584-1.098.055-.379.068-.82.04-1.325l-.074-1.994.124-.933c.13-.457.311-.891.543-1.303.31-.492.623-.98.943-1.464.273-.413.522-.844.668-1.316.258-.834-.184-1.668-.646-2.35a35.839 35.839 0 0 1-1.026-1.609 5.98 5.98 0 0 1-.481-1.19l-.123-.92.068-1.93a8.561 8.561 0 0 0-.021-1.295c-.048-.532-.289-.971-.722-1.319a8.3 8.3 0 0 0-1.507-.87c-.752-.35-1.345-.69-1.776-1.016-.74-.561-1.211-1.454-1.666-2.33a8.952 8.952 0 0 0-.786-1.454 1.927 1.927 0 0 0-1.32-.95 3.165 3.165 0 0 0-.824-.073c-.728.041-1.47.072-2.226.094A4.722 4.722 0 0 1 33.4 7.52a9.31 9.31 0 0 1-1.093-.612c-.843-.565-1.604-1.174-2.51-1.357-.994-.201-2.141.713-3.084 1.338Zm-12.13 40.541-.534.992-.967 1.788a.04.04 0 0 0-.005.02.04.04 0 0 0 .02.033.041.041 0 0 0 .02.006l3.163.075c.511.003.834.013.97.029.346.04.647.188.903.447l.666.954 1.734 2.538c.018.026.035.026.052-.002l.198-.341 1.203-2.21.694-1.284.516-.945 1.11-2.053.671-1.245 1.292-2.374a.08.08 0 0 0-.025-.105c-.824-.576-1.613-1.039-2.668-1-1.85.066-3.884.505-5.25-1.161l-.327-.437a.018.018 0 0 0-.016-.007.02.02 0 0 0-.01.003.02.02 0 0 0-.006.007l-3.404 6.272Z" fill="#0063C7"/><path d="m30.278 8.833.844.053c.71.076 1.422.198 2.135.367.688.175 1.382.4 2.084.674l1.205.55.926.507c.643.382 1.315.851 2.015 1.408l.453.4c.617.56 1.189 1.156 1.716 1.79l.196.252a15.887 15.887 0 0 1 2.346 4.156c.29.777.52 1.568.689 2.374.147.71.241 1.4.284 2.073.053.767.053 1.515.002 2.241a15.108 15.108 0 0 1-.267 1.983 16.965 16.965 0 0 1-.658 2.341l-.568 1.342-.328.641a15.135 15.135 0 0 1-1.463 2.25l-.233.3a16.672 16.672 0 0 1-1.6 1.685l-.595.515c-.636.524-1.313.998-2.031 1.422l-.837.461-1.256.573c-.712.287-1.427.515-2.147.687-.692.164-1.396.286-2.111.365l-1.995.066a15.403 15.403 0 0 1-2.271-.221l-2.014-.489a19.073 19.073 0 0 1-2.127-.844l-.299-.156-1.682-.996a15.7 15.7 0 0 1-1.735-1.367c-3.057-2.84-4.77-6.361-5.138-10.562l.007-2.24c.048-.668.146-1.362.293-2.083a.91.91 0 0 0 .06-.355l.601-1.954c.233-.62.523-1.265.872-1.936.083-.146.19-.33.32-.55.1-.17.233-.295.4-.377.608-.125.961.144 1.06.806l-1.024 2.046-.207.542a13.305 13.305 0 0 0-.52 1.739 14.95 14.95 0 0 0-.329 2.041 15.91 15.91 0 0 0-.004 2.336c.059.685.165 1.374.319 2.069a14.237 14.237 0 0 0 3.707 6.762l1.003.927c.478.417.98.787 1.506 1.109l.56.344c.721.427 1.5.787 2.339 1.082.614.228 1.29.411 2.027.55.663.141 1.4.226 2.214.254.676.035 1.372.008 2.088-.08a14.037 14.037 0 0 0 4.261-1.186 11.936 11.936 0 0 0 1.918-1.075l.302-.193a14.234 14.234 0 0 0 3.965-4.183l.349-.605.694-1.428c.304-.705.545-1.454.72-2.245.173-.704.285-1.416.339-2.136.052-.814.05-1.57-.007-2.27a13.523 13.523 0 0 0-.342-2.107 12.248 12.248 0 0 0-.724-2.224 8.743 8.743 0 0 0-.788-1.563l-.23-.426c-1.553-2.472-3.656-4.313-6.31-5.522a15.628 15.628 0 0 0-1.9-.687 13.32 13.32 0 0 0-2.293-.442 12.62 12.62 0 0 0-2.173-.075c-.72.03-1.43.113-2.13.252a12.22 12.22 0 0 0-1.943.525c-.851.29-1.656.662-2.415 1.114l-.44.27c-.534.324-1.053.701-1.559 1.134l-1.043.97c-.581.555-1.531.056-1.293-.725.079-.259.33-.478.534-.669l.284-.274c.58-.52 1.188-1.001 1.824-1.445l1.622-.98.334-.151c.728-.342 1.44-.623 2.135-.844a16.812 16.812 0 0 1 2.143-.508 15.93 15.93 0 0 1 3.334-.175Z" fill="#0063C7"/><path d="M32.154 17.042c.395.805.792 1.61 1.19 2.414.137.275.185.436.468.476.463.063.942.13 1.437.202l2.302.333c.43.058.88.124 1.352.198.175.027.38.096.615.206.214.128.41.298.586.508.421.618.486 1.267.195 1.948-.22.352-.5.673-.839.962l-2.022 1.98-1.351 1.32.403 2.495.34 2c.157.844.325 1.53-.192 2.257-.314.421-.744.672-1.289.753a1.874 1.874 0 0 1-1.075-.202 373.544 373.544 0 0 1-4.534-2.397c-.115-.062-.22-.08-.313-.055-.1.026-.24.095-.422.207l-4.274 2.252c-.674.313-1.315.271-1.922-.125l-.494-.494c-.451-.753-.286-1.364-.147-2.155l.37-2.155.217-1.361c.07-.284.256-.933.058-1.126l-3.698-3.607c-.512-.5-.69-1.11-.533-1.83l.196-.475c.228-.385.537-.65.927-.792.262-.095.556-.156.88-.182l4.263-.622c.275-.032.576-.038.694-.276.086-.174.174-.348.263-.522l2.2-4.446c.3-.328.646-.55 1.034-.666.673-.122 1.226.006 1.658.385.2.176.44.543.721 1.103.25.494.494.99.736 1.49Zm-3.21-.807-.364.73-.992 2.018c-.218.43-.439.878-.663 1.345-.086.18-.196.346-.329.496l-.415.342c-.43.248-.912.29-1.387.356l-2.19.314c-.466.063-1.207.175-2.225.336-.271.043-.448.313-.255.533.252.287.539.55.813.816l1.484 1.449.844.826c.593.572 1.088.97 1.163 1.783.007.127.001.253-.017.38a60.726 60.726 0 0 1-.327 1.987l-.34 1.971a96.7 96.7 0 0 0-.196 1.18c-.034.21.015.359.146.445.146.097.271.039.41-.029.27-.13.529-.268.78-.413l1.752-.928.265-.127c.607-.32 1.2-.633 1.783-.938.111-.059.251-.11.42-.153.804-.157 1.278.2 1.952.53l1.337.706.882.47c.527.276 1.052.557 1.576.842.146.079.258.109.335.09.228-.057.326-.186.293-.385-.065-.391-.128-.76-.19-1.106l-.364-2.1-.36-2.2c-.004-.95.553-1.414 1.174-2.012a293.2 293.2 0 0 0 3.103-3.03c.208-.206.117-.534-.183-.588a34.989 34.989 0 0 0-1.125-.174l-2.209-.32c-.586-.089-1.17-.176-1.752-.262a1.934 1.934 0 0 1-1.04-.473c-.176-.16-.376-.465-.6-.917a493.857 493.857 0 0 1-1.504-3.06 81.718 81.718 0 0 1-.563-1.17c-.06-.126-.125-.204-.196-.231-.22-.088-.387-.023-.498.195a6.84 6.84 0 0 0-.228.476Z" fill="#0063C7"/><path d="M31.044 4.367c.775.341 1.418.845 2.168 1.294.629.487 1.383.72 2.26.698a64.899 64.899 0 0 0 1.97-.09c1.247-.072 2.392.281 3.217 1.257.235.278.453.61.654.998.347.665.683 1.305 1.01 1.92a3.2 3.2 0 0 0 1.429 1.348c.364.198.897.473 1.6.826.93.466 1.735 1.15 2.14 2.147.214.691.292 1.412.234 2.162-.044.583-.071 1.168-.082 1.753a3.447 3.447 0 0 0 .504 1.879c.195.323.385.61.568.86l.503.81c.236.379.427.765.57 1.158.262.738.28 1.463.054 2.176-.241.746-.613 1.357-1.051 2.02-.486.67-.792 1.178-.918 1.524-.339.935-.227 1.98-.153 2.997a6.378 6.378 0 0 1-.136 1.951 3.319 3.319 0 0 1-.92 1.522c-.405.383-.803.67-1.193.863-.59.292-1.172.592-1.747.9a3.136 3.136 0 0 0-1.376 1.3l-.458.837a.08.08 0 0 0 0 .08l.657 1.231c.392.724.777 1.438 1.152 2.14.119.221.115.455-.012.703a.756.756 0 0 1-1.337-.022 308.91 308.91 0 0 1-1.324-2.443.03.03 0 0 0-.026-.015.03.03 0 0 0-.027.014 3.594 3.594 0 0 1-1.618 1.406l-.917.234c-.416.05-.807.064-1.174.04-.767-.05-1.393-.08-1.88-.092-1.096-.026-1.791.441-2.66 1.004-.03.02-.036.044-.02.074l.71 1.313 1.247 2.3.569 1.042.505.942 2.652 4.88c.022.041.046.042.072.004.743-1.1 1.496-2.206 2.259-3.321.251-.366.612-.576 1.083-.63l2.024-.055 2.062-.05c.031-.002.04-.016.025-.044l-.442-.837-1.12-2.079c-.193-.342-.31-.562-.352-.66a.756.756 0 0 1 .291-.93c.316-.197.767-.148.991.168.072.102.139.21.2.325.41.771 1.015 1.888 1.818 3.35.421.794.289 1.467-.398 2.017-.24.14-.52.21-.84.215l-4.051.105a.086.086 0 0 0-.072.04l-.258.361-.895 1.308-1.101 1.611c-.3.439-.612.743-1.115.787-.658.056-1.142-.219-1.45-.827a66.66 66.66 0 0 0-.817-1.503l-.77-1.417-.316-.59-1.206-2.225-.695-1.264-.365-.691-1.547-2.844a.04.04 0 0 0-.021-.018.04.04 0 0 0-.028 0l-.86.354a3.5 3.5 0 0 1-1.422.131 4.09 4.09 0 0 1-1.393-.484c-.034-.019-.06-.011-.08.024l-1.001 1.843-.425.776-1.194 2.2-.21.408-1.028 1.88-1.025 1.886-.3.556c-.198.366-.397.73-.596 1.093a1.563 1.563 0 0 1-.549.554c-.521.227-.985.213-1.391-.043-.208-.13-.433-.379-.676-.744a188.378 188.378 0 0 0-2.123-3.12.095.095 0 0 0-.077-.042l-.742-.021-2.969-.074c-.496-.01-.88-.004-1.256-.28-.68-.497-.72-1.377-.263-2.073l.435-.803.673-1.25 1.438-2.658.839-1.544 1.964-3.628a.055.055 0 0 0 0-.055c-.32-.65-.743-1.47-1.369-1.876-.5-.325-1.067-.628-1.702-.911l-.71-.38a5.64 5.64 0 0 1-1.25-.997 3.886 3.886 0 0 1-.562-.932 5.836 5.836 0 0 1-.241-2.358l.062-1.984c-.055-.705-.308-1.221-.705-1.81a30.762 30.762 0 0 1-1.049-1.665 5.925 5.925 0 0 1-.423-.966 3.32 3.32 0 0 1 .019-2.176c.151-.413.304-.75.458-1.012.248-.423.605-.987 1.071-1.692.226-.34.393-.668.504-.986.073-.21.112-.45.118-.717l-.079-2.508a5.14 5.14 0 0 1 .284-1.85c.159-.368.363-.691.612-.97.334-.34.731-.652 1.192-.936l.775-.402c.553-.26 1.01-.498 1.374-.714.497-.295.832-.641 1.132-1.147.422-.71.766-1.463 1.156-2.203l.646-.893c1.337-1.396 2.938-1.174 4.682-1.066.66.04 1.176.005 1.548-.108.276-.083.605-.242.987-.475.239-.146.693-.443 1.362-.891a7.049 7.049 0 0 1 1.52-.738c.845-.24 1.682-.164 2.51.23Zm-4.331 2.52a6.074 6.074 0 0 1-1.925.903 9.941 9.941 0 0 1-2.268.052 9.155 9.155 0 0 0-1.9.007 1.861 1.861 0 0 0-.797.348 2.02 2.02 0 0 0-.413.423 8.794 8.794 0 0 0-.934 1.696l-.331.607a5.207 5.207 0 0 1-1.216 1.59l-.683.475-2.214 1.164-.569.41a1.678 1.678 0 0 0-.61 1.062c-.07.457-.085.944-.046 1.462l.066 1.978c-.032.758-.262 1.499-.692 2.221l-.312.511-.963 1.5c-.45.854-.549 1.598-.025 2.464l1.053 1.655a6.6 6.6 0 0 1 .718 1.455c.148.415.223.883.225 1.303.004.476-.02 1.096-.071 1.86-.02.39-.016.78.01 1.173.03.488.197.893.498 1.214l.794.603 2.12 1.095.572.375a5.211 5.211 0 0 1 1.34 1.699l.33.614c.303.662.653 1.415 1.155 1.94.524.55 1.288.607 2.015.574l1.275-.06a8.499 8.499 0 0 1 1.794.057 5.778 5.778 0 0 1 1.976.896c.783.529 1.3.86 1.552.994.345.184.649.304.911.36.582.122 1.194-.115 1.707-.415l.24-.14c.77-.494 1.485-1.011 2.296-1.407a4.942 4.942 0 0 1 2.241-.36l1.893.086c.27 0 .551-.023.846-.068.28-.043.527-.139.741-.287.24-.182.44-.394.599-.636.302-.472.567-.966.795-1.48.556-1.122 1.107-2.055 2.213-2.694a25.23 25.23 0 0 1 1.211-.658 6.614 6.614 0 0 0 1.647-.981c.321-.268.516-.634.584-1.098.055-.379.068-.82.04-1.325l-.074-1.994.124-.933c.13-.457.311-.891.543-1.303.31-.492.623-.98.943-1.464.273-.413.522-.844.668-1.316.258-.834-.184-1.668-.646-2.35a35.839 35.839 0 0 1-1.026-1.609 5.98 5.98 0 0 1-.481-1.19l-.123-.92.068-1.93a8.561 8.561 0 0 0-.021-1.295c-.048-.532-.289-.971-.722-1.319a8.3 8.3 0 0 0-1.507-.87c-.752-.35-1.345-.69-1.776-1.016-.74-.561-1.211-1.454-1.666-2.33a8.952 8.952 0 0 0-.786-1.454 1.927 1.927 0 0 0-1.32-.95 3.165 3.165 0 0 0-.824-.073c-.728.041-1.47.072-2.226.094A4.722 4.722 0 0 1 33.4 7.52a9.31 9.31 0 0 1-1.093-.612c-.843-.565-1.604-1.174-2.51-1.357-.994-.201-2.141.713-3.084 1.338Zm-12.13 40.541-.534.992-.967 1.788a.04.04 0 0 0-.005.02.04.04 0 0 0 .02.033.041.041 0 0 0 .02.006l3.163.075c.511.003.834.013.97.029.346.04.647.188.903.447l.666.954 1.734 2.538c.018.026.035.026.052-.002l.198-.341 1.203-2.21.694-1.284.516-.945 1.11-2.053.671-1.245 1.292-2.374a.08.08 0 0 0-.025-.105c-.824-.576-1.613-1.039-2.668-1-1.85.066-3.884.505-5.25-1.161l-.327-.437a.018.018 0 0 0-.016-.007.02.02 0 0 0-.01.003.02.02 0 0 0-.006.007l-3.404 6.272Z" stroke="#0063C7"/><path d="m30.278 8.833.844.053c.71.076 1.422.198 2.135.367.688.175 1.382.4 2.084.674l1.205.55.926.507c.643.382 1.315.851 2.015 1.408l.453.4c.617.56 1.189 1.156 1.716 1.79l.196.252a15.887 15.887 0 0 1 2.346 4.156c.29.777.52 1.568.689 2.374.147.71.241 1.4.284 2.073.053.767.053 1.515.002 2.241a15.108 15.108 0 0 1-.267 1.983 16.965 16.965 0 0 1-.658 2.341l-.568 1.342-.328.641a15.135 15.135 0 0 1-1.463 2.25l-.233.3a16.672 16.672 0 0 1-1.6 1.685l-.595.515c-.636.524-1.313.998-2.031 1.422l-.837.461-1.256.573c-.712.287-1.427.515-2.147.687-.692.164-1.396.286-2.111.365l-1.995.066a15.403 15.403 0 0 1-2.271-.221l-2.014-.489a19.073 19.073 0 0 1-2.127-.844l-.299-.156-1.682-.996a15.7 15.7 0 0 1-1.735-1.367c-3.057-2.84-4.77-6.361-5.138-10.562l.007-2.24c.048-.668.146-1.362.293-2.083a.91.91 0 0 0 .06-.355l.601-1.954c.233-.62.523-1.265.872-1.936.083-.146.19-.33.32-.55.1-.17.233-.295.4-.377.608-.125.961.144 1.06.806l-1.024 2.046-.207.542a13.305 13.305 0 0 0-.52 1.739 14.95 14.95 0 0 0-.329 2.041 15.91 15.91 0 0 0-.004 2.336c.059.685.165 1.374.319 2.069a14.237 14.237 0 0 0 3.707 6.762l1.003.927c.478.417.98.787 1.506 1.109l.56.344c.721.427 1.5.787 2.339 1.082.614.228 1.29.411 2.027.55.663.141 1.4.226 2.214.254.676.035 1.372.008 2.088-.08a14.037 14.037 0 0 0 4.261-1.186 11.936 11.936 0 0 0 1.918-1.075l.302-.193a14.234 14.234 0 0 0 3.965-4.183l.349-.605.694-1.428c.304-.705.545-1.454.72-2.245.173-.704.285-1.416.339-2.136.052-.814.05-1.57-.007-2.27a13.523 13.523 0 0 0-.342-2.107 12.248 12.248 0 0 0-.724-2.224 8.743 8.743 0 0 0-.788-1.563l-.23-.426c-1.553-2.472-3.656-4.313-6.31-5.522a15.628 15.628 0 0 0-1.9-.687 13.32 13.32 0 0 0-2.293-.442 12.62 12.62 0 0 0-2.173-.075c-.72.03-1.43.113-2.13.252a12.22 12.22 0 0 0-1.943.525c-.851.29-1.656.662-2.415 1.114l-.44.27c-.534.324-1.053.701-1.559 1.134l-1.043.97c-.581.555-1.531.056-1.293-.725.079-.259.33-.478.534-.669l.284-.274c.58-.52 1.188-1.001 1.824-1.445l1.622-.98.334-.151c.728-.342 1.44-.623 2.135-.844a16.812 16.812 0 0 1 2.143-.508 15.93 15.93 0 0 1 3.334-.175Z" stroke="#0063C7"/><path d="M32.154 17.042c.395.805.792 1.61 1.19 2.414.137.275.185.436.468.476.463.063.942.13 1.437.202l2.302.333c.43.058.88.124 1.352.198.175.027.38.096.615.206.214.128.41.298.586.508.421.618.486 1.267.195 1.948-.22.352-.5.673-.839.962l-2.022 1.98-1.351 1.32.403 2.495.34 2c.157.844.325 1.53-.192 2.257-.314.421-.744.672-1.289.753a1.874 1.874 0 0 1-1.075-.202 373.544 373.544 0 0 1-4.534-2.397c-.115-.062-.22-.08-.313-.055-.1.026-.24.095-.422.207l-4.274 2.252c-.674.313-1.315.271-1.922-.125l-.494-.494c-.451-.753-.286-1.364-.147-2.155l.37-2.155.217-1.361c.07-.284.256-.933.058-1.126l-3.698-3.607c-.512-.5-.69-1.11-.533-1.83l.196-.475c.228-.385.537-.65.927-.792.262-.095.556-.156.88-.182l4.263-.622c.275-.032.576-.038.694-.276.086-.174.174-.348.263-.522l2.2-4.446c.3-.328.646-.55 1.034-.666.673-.122 1.226.006 1.658.385.2.176.44.543.721 1.103.25.494.494.99.736 1.49Zm-3.21-.807-.364.73-.992 2.018c-.218.43-.439.878-.663 1.345-.086.18-.196.346-.329.496l-.415.342c-.43.248-.912.29-1.387.356l-2.19.314c-.466.063-1.207.175-2.225.336-.271.043-.448.313-.255.533.252.287.539.55.813.816l1.484 1.449.844.826c.593.572 1.088.97 1.163 1.783.007.127.001.253-.017.38a60.726 60.726 0 0 1-.327 1.987l-.34 1.971a96.7 96.7 0 0 0-.196 1.18c-.034.21.015.359.146.445.146.097.271.039.41-.029.27-.13.529-.268.78-.413l1.752-.928.265-.127c.607-.32 1.2-.633 1.783-.938.111-.059.251-.11.42-.153.804-.157 1.278.2 1.952.53l1.337.706.882.47c.527.276 1.052.557 1.576.842.146.079.258.109.335.09.228-.057.326-.186.293-.385-.065-.391-.128-.76-.19-1.106l-.364-2.1-.36-2.2c-.004-.95.553-1.414 1.174-2.012a293.2 293.2 0 0 0 3.103-3.03c.208-.206.117-.534-.183-.588a34.989 34.989 0 0 0-1.125-.174l-2.209-.32c-.586-.089-1.17-.176-1.752-.262a1.934 1.934 0 0 1-1.04-.473c-.176-.16-.376-.465-.6-.917a493.857 493.857 0 0 1-1.504-3.06 81.718 81.718 0 0 1-.563-1.17c-.06-.126-.125-.204-.196-.231-.22-.088-.387-.023-.498.195a6.84 6.84 0 0 0-.228.476Z" stroke="#0063C7"/><path d="M41.5 40.5 46 49" stroke="#0063C7" stroke-width="2.5" stroke-linecap="square"/></svg><svg fill="none" viewBox="0 0 24 24" id="phone__logo" xmlns="http://www.w3.org/2000/svg"><g clip-path="url(#ea)"><path d="M23.093 16.74a3.1 3.1 0 0 1 0 4.377l-.91 1.05c-8.19 7.84-28.12-12.085-20.4-20.3l1.15-1a3.081 3.081 0 0 1 4.327.04c.03.03 1.884 2.437 1.884 2.437a3.1 3.1 0 0 1-.007 4.282L7.979 9.082a12.78 12.78 0 0 0 6.93 6.945l1.466-1.165a3.1 3.1 0 0 1 4.28-.006s2.407 1.852 2.438 1.883Zm-1.376 1.453s-2.393-1.84-2.424-1.872a1.1 1.1 0 0 0-1.55 0c-.026.028-2.043 1.635-2.043 1.635a1 1 0 0 1-.98.152A15.007 15.007 0 0 1 5.9 9.3a1 1 0 0 1 .145-1s1.607-2.018 1.634-2.044a1.1 1.1 0 0 0 0-1.549 503.94 503.94 0 0 1-1.872-2.425 1.1 1.1 0 0 0-1.51.04l-1.15 1C-2.495 10.104 14.776 26.417 20.72 20.8l.91-1.05a1.12 1.12 0 0 0 .086-1.557Z" fill="#000"/></g><defs><clipPath id="ea"><path fill="#fff" d="M0 0h24v24H0z"/></clipPath></defs></svg></svg>