<svg width="29" height="28" viewBox="0 0 29 28" fill="none" xmlns="http://www.w3.org/2000/svg">
<path d="M14.5984 18.9808C14.187 18.9808 13.7754 18.99 13.3642 18.9783C12.9086 18.9654 12.4528 18.9416 11.9982 18.9076C11.4936 18.87 10.9892 18.8244 10.4863 18.7667C9.13253 18.6111 7.79182 18.3745 6.47451 18.0088C5.49603 17.7372 4.53832 17.4028 3.63657 16.9146C3.0864 16.6168 2.5665 16.2718 2.14505 15.7876C1.89711 15.5028 1.7061 15.1846 1.63069 14.8009C1.53831 14.3305 1.66184 13.9108 1.91093 13.524C2.20427 13.0684 2.60662 12.7334 3.04443 12.4423C3.81738 11.9282 4.66088 11.577 5.52841 11.2824C6.40711 10.984 7.30412 10.7606 8.21159 10.584C8.70035 10.489 9.19218 10.4091 9.68454 10.3371C10.0962 10.2768 10.5103 10.2325 10.9242 10.1911C11.3916 10.1445 11.8598 10.1047 12.3281 10.0703C12.6144 10.0493 12.9017 10.0415 13.1887 10.0324C13.6224 10.0188 14.0561 10.0009 14.4898 10C14.9292 9.9992 15.3686 10.016 15.808 10.027C15.9938 10.0317 16.1797 10.0381 16.3651 10.0493C16.8088 10.0763 17.2527 10.1018 17.6958 10.1367C18.077 10.1667 18.4589 10.1962 18.8377 10.2485C19.4868 10.3379 20.1355 10.4338 20.7812 10.5471C21.6527 10.7002 22.5123 10.9118 23.3585 11.1793C24.1335 11.4244 24.8906 11.717 25.6087 12.1113C26.1274 12.3962 26.6166 12.7249 27.0212 13.1742C27.2836 13.4656 27.4869 13.7934 27.5679 14.1915C27.6552 14.6203 27.5593 15.0137 27.3468 15.3804C27.0831 15.8356 26.7044 16.172 26.2883 16.4665C25.6403 16.9251 24.9306 17.2531 24.1979 17.5304C23.2329 17.8957 22.2425 18.1648 21.2347 18.3629C20.677 18.4726 20.1166 18.5689 19.5555 18.6583C19.2058 18.714 18.8527 18.7486 18.5006 18.7872C18.1539 18.8253 17.8068 18.8587 17.4596 18.8899C17.2663 18.9073 17.0723 18.9191 16.8784 18.9277C16.313 18.9525 15.7475 18.9766 15.1819 18.9966C14.9876 19.0035 14.7929 18.9977 14.5984 18.9977C14.5984 18.9921 14.5984 18.9865 14.5984 18.9808ZM14.5975 17.5481C15.0286 17.5481 15.4597 17.55 15.8908 17.5472C16.054 17.5462 16.2173 17.5369 16.3804 17.527C16.7144 17.5068 17.0485 17.4854 17.3824 17.4612C17.6096 17.4446 17.8367 17.4256 18.0633 17.4021C18.3541 17.372 18.6443 17.3355 18.9349 17.3032C19.1511 17.2792 19.3648 17.2446 19.5642 17.1484C19.9108 16.9811 20.0173 16.7087 19.8763 16.3399C19.7678 16.056 19.5845 15.8251 19.381 15.611C18.2844 14.4572 17.1318 13.3685 15.9109 12.3592C15.6475 12.1415 15.3819 11.9288 15.0663 11.7969C14.8672 11.7136 14.6631 11.665 14.4479 11.7041C14.0939 11.7685 13.7936 11.9528 13.5153 12.1774C12.7906 12.7623 12.086 13.3734 11.4138 14.0229C10.8494 14.5683 10.2987 15.1293 9.74965 15.6916C9.54377 15.9025 9.37352 16.146 9.29204 16.4431C9.21646 16.7186 9.29521 16.9362 9.52855 17.0858C9.59981 17.1316 9.6775 17.1772 9.75783 17.1946C10.0103 17.2491 10.2641 17.304 10.5201 17.3336C11.0145 17.3906 11.5103 17.4371 12.0064 17.4753C12.4413 17.5087 12.8772 17.5338 13.3129 17.5459C13.7408 17.5575 14.1693 17.5482 14.5975 17.5481ZM14.2875 10.6588C14.2658 10.6564 14.2441 10.6515 14.2224 10.6519C13.8421 10.6585 13.4617 10.6648 13.0814 10.6734C12.9576 10.6761 12.8337 10.6827 12.7102 10.6917C12.2641 10.7243 11.8179 10.756 11.3722 10.7934C11.0611 10.8195 10.7495 10.8439 10.4405 10.8874C9.88075 10.9661 9.32152 11.0506 8.76431 11.1471C7.88358 11.2996 7.01606 11.5133 6.16736 11.804C5.57768 12.0061 5.00156 12.2428 4.4667 12.5766C4.094 12.8092 3.7447 13.0725 3.50494 13.4611C3.24495 13.8823 3.24002 14.3099 3.49526 14.7378C3.60973 14.9296 3.75658 15.0914 3.92129 15.236C4.30648 15.5746 4.74227 15.8276 5.20568 16.0243C5.65986 16.217 6.12275 16.2062 6.58176 16.025C6.83595 15.9247 7.04659 15.7514 7.26347 15.588C8.93826 14.3267 10.6123 13.0643 12.2892 11.8059C12.9085 11.341 13.528 10.8735 14.2875 10.6588ZM14.9049 10.6605C15.0902 10.7282 15.2666 10.7802 15.4332 10.8561C15.8584 11.0497 16.2487 11.3093 16.6239 11.5909C18.4694 12.9762 20.3125 14.3652 22.1554 15.7542C22.6669 16.1397 23.2306 16.2707 23.8335 16.077C24.1286 15.9822 24.4073 15.8212 24.6808 15.6662C25.0314 15.4675 25.3517 15.2212 25.6028 14.8905C25.9865 14.3852 25.9953 13.8336 25.6054 13.3357C25.4573 13.1466 25.28 12.9753 25.0928 12.8279C24.5707 12.4168 23.9739 12.1521 23.3627 11.9225C22.5831 11.6296 21.7835 11.4115 20.9698 11.252C20.4703 11.1541 19.9684 11.0687 19.4661 10.9874C19.1441 10.9353 18.82 10.8969 18.4961 10.8598C18.1582 10.8212 17.8197 10.787 17.4808 10.7594C17.178 10.7346 16.8746 10.7164 16.571 10.7042C16.0393 10.683 15.5074 10.6685 14.9755 10.6518C14.9543 10.6513 14.9331 10.657 14.9049 10.6605Z" fill="black"/>
</svg>
