<svg width="29" height="28" viewBox="0 0 29 28" fill="none" xmlns="http://www.w3.org/2000/svg">
<g clip-path="url(#clip0_2141_393)">
<path d="M14.8421 18.8229C13.367 18.823 11.8919 18.8242 10.4169 18.8224C9.88396 18.8218 9.76885 18.7107 9.76531 18.2071C9.76318 17.9117 9.76694 17.6162 9.76368 17.3209C9.75936 16.9247 9.68016 16.8471 9.26094 16.8465C7.80946 16.8443 6.35798 16.8456 4.9065 16.8456C3.73824 16.8456 2.56997 16.8475 1.40171 16.8447C0.82501 16.8433 0.657548 16.5775 0.921704 16.0783C1.735 14.5415 2.55672 13.0088 3.36534 11.4697C3.55512 11.1084 3.84535 10.9722 4.25005 10.9737C5.87848 10.9796 7.50698 10.9762 9.13548 10.9759C9.73938 10.9758 9.76425 10.9506 9.7646 10.353C9.76474 10.0917 9.76233 9.83022 9.76651 9.56898C9.77345 9.13607 9.91209 9.00184 10.363 9.00115C11.7673 8.99911 13.1716 9.0004 14.5759 9.0004C16.1571 9.0004 17.7384 8.99952 19.3197 9.00081C19.8324 9.00122 19.9635 9.12925 19.9684 9.6275C19.9713 9.91152 19.9691 10.1956 19.9698 10.4797C19.971 10.9415 20.0072 10.9775 20.5016 10.9777C23.0386 10.9786 25.5758 10.9779 28.1129 10.9793C28.2419 10.9794 28.3778 10.9717 28.4987 11.0062C28.7984 11.0915 28.8847 11.3722 28.7108 11.7024C28.1564 12.7552 27.5958 13.8049 27.0372 14.8556C26.7902 15.3203 26.5218 15.7759 26.3009 16.2518C26.094 16.6972 25.7686 16.8616 25.2701 16.856C23.7008 16.8383 22.1313 16.8491 20.5618 16.8501C19.9961 16.8504 19.9672 16.8799 19.9668 17.4332C19.9666 17.7059 19.9718 17.9787 19.9677 18.2513C19.9611 18.6868 19.8259 18.8208 19.3736 18.8217C17.8631 18.8247 16.3526 18.8228 14.8421 18.8229ZM7.3296 15.3343C8.48646 15.3343 9.64332 15.3336 10.8002 15.3346C11.3116 15.335 11.3325 15.3571 11.3335 15.8631C11.3341 16.2155 11.3378 16.5679 11.3325 16.9202C11.3284 17.1914 11.4584 17.3129 11.7401 17.3126C13.8178 17.3102 15.8954 17.3103 17.9731 17.3131C18.2757 17.3135 18.3985 17.1672 18.3968 16.8911C18.3947 16.5501 18.3967 16.2091 18.3975 15.8681C18.3988 15.3495 18.414 15.3342 18.959 15.3341C20.8478 15.3337 22.7366 15.3327 24.6254 15.336C24.8502 15.3364 25.033 15.3116 25.1502 15.0838C25.5163 14.3715 25.9038 13.6695 26.2741 12.9592C26.4174 12.6845 26.3175 12.5278 25.9973 12.4965C25.892 12.4863 25.785 12.4922 25.6788 12.4922C23.4123 12.4921 21.1457 12.4927 18.8792 12.4916C18.4409 12.4914 18.3936 12.4456 18.3907 12.0215C18.3885 11.6806 18.3987 11.3395 18.3957 10.9986C18.3921 10.597 18.3112 10.5186 17.8976 10.5178C16.7998 10.5158 15.7019 10.5175 14.6041 10.5175C13.6951 10.5176 12.7861 10.5164 11.8771 10.5181C11.3903 10.519 11.337 10.5737 11.3359 11.0525C11.3352 11.348 11.3361 11.6436 11.3357 11.9391C11.3349 12.4771 11.3163 12.4957 10.7595 12.4954C8.88245 12.4945 7.00537 12.5046 5.12865 12.4825C4.72431 12.4777 4.50591 12.6082 4.34008 12.9539C4.04369 13.5717 3.70374 14.1701 3.38376 14.7775C3.17266 15.1782 3.27276 15.3319 3.75276 15.3329C4.94504 15.3356 6.13732 15.3339 7.3296 15.3343Z" fill="black"/>
</g>
<defs>
<clipPath id="clip0_2141_393">
<rect width="28" height="28" fill="white" transform="translate(0.799805)"/>
</clipPath>
</defs>
</svg>
