<svg width="29" height="28" viewBox="0 0 29 28" fill="none" xmlns="http://www.w3.org/2000/svg">
<path d="M14.7594 23.5859C12.9101 23.5545 11.0604 23.5331 9.21767 23.353C8.34906 23.2681 7.4928 23.1133 6.66659 22.8099C5.49404 22.3793 4.71354 21.5685 4.28453 20.3787C3.93271 19.4031 3.74866 18.3914 3.61135 17.3711C3.3012 15.0662 3.14351 12.7501 3.21837 10.4221C3.23972 9.75793 3.27143 9.0929 3.40003 8.43823C3.75418 6.63584 4.88 5.62065 6.59128 5.19317C7.72962 4.9088 8.8921 4.81852 10.0546 4.73641C12.4319 4.56847 14.8131 4.55435 17.1935 4.62918C18.8987 4.68276 20.6053 4.7617 22.2886 5.07986C23.0473 5.22326 23.7797 5.45468 24.4227 5.90878C25.5553 6.70852 25.9787 7.88731 26.079 9.21517C26.1952 10.7537 26.2517 12.2961 26.1381 13.8378C25.988 15.8744 25.8364 17.9119 25.2864 19.8908C24.8772 21.3629 24.0238 22.4154 22.5531 22.8876C21.7908 23.1324 21.0083 23.2758 20.2154 23.3563C18.4013 23.5401 16.58 23.5549 14.7594 23.5859ZM14.7063 22.7825C16.0535 22.7927 17.3994 22.7469 18.7434 22.6606C19.6886 22.5999 20.6324 22.5131 21.5545 22.2708C22.6792 21.9752 23.5081 21.3293 23.954 20.2127C24.1723 19.6662 24.3386 19.1051 24.4405 18.5264C24.9794 15.4662 25.1555 12.3863 24.8847 9.28658C24.7101 7.2875 23.7479 6.2123 21.8149 5.82637C20.2847 5.52082 18.7313 5.44229 17.1792 5.37546C15.2455 5.29218 13.3112 5.32314 11.3781 5.41886C10.0899 5.48263 8.80665 5.58998 7.53595 5.8251C5.86384 6.13452 4.9379 6.99017 4.5977 8.58162C4.45458 9.25117 4.4231 9.93703 4.39839 10.6209C4.3266 12.6086 4.39953 14.5911 4.63026 16.5664C4.76324 17.7045 4.93067 18.835 5.30697 19.9249C5.73314 21.1593 6.55291 21.9423 7.80095 22.2659C8.32543 22.4019 8.85749 22.4946 9.39438 22.5511C11.1602 22.7367 12.9327 22.7768 14.7063 22.7825Z" fill="black"/>
<path d="M18.8359 22.1405C18.1806 22.1551 18.1809 22.1551 18.069 21.6859C17.8572 20.7972 17.6176 19.9177 17.3173 19.0541C17.0311 18.2312 16.4771 17.8194 15.6277 17.7475C14.9242 17.6879 14.2282 17.7067 13.5285 17.7872C12.8478 17.8655 12.3988 18.2236 12.14 18.8622C11.8215 19.6481 11.6192 20.4692 11.4022 21.2862C11.3702 21.4068 11.3411 21.5283 11.3088 21.6488C11.1723 22.159 11.1716 22.1662 10.6374 22.1383C10.1359 22.1121 9.63582 22.0569 9.13423 22.0375C8.91796 22.0292 8.86513 21.9279 8.85146 21.7372C8.77638 20.6898 8.68979 19.6433 8.61561 18.5958C8.46452 16.4622 8.31457 14.3285 8.17242 12.1941C8.0642 10.5693 7.96879 8.94353 7.8674 7.31822C7.85003 7.03935 7.83523 6.76019 7.81195 6.48179C7.80073 6.34759 7.84571 6.29394 7.98171 6.2859C8.38841 6.26189 8.79493 6.2315 9.20049 6.19262C9.44181 6.16947 9.42007 6.36281 9.45001 6.49683C9.76067 7.88557 10.0478 9.27992 10.3762 10.6643C10.6798 11.9447 10.9423 13.2365 11.3804 14.4821C11.8062 15.6925 12.6371 16.317 13.8958 16.3693C14.5496 16.3964 15.2005 16.4098 15.8533 16.3202C16.8817 16.1791 17.5307 15.5846 17.9021 14.6311C18.3606 13.454 18.6111 12.2163 18.9045 10.993C19.2587 9.51638 19.5714 8.02932 19.8864 6.54336C19.9451 6.2668 20.0353 6.14956 20.3339 6.20182C20.6498 6.25708 20.9753 6.26478 21.2971 6.27334C21.4961 6.27867 21.5517 6.35442 21.5382 6.55314C21.464 7.63946 21.4035 8.7267 21.3345 9.81336C21.2311 11.4386 21.1309 13.064 21.0178 14.6884C20.8807 16.6586 20.7317 18.6278 20.5876 20.5975C20.5588 20.9914 20.5209 21.3849 20.5033 21.7793C20.4956 21.9501 20.4332 22.0162 20.2675 22.0274C19.7286 22.0642 19.1904 22.112 18.8359 22.1405Z" fill="#18232E"/>
</svg>
