<svg width="29" height="28" viewBox="0 0 29 28" fill="none" xmlns="http://www.w3.org/2000/svg">
<g clip-path="url(#clip0_2141_510)">
<path d="M27.8377 18.2082C27.5829 18.2421 27.329 18.2952 27.0732 18.3066C26.1705 18.3472 25.5643 18.6971 25.1315 19.5555C23.3934 23.0032 20.529 25.0461 16.6963 25.7989C11.9204 26.7371 6.68451 24.3214 4.3626 20.1116C4.26667 19.9376 4.14579 19.7705 4.086 19.5848C3.77726 18.6259 3.04258 18.3242 2.1049 18.2993C1.87983 18.2934 1.65639 18.2267 1.43213 18.1881C1.43974 18.1151 1.44726 18.0421 1.45487 17.9691C2.4749 17.9691 3.49485 17.9691 4.58334 17.9691C5.40284 20.172 6.83859 22.001 8.94327 23.2988C14.497 26.7232 21.7966 24.4964 24.3751 18.5693C24.6089 18.0317 24.8659 17.8079 25.4734 17.8545C26.2547 17.9145 27.0445 17.8691 27.8307 17.8691C27.833 17.9822 27.8353 18.0953 27.8377 18.2082Z" fill="black"/>
<path d="M27.83 11.0897C26.8581 11.0897 25.8851 11.1129 24.9156 11.0662C24.7596 11.0587 24.5677 10.7613 24.4794 10.561C22.9776 7.15591 20.3833 5.06088 16.6919 4.2641C11.8835 3.22625 6.68886 5.90435 4.83927 10.4153C4.62344 10.9417 4.37881 11.1458 3.80132 11.0898C3.20216 11.0317 2.59212 11.0891 1.98723 11.0766C1.80027 11.0727 1.61469 11.0053 1.42847 10.9669C1.43321 10.9022 1.43795 10.8374 1.44262 10.7726C1.7754 10.7133 2.10835 10.604 2.44106 10.6045C3.30545 10.6061 3.70768 10.1126 4.07948 9.41644C6.33293 5.19637 9.93192 2.96176 14.7702 3.00075C19.2581 3.03693 22.7191 5.11238 24.8902 8.97489C25.5194 10.0943 26.1839 10.7262 27.4697 10.7006C27.5955 10.6981 27.723 10.7791 27.8497 10.8214C27.8431 10.9109 27.8366 11.0003 27.83 11.0897Z" fill="#18232E"/>
<path d="M17.6014 13.5299C16.8466 13.5299 16.0902 13.5023 15.338 13.5445C15.0665 13.5597 14.8049 13.7424 14.5388 13.8486C14.7938 13.9422 15.044 14.0966 15.305 14.1166C15.8575 14.159 16.4156 14.1243 16.9712 14.134C17.5905 14.1447 17.9186 14.5186 17.9271 15.0709C17.9362 15.6574 17.6115 16.0568 16.9511 16.0613C15.9692 16.068 14.9872 16.063 13.9824 16.063C13.8312 15.631 13.9209 15.4398 14.3881 15.4504C15.1203 15.4672 15.8549 15.481 16.5846 15.4364C16.8039 15.423 17.0105 15.2112 17.2229 15.0902C17.0016 14.975 16.7873 14.7798 16.5576 14.7605C15.9808 14.7121 15.3966 14.7563 14.8162 14.7391C14.1768 14.7202 13.7479 14.3304 13.8055 13.7934C13.8664 13.2246 14.1965 12.907 14.8147 12.9139C15.6229 12.9228 16.4324 12.8916 17.2389 12.9292C17.4241 12.9378 17.5991 13.1558 17.7789 13.2774C17.7197 13.3615 17.6605 13.4457 17.6014 13.5299Z" fill="#18232E"/>
<path d="M8.40015 15.8397C8.56944 15.7115 8.73293 15.4824 8.90894 15.4727C9.66374 15.4311 10.4239 15.4813 11.1783 15.4359C11.3826 15.4236 11.5734 15.1938 11.7705 15.0639C11.5738 14.9584 11.3825 14.776 11.1792 14.7619C10.5764 14.7202 9.96872 14.747 9.36309 14.7428C8.75289 14.7387 8.4219 14.4401 8.41601 13.8357C8.41004 13.2248 8.74994 12.9257 9.35524 12.9197C10.2862 12.9105 11.2173 12.9173 12.1643 12.9173C12.3441 13.3417 12.2721 13.543 11.7898 13.5328C11.0835 13.5179 10.3753 13.5066 9.67077 13.5446C9.47841 13.555 9.29636 13.7476 9.10956 13.8565C9.28891 13.9475 9.46435 14.1067 9.64845 14.117C10.2523 14.1506 10.8595 14.1174 11.4648 14.1339C12.1348 14.1523 12.5644 14.5531 12.5122 15.1358C12.458 15.7409 12.103 16.068 11.4629 16.0663C10.5049 16.0638 9.54695 16.0657 8.58907 16.0657C8.52593 15.9904 8.46304 15.915 8.40015 15.8397Z" fill="#18232E"/>
<path d="M0.600098 12.9871C1.19992 12.7868 1.62569 12.9557 2.02244 13.3966C2.56681 14.0017 3.1712 14.5546 3.88626 15.2655C3.88626 14.3809 3.88626 13.6802 3.88626 12.9482C4.16065 12.9482 4.35211 12.9482 4.58782 12.9482C4.58782 13.9709 4.58782 14.9751 4.58782 15.9923C4.00935 16.194 3.5906 16.0098 3.19917 15.5748C2.65137 14.966 2.05155 14.4023 1.33691 13.6809C1.33691 14.5645 1.33691 15.2615 1.33691 16.017C1.05131 16.0304 0.845865 16.0401 0.600098 16.0516C0.600098 14.99 0.600098 13.9859 0.600098 12.9871Z" fill="#18232E"/>
<path d="M28.6005 16.2998C28.0523 16.0072 27.6148 15.858 27.2891 15.582C26.6421 15.0334 26.0567 14.4148 25.3447 13.7277C25.3447 14.5425 25.3447 15.2587 25.3447 15.9748C25.2672 16.0298 25.1897 16.0848 25.1121 16.1399C24.9441 15.9767 24.6404 15.8208 24.6309 15.6491C24.5818 14.7637 24.6081 13.8742 24.6081 12.998C25.2147 12.8002 25.6186 12.9398 26.005 13.365C26.5709 13.9876 27.205 14.5506 27.9506 15.2758C27.9506 14.559 27.9693 14.003 27.9449 13.4487C27.9242 12.9792 28.0844 12.7932 28.6004 12.9785C28.6005 13.9711 28.6005 14.9766 28.6005 16.2998Z" fill="#18232E"/>
<path d="M23.4949 16.22C21.9891 15.2505 20.4878 15.123 18.9935 16.224C18.9561 16.1362 18.9187 16.0484 18.8813 15.9605C19.5077 14.977 20.1063 13.9738 20.7943 13.0337C20.8851 12.9096 21.6011 12.9878 21.7402 13.1764C22.3981 14.0676 22.9561 15.0298 23.5497 15.9666C23.5315 16.0511 23.5132 16.1356 23.4949 16.22ZM20.4359 14.83C21.0108 14.83 21.4627 14.83 21.9886 14.83C21.7159 14.3967 21.4965 14.0483 21.2141 13.5996C20.9345 14.0416 20.7052 14.4042 20.4359 14.83Z" fill="#18232E"/>
<path d="M6.9023 13.0107C6.9023 13.9946 6.9023 14.9785 6.9023 15.961C6.27934 16.0697 6.26478 16.0699 6.2584 15.5922C6.2485 14.8496 6.2346 14.1052 6.28179 13.3652C6.29349 13.1815 6.53328 13.0119 6.66823 12.8359C6.74617 12.8942 6.8242 12.9524 6.9023 13.0107Z" fill="#18232E"/>
</g>
<defs>
<clipPath id="clip0_2141_510">
<rect width="28" height="28" fill="white" transform="translate(0.600098)"/>
</clipPath>
</defs>
</svg>
