<svg width="29" height="28" viewBox="0 0 29 28" fill="none" xmlns="http://www.w3.org/2000/svg">
<path d="M14.4632 2C15.0004 2.39431 15.5357 2.7914 16.0754 3.18243C17.9501 4.5409 19.8263 5.89729 21.7018 7.25448C23.2486 8.37371 24.7953 9.49294 26.3419 10.6124C26.3592 10.625 26.3739 10.6411 26.3999 10.6646C26.1653 11.0043 25.8844 11.2935 25.5618 11.5428C24.7681 12.1564 23.8544 12.4748 22.8735 12.6368C22.0021 12.7807 21.1281 12.7846 20.2537 12.6959C19.6623 12.636 19.0727 12.5473 18.5131 12.3334C18.3598 12.2748 18.2077 12.1967 18.0767 12.0987C16.1155 10.6305 14.1572 9.15842 12.2018 7.68254C12.1111 7.61415 12.0549 7.61569 11.9707 7.67592C11.7774 7.81423 11.5792 7.94559 11.3678 8.09012C16.2235 11.7595 21.0671 15.4196 25.8915 19.0653C21.766 20.9219 17.9215 23.2439 14.3064 26C10.361 23.039 6.38633 20.056 2.3999 17.0642C2.84597 16.6516 3.32319 16.3012 3.84075 16.004C4.61261 15.5607 5.44054 15.2782 6.32499 15.1808C7.5723 15.0434 8.76074 15.2813 9.91128 15.7636C10.8048 16.1382 11.5718 16.7039 12.3331 17.2844C13.3778 18.0809 14.4289 18.869 15.4767 19.6615C15.9295 20.004 16.3809 20.3484 16.8449 20.701C17.0305 20.5285 17.2169 20.3553 17.4225 20.1643C12.4285 16.3841 7.43742 12.6061 2.42522 8.81206C2.66919 8.71645 2.89335 8.63328 3.11388 8.54145C4.49613 7.96572 5.83225 7.29462 7.1546 6.59545C8.68872 5.78432 10.1978 4.92979 11.6663 4.00519C12.5807 3.42943 13.4792 2.83096 14.3051 2.13143C14.3509 2.09263 14.3883 2.04401 14.4296 2C14.4408 2 14.452 2 14.4632 2Z" fill="black"/>
</svg>
