<svg width="29" height="28" viewBox="0 0 29 28" fill="none" xmlns="http://www.w3.org/2000/svg">
<g clip-path="url(#clip0_2141_169)">
<path d="M13.9142 28C13.8794 27.9907 13.845 27.9756 13.8098 27.973C13.6235 27.9592 13.4367 27.9521 13.2505 27.9364C12.9422 27.9102 12.633 27.889 12.3265 27.8483C11.7626 27.7732 11.2041 27.6657 10.654 27.5204C8.93464 27.0665 7.35059 26.3241 5.92281 25.2629C3.31925 23.3279 1.57069 20.7998 0.69459 17.6742C0.497655 16.9715 0.368637 16.2556 0.286214 15.5302C0.200935 14.7807 0.180164 14.0292 0.217859 13.2779C0.308414 11.4703 0.716569 9.7346 1.4976 8.09964C3.18595 4.56566 5.87709 2.12421 9.55874 0.780673C10.3683 0.485185 11.2038 0.284606 12.0567 0.156634C12.4935 0.0910559 12.9311 0.0341554 13.3729 0.022292C13.8376 0.00976948 14.3029 -0.00868474 14.7671 0.00460669C15.1575 0.0157012 15.5474 0.0632648 15.9366 0.104347C16.5665 0.170805 17.1859 0.296469 17.797 0.461239C20.3929 1.16118 22.6103 2.49461 24.4426 4.45932C26.0464 6.17908 27.1437 8.18202 27.7404 10.4572C27.9208 11.1452 28.051 11.8431 28.1122 12.5523C28.1396 12.8696 28.1486 13.1886 28.1687 13.5066C28.1738 13.5875 28.1894 13.6677 28.2002 13.7482C28.2002 13.9123 28.2002 14.0764 28.2002 14.2406C28.1894 14.312 28.1735 14.383 28.1688 14.4547C28.1487 14.7727 28.1385 15.0915 28.1126 15.409C28.0642 15.9998 27.9642 16.5834 27.8261 17.1592C27.0809 20.2656 25.469 22.8325 22.9971 24.8543C21.4408 26.1272 19.6798 27.0071 17.7359 27.5205C17.1858 27.6658 16.6275 27.7735 16.0636 27.8482C15.7572 27.8888 15.4482 27.9106 15.1399 27.9364C14.9403 27.9532 14.7397 27.9611 14.5398 27.9753C14.5043 27.9778 14.4696 27.9915 14.4344 28.0002C14.2609 28 14.0876 28 13.9142 28ZM14.1884 27.0977C21.563 27.0753 27.298 21.1059 27.3142 14.0119C27.3304 6.89012 21.5825 0.879974 14.2077 0.870967C6.94507 0.862069 1.08901 6.7226 1.07593 13.9583C1.06296 21.1883 6.89254 27.0696 14.1884 27.0977Z" fill="black"/>
<path d="M5.90601 13.9664C5.92557 9.35183 9.65227 5.73096 14.1345 5.69955C18.7296 5.66747 22.5038 9.40434 22.4802 14.0391C22.4579 18.4256 18.9426 22.2219 14.2836 22.2634C9.58337 22.3054 5.91568 18.542 5.90601 13.9664ZM22.0466 14.0031C22.0531 13.9503 22.0605 13.9195 22.0603 13.8887C22.0554 13.3494 21.9961 12.8158 21.8788 12.2896C21.3149 9.75925 19.5427 7.6658 17.1392 6.69157C16.5165 6.43914 15.8726 6.26273 15.2036 6.18836C14.9233 6.15728 14.6416 6.13882 14.3602 6.11817C14.3042 6.11411 14.2468 6.12641 14.1796 6.13212C14.1796 6.47067 14.1796 6.79373 14.1796 7.1169C14.1796 7.44512 14.1796 7.77334 14.1796 8.10156C14.1796 8.42528 14.1796 8.74889 14.1796 9.0726C14.1796 9.39632 14.1796 9.71993 14.1796 10.0436C14.1796 10.3719 14.1796 10.7001 14.1796 11.0283C14.1796 11.352 14.1796 11.6756 14.1796 11.9994C14.1796 12.3276 14.1807 12.6558 14.1792 12.984C14.1779 13.3058 14.1854 13.6277 14.1742 13.963C14.0948 13.963 14.0319 13.963 13.9689 13.963C11.4969 13.963 9.02487 13.963 6.55286 13.9631C6.50274 13.9631 6.45252 13.9635 6.40241 13.9659C6.35328 13.9684 6.32834 13.9964 6.32757 14.0452C6.32691 14.0908 6.32559 14.1364 6.32724 14.182C6.34713 14.7158 6.40724 15.2446 6.53231 15.7646C6.95903 17.5378 7.88623 18.996 9.30807 20.1358C10.262 20.9004 11.3404 21.4142 12.5393 21.6628C12.8769 21.7328 13.2206 21.776 13.5631 21.8199C13.7388 21.8424 13.9176 21.8422 14.0952 21.8463C14.1922 21.8486 14.2062 21.8314 14.2122 21.7371C14.2154 21.6872 14.2136 21.6369 14.2136 21.5868C14.2136 19.1295 14.2136 16.6723 14.2141 14.2151C14.2141 14.1485 14.22 14.0818 14.2237 14.0028C16.8365 14.0031 19.4346 14.0031 22.0466 14.0031Z" fill="#18232E"/>
<path d="M6.44474 9.06958C5.63997 8.31186 4.84839 7.56633 4.05164 6.81619C4.10208 6.75138 4.14296 6.69733 4.18549 6.6445C4.65739 6.05814 5.14928 5.48924 5.69151 4.96626C5.82515 4.8373 5.97516 4.72295 6.12791 4.61673C6.34133 4.46822 6.5864 4.44295 6.83587 4.48953C7.15962 4.54994 7.42843 4.8629 7.44865 5.19222C7.45469 5.29119 7.44964 5.39093 7.44964 5.50792C7.49052 5.4977 7.53624 5.48672 7.58162 5.47507C8.10077 5.34172 8.56762 5.63424 8.66641 6.15612C8.70191 6.34341 8.65377 6.51784 8.57509 6.68558C8.47706 6.89451 8.33178 7.0696 8.17375 7.23514C7.80867 7.61774 7.44326 7.9999 7.07973 8.38392C6.91356 8.55934 6.75136 8.73839 6.58739 8.9158C6.5442 8.96226 6.50101 9.00873 6.44474 9.06958ZM6.48255 8.03878C6.52761 7.99638 6.56508 7.96463 6.59849 7.92915C6.96719 7.53843 7.33579 7.1476 7.70295 6.75555C7.76196 6.69261 7.81944 6.62681 7.86768 6.55574C7.90538 6.50027 7.93824 6.43722 7.95505 6.37274C8.00758 6.17117 7.86626 5.99761 7.65866 5.99574C7.56228 5.99487 7.4803 6.03013 7.40766 6.08725C7.35051 6.13206 7.29666 6.18182 7.24622 6.23411C6.84839 6.64735 6.45156 7.06159 6.05516 7.47615C6.03131 7.50108 6.01329 7.53173 5.98439 7.57061C6.15143 7.72759 6.31276 7.87917 6.48255 8.03878ZM5.51403 7.1265C5.55568 7.08938 5.58755 7.06477 5.61491 7.03599C5.98164 6.64966 6.35001 6.26476 6.7119 5.87403C6.78773 5.79209 6.85224 5.69378 6.89906 5.59239C6.96104 5.45805 6.91653 5.30931 6.81202 5.2199C6.70564 5.12884 6.56585 5.11807 6.43211 5.20078C6.36309 5.24352 6.29891 5.29635 6.23979 5.35237C5.82932 5.74112 5.45249 6.16128 5.09071 6.59507C5.07148 6.61814 5.0595 6.64713 5.03961 6.68119C5.19874 6.83058 5.35336 6.97569 5.51403 7.1265Z" fill="#18232E"/>
<path d="M12.9321 2.68245C12.9321 2.73968 12.9336 2.79691 12.9319 2.85403C12.9096 3.55529 12.8869 4.25655 12.8639 4.95781C12.8602 5.06766 12.8469 5.0815 12.7539 5.09358C12.551 5.11983 12.3483 5.14741 12.1455 5.17311C12.1243 5.17575 12.102 5.16948 12.0658 5.16586C12.1073 4.04817 12.1485 2.93565 12.19 1.8196C12.2838 1.80445 12.3589 1.78731 12.4348 1.78094C12.6888 1.75974 12.9431 1.74073 13.1974 1.72415C13.3125 1.71668 13.3147 1.71931 13.3586 1.82729C13.5885 2.39234 13.8177 2.95772 14.0464 3.52332C14.0682 3.57737 14.0856 3.63328 14.1108 3.70424C14.1286 3.67953 14.1402 3.66854 14.1456 3.65514C14.3912 3.04253 14.6368 2.42991 14.8805 1.81653C14.9078 1.74765 14.9463 1.71514 15.0236 1.72228C15.3497 1.75282 15.6761 1.78006 16.0024 1.80906C16.0104 1.80983 16.0179 1.81741 16.0453 1.83301C16.0928 2.93323 16.1281 4.04586 16.1711 5.16597C16.1328 5.16839 16.1065 5.17421 16.0813 5.17091C15.8874 5.1462 15.694 5.11797 15.5001 5.09457C15.3902 5.08139 15.3784 5.07304 15.3745 4.96078C15.3495 4.25051 15.3247 3.54024 15.3002 2.82997C15.2985 2.78109 15.2999 2.7321 15.2999 2.66641C15.2772 2.68552 15.2603 2.69288 15.2548 2.70541C15.0045 3.26672 14.7539 3.82793 14.5076 4.39089C14.4725 4.47097 14.4249 4.49744 14.3409 4.49426C14.1906 4.48855 14.0399 4.48899 13.8896 4.49415C13.8106 4.49689 13.7657 4.47207 13.7328 4.39704C13.4861 3.83419 13.2355 3.27298 12.9856 2.71145C12.9805 2.6998 12.9699 2.69047 12.9619 2.68014C12.9518 2.68091 12.9419 2.68168 12.9321 2.68245Z" fill="#18232E"/>
<path d="M21.1445 3.84009C21.3646 4.01661 21.5693 4.18083 21.783 4.3523C21.3617 4.98381 20.9485 5.60324 20.5299 6.23057C20.5522 6.22936 20.5665 6.23255 20.5767 6.22738C21.089 5.96935 21.6009 5.71034 22.1132 5.45242C22.222 5.3976 22.2235 5.39892 22.3117 5.4857C22.4385 5.61037 22.5648 5.7356 22.6906 5.86126C22.7654 5.93596 22.7665 5.9375 22.7161 6.03614C22.4555 6.54726 22.1939 7.05793 21.9331 7.56894C21.9293 7.57641 21.9306 7.58641 21.9268 7.61738C22.559 7.20216 23.1792 6.79474 23.797 6.38908C23.8938 6.45257 24.2273 6.85406 24.319 7.01773C23.3923 7.60145 22.465 8.18562 21.5318 8.77363C21.3259 8.53131 21.1292 8.29975 20.9281 8.06292C21.2331 7.47876 21.5363 6.89822 21.8542 6.28934C21.2443 6.60339 20.658 6.90525 20.0677 7.20908C19.8321 7.01125 19.603 6.8188 19.3657 6.61954C19.9569 5.69573 20.5435 4.77917 21.1445 3.84009Z" fill="#18232E"/>
</g>
<defs>
<clipPath id="clip0_2141_169">
<rect width="28" height="28" fill="white" transform="translate(0.199951)"/>
</clipPath>
</defs>
</svg>
