<svg width="29" height="28" viewBox="0 0 29 28" fill="none" xmlns="http://www.w3.org/2000/svg">
<g clip-path="url(#clip0_2141_410)">
<path d="M8.73828 13.7919C12.8394 14.097 16.856 14.0934 20.8935 13.7938C20.808 14.8797 20.7208 15.8987 20.6517 16.9188C20.6317 17.2132 20.4997 17.36 20.207 17.4022C18.1031 17.7052 16.0055 18.1409 13.8648 17.9557C12.3562 17.8252 10.8565 17.5915 9.35655 17.379C9.22447 17.3603 9.03022 17.1656 9.01662 17.0373C8.90598 15.9879 8.83134 14.9349 8.73828 13.7919Z" fill="black"/>
<path d="M20.9717 13.3359C16.8385 13.7124 12.8013 13.6998 8.67676 13.3386C8.67676 12.2347 8.67676 11.1272 8.67676 10C12.7592 10 16.8763 10 20.9717 10C20.9717 11.1378 20.9717 12.2204 20.9717 13.3359Z" fill="#18232E"/>
<path d="M28.7861 12.7973C26.3163 12.9793 23.8859 13.1584 21.4648 13.3369C21.4648 12.2164 21.4648 11.151 21.4648 10.0232C21.6939 10.0232 21.8579 10.0198 22.0216 10.0237C23.6197 10.0612 25.2178 10.0954 26.8156 10.1415C27.159 10.1514 27.5035 10.1901 27.8431 10.243C28.3885 10.328 28.7263 10.6353 28.7757 11.1766C28.8237 11.703 28.7861 12.237 28.7861 12.7973Z" fill="#18232E"/>
<path d="M0.813646 12.795C0.813646 12.2649 0.777082 11.7625 0.82281 11.2674C0.881576 10.6307 1.25855 10.2757 1.92783 10.2308C3.16229 10.1482 4.39892 10.0895 5.63565 10.0486C6.44713 10.0217 7.26031 10.0435 8.11043 10.0435C8.15842 11.1411 8.20576 12.2216 8.25498 13.347C5.7717 13.1628 3.34492 12.9828 0.813646 12.795Z" fill="#18232E"/>
<path d="M21.0479 17.254C21.1438 16.1381 21.2221 15.1033 21.336 14.0725C21.3495 13.9501 21.551 13.7611 21.6782 13.7504C23.0499 13.6343 24.4244 13.5507 25.7978 13.4521C26.7622 13.3829 27.726 13.3041 28.713 13.2278C28.6492 14.5542 28.033 15.51 26.7874 15.9082C25.4436 16.3378 24.0498 16.6203 22.6735 16.9495C22.161 17.0721 21.6361 17.1455 21.0479 17.254Z" fill="#18232E"/>
<path d="M0.924805 13.235C2.97773 13.3883 5.01838 13.5407 7.05903 13.6934C7.10579 13.6969 7.15237 13.7042 7.19904 13.7089C7.55249 13.7445 8.00986 13.6637 8.22829 13.8503C8.41952 14.0138 8.35234 14.4769 8.38154 14.8091C8.45079 15.5981 8.50956 16.3879 8.57881 17.2559C7.7439 17.0948 6.95255 16.9591 6.1697 16.7866C5.22737 16.5789 4.2823 16.3729 3.35631 16.1067C1.92496 15.6952 0.986972 14.8373 0.924805 13.235Z" fill="#18232E"/>
</g>
<defs>
<clipPath id="clip0_2141_410">
<rect width="28" height="28" fill="white" transform="translate(0.799805)"/>
</clipPath>
</defs>
</svg>
