<svg width="29" height="28" viewBox="0 0 29 28" fill="none" xmlns="http://www.w3.org/2000/svg">
<g clip-path="url(#clip0_2141_463)">
<path d="M15.043 7C15.504 7.02472 16.3739 7.06392 17.2428 7.11956C18.6341 7.20864 20.0062 7.4247 21.3617 7.73954C22.3162 7.96126 23.2493 8.25177 24.1454 8.63946C24.923 8.97591 25.661 9.38242 26.3315 9.89991C26.807 10.2669 27.2381 10.6727 27.5831 11.157C28.0705 11.8413 28.3611 12.591 28.3964 13.4341C28.4247 14.1111 28.2832 14.7408 27.9444 15.3283C27.7026 15.7478 27.4024 16.128 27.066 16.481C26.4047 17.1747 25.6514 17.7577 24.8301 18.2655C23.8053 18.8992 22.7056 19.3674 21.5538 19.7336C20.2176 20.1584 18.847 20.4371 17.4576 20.6183C16.3743 20.7596 15.2846 20.8657 14.1944 20.9434C12.9538 21.0319 11.7092 21.0195 10.4713 20.8856C9.35361 20.7646 8.24594 20.5766 7.15924 20.2914C6.62027 20.1499 6.0815 20.0004 5.55691 19.8163C4.55271 19.4637 3.60873 18.9928 2.76521 18.3506C2.20768 17.9261 1.70321 17.4486 1.27788 16.8949C0.475006 15.8496 0.196364 14.6991 0.551923 13.4309C0.733928 12.7817 1.09703 12.2239 1.55833 11.7242C2.27418 10.9488 3.12545 10.3386 4.03965 9.80453C4.75655 9.38573 5.50364 9.02735 6.28 8.7226C8.09693 8.00938 9.98615 7.56396 11.9153 7.25609C12.816 7.11234 13.7207 7.0256 15.043 7ZM21.2176 9.2929C20.9932 9.19479 20.7975 9.09283 20.5906 9.02164C19.8851 8.77891 19.1443 8.70782 18.4072 8.62532C17.9699 8.57637 17.5314 8.52843 17.092 8.50835C16.376 8.47558 15.6583 8.43964 14.9425 8.45549C14.4256 8.46695 13.9111 8.56491 13.3946 8.61445C13.2136 8.63181 13.0594 8.69505 12.9245 8.80427C12.4646 9.17689 12.1206 9.63153 11.9004 10.174C11.5942 10.9287 11.6591 11.6405 12.1686 12.2944C12.4891 12.7059 12.921 12.9447 13.4582 12.9104C13.8505 12.8852 14.2433 12.8124 14.6268 12.7238C15.4361 12.5366 16.23 12.2935 16.9846 11.9511C17.6734 11.6384 18.3584 11.3151 19.027 10.9641C19.7822 10.5675 20.4399 10.0366 21.0615 9.46468C21.1099 9.42006 21.1504 9.3673 21.2176 9.2929ZM8.08496 19.115C8.16007 19.1409 8.1992 19.1563 8.23945 19.1679C8.86308 19.3489 9.50287 19.4546 10.1487 19.5103C10.8822 19.5735 11.6184 19.6114 12.354 19.6473C13.1509 19.6862 13.9491 19.6816 14.7408 19.5812C15.2397 19.518 15.7345 19.4182 16.2268 19.3154C16.336 19.2926 16.4564 19.2084 16.5214 19.1184C16.8876 18.6114 17.1718 18.0618 17.2956 17.4511C17.4277 16.799 17.4286 16.1531 17.0834 15.546C16.8323 15.1043 16.3185 14.8436 15.847 14.9306C15.6241 14.9718 15.4017 15.0169 15.1816 15.0698C14.1848 15.3093 13.2228 15.6405 12.2976 16.0763C11.7033 16.3561 11.1456 16.6929 10.6277 17.0837C9.83644 17.6809 9.06793 18.3063 8.29096 18.9212C8.22496 18.9733 8.16806 19.0362 8.08496 19.115ZM9.61223 9.13867C9.53028 9.1472 9.49095 9.14583 9.45488 9.15583C9.0886 9.2573 8.72137 9.35589 8.35731 9.46438C7.4994 9.72003 6.66705 10.0399 5.88742 10.472C5.36087 10.7638 4.85062 11.0842 4.34118 11.404C3.57362 11.8857 2.96211 12.5155 2.4997 13.2803C2.12593 13.8984 1.96349 14.5536 2.13151 15.2673C2.2855 15.9216 2.6144 16.4742 3.1169 16.9379C3.60214 17.3857 4.15852 17.7259 4.75157 18.0179C4.84529 18.064 4.89655 18.0542 4.9296 17.9551C4.96607 17.8458 5.01069 17.739 5.04857 17.63C5.48523 16.3746 6.00669 15.1518 6.62645 13.9724C7.09022 13.0898 7.59182 12.2248 8.10523 11.3682C8.44489 10.8015 8.83381 10.2624 9.2037 9.71291C9.327 9.52972 9.45971 9.35243 9.61223 9.13867ZM19.9496 18.4265C20.0381 18.4161 20.0806 18.4143 20.1216 18.4057C20.397 18.3481 20.6788 18.309 20.946 18.2262C21.5342 18.0442 22.123 17.8593 22.6962 17.6381C23.1262 17.4722 23.5496 17.2752 23.9438 17.0413C24.2779 16.8432 24.5749 16.5821 24.8724 16.3313C25.332 15.9439 25.7683 15.5312 26.0641 15.006C26.1845 14.7923 26.2577 14.5535 26.3787 14.3402C26.6382 13.8826 26.6732 13.3921 26.6379 12.8889C26.6198 12.6329 26.5642 12.3832 26.4152 12.1653C26.2545 11.9303 26.0952 11.6934 25.9171 11.4709C25.5318 10.9896 25.0844 10.5748 24.5138 10.2986C24.4075 10.2471 24.3512 10.265 24.308 10.3685C24.2078 10.6083 24.108 10.8484 24.0002 11.085C23.7087 11.7252 23.4326 12.373 23.1142 13.0006C22.6847 13.847 22.2382 14.6864 21.7674 15.512C21.3468 16.2496 20.8855 16.9656 20.4377 17.6886C20.2912 17.9251 20.1307 18.1535 19.9496 18.4265Z" fill="black"/>
</g>
<defs>
<clipPath id="clip0_2141_463">
<rect width="28" height="28" fill="white" transform="translate(0.399902)"/>
</clipPath>
</defs>
</svg>
