<svg width="29" height="28" viewBox="0 0 29 28" fill="none" xmlns="http://www.w3.org/2000/svg">
<g clip-path="url(#clip0_2141_241)">
<path d="M22.1068 10.6889C22.803 10.6889 23.4482 10.6889 24.1349 10.6889C24.1641 10.8749 24.1918 11.052 24.2008 11.1093C24.8478 10.9071 25.4644 10.59 26.1018 10.5421C27.2523 10.4556 28.1761 11.1879 28.5546 12.335C28.9135 13.4228 28.8798 14.516 28.4464 15.5762C27.7738 17.2217 26.0024 17.7305 24.5163 16.7271C24.4543 16.6852 24.387 16.6507 24.2329 16.5606C24.2329 17.4025 24.2329 18.1796 24.2329 19.0003C23.4826 19.0003 22.8094 19.0003 22.1067 19.0003C22.1068 16.2367 22.1068 13.4892 22.1068 10.6889ZM24.103 13.9737C24.118 13.9771 24.1332 13.9805 24.1483 13.9839C24.1626 14.2359 24.1581 14.4905 24.195 14.7391C24.2891 15.3734 24.7126 15.7563 25.335 15.7947C25.8784 15.8281 26.3865 15.5196 26.4836 14.9186C26.5893 14.2636 26.6 13.5746 26.522 12.9154C26.4584 12.3784 25.9883 12.1226 25.4518 12.0835C24.9172 12.0445 24.5253 12.3131 24.3481 12.7886C24.2088 13.1625 24.1806 13.577 24.103 13.9737Z" fill="black"/>
<path d="M0.815262 12.8707C1.5602 12.8707 2.24263 12.8707 3.01223 12.8707C3.01223 13.2406 3.00156 13.584 3.01437 13.9266C3.04331 14.7003 3.56551 15.182 4.34472 15.1676C5.15287 15.1527 5.64803 14.6889 5.65159 13.91C5.65965 12.1599 5.65443 10.4096 5.65455 8.65942C5.65455 8.45092 5.65455 8.24243 5.65455 8C6.4174 8 7.11714 8 7.81108 8C7.84026 8.04015 7.88189 8.07056 7.88189 8.10096C7.88248 10.2003 7.92612 12.301 7.86042 14.3983C7.81915 15.72 6.76431 16.7263 5.27064 16.9196C4.56152 17.0114 3.8071 16.9832 3.10391 16.8507C1.67975 16.5823 0.965886 15.7531 0.822615 14.3391C0.776005 13.8795 0.815262 13.4114 0.815262 12.8707Z" fill="#18232E"/>
<path d="M14.7827 14.1836C13.9693 14.1836 13.2836 14.1836 12.5978 14.1836C11.913 14.1836 11.2282 14.1836 10.5007 14.1836C10.4722 14.7763 10.5681 15.2596 11.0817 15.5265C11.5817 15.7861 12.0652 15.7097 12.4879 15.3102C12.5914 15.2123 12.7413 15.1081 12.8736 15.1032C13.4771 15.0812 14.082 15.0936 14.6835 15.0936C14.7191 16.0449 13.3641 16.9742 12.1995 17.0796C10.7731 17.2088 9.49626 16.9387 8.78512 15.5666C8.04387 14.1364 8.25948 12.7265 9.19881 11.4618C9.97861 10.4118 11.12 10.3045 12.3334 10.509C13.592 10.7212 14.2977 11.4943 14.5824 12.6708C14.6942 13.1338 14.711 13.6191 14.7827 14.1836ZM12.6989 12.9614C12.7334 12.2149 12.2998 11.733 11.6155 11.7308C10.9566 11.7285 10.5697 12.1947 10.6259 12.9614C11.3154 12.9614 12.0076 12.9614 12.6989 12.9614Z" fill="#18232E"/>
<path d="M21.6096 14.192C20.1292 14.192 18.757 14.192 17.3722 14.192C17.2712 14.7629 17.3816 15.2241 17.8581 15.5002C18.3704 15.797 18.8656 15.7052 19.3246 15.3183C19.47 15.1956 19.6919 15.1125 19.8839 15.1019C20.4123 15.0729 20.9434 15.0919 21.6963 15.0919C21.359 15.5765 21.1678 16.0036 20.8464 16.2864C19.4636 17.5036 17.0117 17.3776 15.933 16.0748C14.7422 14.6364 15.0562 12.0436 16.5552 10.9369C18.3464 9.61464 21.0791 10.7024 21.4585 12.8944C21.5273 13.2915 21.5531 13.6957 21.6096 14.192ZM19.5614 12.9571C19.5017 12.1558 19.046 11.6988 18.3929 11.7324C17.7412 11.7659 17.4211 12.1631 17.4387 12.9571C18.1339 12.9571 18.8307 12.9571 19.5614 12.9571Z" fill="#18232E"/>
</g>
<defs>
<clipPath id="clip0_2141_241">
<rect width="28" height="28" fill="white" transform="translate(0.799805)"/>
</clipPath>
</defs>
</svg>
