<svg width="29" height="28" viewBox="0 0 29 28" fill="none" xmlns="http://www.w3.org/2000/svg">
<g clip-path="url(#clip0_2141_471)">
<path d="M13.7939 7C17.45 7.04878 20.4114 7.43853 23.2326 8.58586C24.7156 9.18903 26.1001 9.95368 27.1863 11.1596C27.7994 11.8403 28.2492 12.6098 28.3678 13.5337C28.5371 14.8528 28.0217 15.9379 27.1593 16.8885C26.0762 18.0825 24.6954 18.8366 23.2233 19.4385C21.2204 20.2574 19.1227 20.6844 16.972 20.8786C14.1873 21.13 11.4243 21.0018 8.69117 20.3962C6.59666 19.9322 4.60629 19.2148 2.84525 17.9595C2.21929 17.5133 1.661 16.9977 1.21368 16.37C0.091682 14.7958 0.131261 13.0243 1.32399 11.4982C2.17453 10.4098 3.29617 9.66704 4.51523 9.05667C6.38257 8.12165 8.3756 7.57948 10.438 7.30939C11.7583 7.13645 13.0918 7.06258 13.7939 7ZM14.7787 20.7624C15.2487 20.7353 16.0726 20.7056 16.8931 20.637C19.0048 20.4602 21.0652 20.0437 23.0359 19.2514C24.3998 18.703 25.6834 18.0165 26.7286 16.9609C28.5162 15.1557 28.5454 13.0566 26.8135 11.2008C26.0762 10.4107 25.1799 9.83513 24.2198 9.3549C21.6138 8.05141 18.8138 7.52603 15.9313 7.35911C14.1445 7.25564 12.362 7.3301 10.589 7.58656C8.47979 7.89162 6.43858 8.42414 4.53696 9.40584C3.39583 9.99491 2.34639 10.7075 1.57513 11.7569C0.955648 12.5997 0.640841 13.5323 0.815354 14.5845C0.969253 15.5124 1.4505 16.2721 2.10232 16.9333C3.16719 18.0135 4.473 18.7196 5.86816 19.2703C8.61467 20.3544 11.4899 20.729 14.7787 20.7624Z" fill="black"/>
<path d="M14.9404 20.4524C11.5041 20.4163 8.66535 20.062 5.95365 18.9918C4.62228 18.4664 3.36824 17.8066 2.35296 16.7748C1.54088 15.9496 1.01446 14.998 1.10663 13.7973C1.17884 12.8567 1.63724 12.0976 2.26956 11.4297C3.23036 10.4148 4.42798 9.7559 5.70487 9.22724C7.81752 8.35252 10.0329 7.92463 12.3065 7.75718C14.8359 7.5709 17.3465 7.69729 19.8262 8.24046C21.9406 8.70361 23.9587 9.40673 25.703 10.7343C26.2602 11.1583 26.7414 11.6566 27.1038 12.2588C27.8584 13.5131 27.823 14.7577 27.0283 15.9774C26.3008 17.0941 25.2323 17.8132 24.0698 18.4099C22.1285 19.4064 20.0455 19.944 17.8907 20.2068C16.7338 20.3478 15.566 20.4021 14.9404 20.4524ZM13.7556 11.4725C13.7724 11.4764 13.7892 11.4802 13.8061 11.4841C13.8447 11.7695 13.8837 12.0548 13.9215 12.3404C13.9304 12.408 13.9354 12.4761 13.9418 12.544C14.0066 13.2235 14.0066 13.2152 14.682 13.2225C14.893 13.2248 14.9932 13.1601 15.0617 12.9574C15.3489 12.108 15.6544 11.2648 15.9532 10.4194C16.0361 10.1848 16.1189 9.95013 16.2092 9.69454C15.888 9.69454 15.6074 9.69454 15.3416 9.69454C15.1409 10.2519 14.9473 10.7897 14.7537 11.3275C14.6426 10.8927 14.5738 10.4625 14.5443 10.0297C14.5264 9.7666 14.4511 9.6405 14.162 9.67279C13.9406 9.69753 13.7141 9.6777 13.5107 9.6777C13.0949 10.8615 12.6893 12.0163 12.276 13.1932C12.6058 13.1932 12.9023 13.1932 13.1576 13.1932C13.3641 12.5989 13.5598 12.0357 13.7556 11.4725ZM10.6133 17.5346C10.3639 17.0703 10.1397 16.6528 9.91256 16.23C10.6749 15.9963 11.0371 15.5794 11.0616 14.9366C11.0789 14.4839 10.8899 14.1373 10.4461 14.0687C9.84624 13.976 9.23 13.9883 8.72372 13.9611C8.3056 15.2116 7.91947 16.3665 7.5311 17.528C7.85804 17.528 8.18875 17.528 8.51551 17.528C8.65704 17.1378 8.79463 16.7585 8.95153 16.3258C9.13883 16.7078 9.29031 17.0344 9.46052 17.3511C9.50234 17.429 9.60217 17.521 9.68092 17.5263C9.98129 17.5469 10.2839 17.5346 10.6133 17.5346ZM21.1856 14.0251C20.7734 15.2118 20.3711 16.3697 19.9665 17.5342C20.3137 17.5342 20.654 17.5342 20.9807 17.5342C21.1174 17.144 21.2479 16.7715 21.4 16.3374C21.581 16.7166 21.7314 17.0413 21.8919 17.3608C21.9269 17.4305 21.9956 17.5312 22.053 17.5341C22.3871 17.5506 22.7226 17.5422 23.0846 17.5422C22.9434 17.2868 22.8289 17.0839 22.7185 16.8788C22.6046 16.6672 22.4948 16.4533 22.3805 16.2354C23.1056 16.036 23.4189 15.7044 23.5093 15.0647C23.5914 14.4845 23.3288 14.0869 22.7462 14.0354C22.2031 13.9874 21.6523 14.0251 21.1856 14.0251ZM16.9551 9.68981C16.5421 10.8858 16.1436 12.0393 15.7353 13.2217C16.1243 13.2217 16.496 13.21 16.8667 13.2237C18.4477 13.282 19.2312 12.1232 19.3464 10.946C19.4154 10.2413 19.0238 9.74344 18.3379 9.69618C17.8609 9.66325 17.3797 9.68981 16.9551 9.68981ZM13.1485 13.8282C12.8347 13.9488 12.4932 14.0251 12.2126 14.1985C11.526 14.6228 11.2485 15.3076 11.1854 16.0723C11.1402 16.6192 11.2859 17.1244 11.7941 17.438C12.3179 17.7611 12.862 17.6886 13.3523 17.3883C14.1335 16.9098 14.5021 16.169 14.4562 15.2703C14.4068 14.3078 13.9858 13.8933 13.1485 13.8282ZM8.68284 13.2151C8.9768 13.2151 9.21981 13.2021 9.46064 13.2192C9.65718 13.2331 9.76538 13.1711 9.83912 12.9843C9.87881 12.8837 9.99013 12.7492 10.0795 12.7409C10.3981 12.7113 10.7212 12.7293 11.0556 12.7293C11.0556 12.907 11.0556 13.0487 11.0556 13.2C11.3895 13.2 11.7093 13.2 12.022 13.2C11.9706 12.0168 11.9197 10.8473 11.8691 9.68156C11.5433 9.68156 11.2216 9.68156 10.971 9.68156C10.2029 10.8677 9.46194 12.012 8.68284 13.2151ZM20.6523 14.0236C19.8806 14.0236 19.1692 14.0236 18.5044 14.0236C18.0767 15.2126 17.6605 16.3695 17.2341 17.5546C17.9459 17.5546 18.6413 17.5576 19.3366 17.5494C19.3959 17.5487 19.4857 17.4857 19.5077 17.4306C19.5928 17.2164 19.6561 16.9936 19.7377 16.743C19.3221 16.743 18.9447 16.743 18.5639 16.743C18.665 16.1827 18.665 16.1826 19.177 16.183C19.2948 16.1831 19.4139 16.1961 19.5298 16.1816C19.5969 16.1733 19.6957 16.1372 19.7163 16.0875C19.8104 15.8611 19.8818 15.6254 19.9738 15.3566C19.6362 15.3566 19.3569 15.3566 19.0596 15.3566C19.0791 15.2758 19.0961 15.221 19.1053 15.165C19.1551 14.8596 19.3088 14.7165 19.6428 14.7617C19.8806 14.7939 20.1264 14.768 20.3853 14.768C20.4712 14.5286 20.5557 14.293 20.6523 14.0236ZM14.8171 17.5532C15.0222 17.5532 15.1992 17.5404 15.3735 17.5566C15.5811 17.5759 15.713 17.5118 15.8287 17.3284C16.0418 16.9904 16.2863 16.6717 16.5217 16.3478C17.0863 15.5713 17.6531 14.7964 18.225 14.0127C17.8525 14.0127 17.4749 14.0127 17.1512 14.0127C16.708 14.7105 16.2851 15.3763 15.8276 16.0966C15.8276 15.3567 15.8276 14.6913 15.8276 14.021C15.4868 14.021 15.149 14.021 14.8171 14.021C14.8171 15.1988 14.8171 16.3551 14.8171 17.5532ZM8.57512 9.69127C8.19988 9.69127 7.83431 9.69127 7.53723 9.69127C7.11959 10.8873 6.71673 12.0408 6.30616 13.2167C6.96369 13.2167 7.60967 13.2197 8.2556 13.2119C8.31874 13.2112 8.41527 13.1582 8.43771 13.1051C8.52718 12.8935 8.59349 12.6723 8.68219 12.4145C8.30101 12.4145 7.96406 12.4145 7.58482 12.4145C7.92365 11.4826 8.24788 10.5911 8.57512 9.69127ZM22.5051 11.0227C21.7774 11.0227 21.0938 11.021 20.4101 11.0262C20.362 11.0265 20.2859 11.0663 20.271 11.1057C20.1844 11.3353 20.1124 11.5701 20.0206 11.848C20.4392 11.848 20.7947 11.848 21.1501 11.848C20.7841 12.0341 20.4057 12.1577 20.0437 12.318C19.91 12.3771 19.815 12.5225 19.7024 12.6286C19.7265 12.6603 19.7505 12.692 19.7747 12.7238C20.558 12.4574 21.342 12.1927 22.1234 11.9208C22.1785 11.9016 22.2363 11.8378 22.2567 11.7817C22.3422 11.5462 22.414 11.3058 22.5051 11.0227ZM7.50701 14.4932C7.48016 14.4584 7.4533 14.4237 7.42644 14.3889C6.652 14.6534 5.87709 14.9164 5.10424 15.1855C5.04693 15.2054 4.98026 15.2601 4.96029 15.3141C4.87365 15.5484 4.8028 15.7884 4.70998 16.0766C5.44089 16.0766 6.12234 16.0783 6.80372 16.073C6.8509 16.0726 6.92475 16.0305 6.94019 15.9903C7.02824 15.7611 7.10233 15.5266 7.19462 15.2543C6.75796 15.2543 6.38243 15.2543 6.0069 15.2543C6.38761 15.0603 6.78346 14.9321 7.16647 14.7734C7.29657 14.7195 7.3944 14.5889 7.50701 14.4932Z" fill="#18232E"/>
<path d="M9.20654 15.5141C9.27728 15.281 9.32045 15.102 9.38907 14.9333C9.41192 14.8771 9.50233 14.8087 9.55775 14.8121C9.73232 14.8229 9.96714 14.7763 10.0056 15.0296C10.0392 15.2508 9.89953 15.4028 9.6938 15.4631C9.55834 15.5027 9.4088 15.495 9.20654 15.5141Z" fill="#18232E"/>
<path d="M21.6665 15.5631C21.7293 15.3549 21.7813 15.229 21.8034 15.0981C21.8401 14.8815 21.9632 14.7891 22.1677 14.847C22.272 14.8764 22.4484 14.9951 22.4389 15.024C22.3887 15.1775 22.321 15.357 22.199 15.4466C22.0819 15.5326 21.8913 15.5197 21.6665 15.5631Z" fill="#18232E"/>
<path d="M17.0083 12.3711C17.2149 11.7681 17.4114 11.1792 17.6237 10.5961C17.6478 10.5301 17.7691 10.4473 17.8312 10.4574C17.9641 10.4791 18.1099 10.5323 18.2073 10.6198C18.2717 10.6777 18.3056 10.8323 18.2769 10.9185C18.1466 11.3097 18.0275 11.7129 17.829 12.0706C17.6754 12.3473 17.3647 12.4363 17.0083 12.3711Z" fill="#18232E"/>
<path d="M12.231 16.1701C12.2489 15.7045 12.3475 15.3121 12.6164 14.9812C12.7491 14.818 12.9129 14.6894 13.1486 14.76C13.3886 14.8319 13.4806 15.0428 13.4461 15.2408C13.374 15.6557 13.2499 16.0626 13.1297 16.4677C13.1049 16.551 13.0124 16.6237 12.9357 16.681C12.6526 16.8923 12.3491 16.783 12.2649 16.4405C12.2398 16.3378 12.238 16.2293 12.231 16.1701Z" fill="#18232E"/>
<path d="M11.0298 11.8957C10.8545 11.8957 10.6915 11.8957 10.4683 11.8957C10.6512 11.5837 10.8182 11.2988 11.0298 10.938C11.0298 11.3023 11.0298 11.5816 11.0298 11.8957Z" fill="#18232E"/>
</g>
<defs>
<clipPath id="clip0_2141_471">
<rect width="28" height="28" fill="white" transform="translate(0.399902)"/>
</clipPath>
</defs>
</svg>
