<svg width="29" height="28" viewBox="0 0 29 28" fill="none" xmlns="http://www.w3.org/2000/svg">
<g clip-path="url(#clip0_2141_485)">
<path d="M16.0923 4C16.9046 4.11535 17.7174 4.22704 18.5288 4.3481C18.8286 4.39286 19.1273 4.4505 19.4223 4.51896C20.1566 4.68913 20.3062 5.09845 19.8506 5.68032C18.3806 7.55759 16.8642 9.40212 15.4536 11.3212C14.4507 12.6859 13.5806 14.1451 12.6753 15.5767C12.5408 15.7894 12.4813 16.0844 12.4897 16.3381C12.5026 16.7252 12.7528 16.9544 13.1696 16.9629C13.4301 16.9682 13.6909 16.9672 13.9515 16.9672C17.7021 16.9675 21.4528 16.9623 25.2034 16.9758C25.543 16.977 25.7225 16.8697 25.8795 16.5854C26.5981 15.2835 26.6185 13.9029 26.4003 12.4918C25.9726 9.72601 24.2449 7.90296 21.8795 6.54841C21.4443 6.2992 20.9945 6.07438 20.5513 5.83839C21.0696 4.93271 21.0723 4.92657 22.0216 5.32711C24.7606 6.48284 26.8921 8.26147 28.0016 11.0396C29.0652 13.7025 28.6686 16.2267 27.1499 18.6227C26.8826 19.0444 26.5257 19.2352 26.0016 19.2342C21.3532 19.2248 16.7047 19.241 12.0563 19.2279C11.4105 19.2262 10.7469 19.1781 10.1229 19.0273C8.35556 18.6005 7.58559 17.2404 8.17643 15.558C8.41283 14.8849 8.75604 14.2209 9.17784 13.6414C11.0833 11.0235 13.0364 8.43889 14.9637 5.83609C15.0797 5.67947 15.1206 5.46957 15.1964 5.28448C14.9901 5.21849 14.7823 5.0912 14.5776 5.09572C11.8413 5.15531 9.23503 5.70479 6.91197 7.19371C4.84481 8.5186 3.36623 10.3065 2.89882 12.7173C2.37465 15.4206 3.25647 17.7541 5.20812 19.6917C6.82084 21.2929 8.85909 22.1044 11.0819 22.4877C14.2698 23.0373 17.4212 22.9101 20.5008 21.8594C21.6849 21.4554 22.7734 20.8774 23.7379 20.084C23.8413 19.999 23.9835 19.9129 24.1101 19.9093C24.7431 19.8916 25.3769 19.9012 26.073 19.9997C25.6006 20.3986 25.1485 20.824 24.6519 21.1918C22.7747 22.5825 20.6185 23.3355 18.3206 23.6914C15.1419 24.1837 11.9717 24.1129 8.84987 23.2907C6.21119 22.5957 3.90763 21.3525 2.28395 19.1273C-0.463439 15.3619 0.214791 10.378 3.85375 7.30284C5.91403 5.56182 8.3479 4.67472 10.9935 4.26029C11.6477 4.15781 12.307 4.08594 12.9639 4C14.0067 4 15.0494 4 16.0923 4Z" fill="black"/>
</g>
<defs>
<clipPath id="clip0_2141_485">
<rect width="28" height="28" fill="white" transform="translate(0.600098)"/>
</clipPath>
</defs>
</svg>
