<svg width="28" height="28" viewBox="0 0 28 28" fill="none" xmlns="http://www.w3.org/2000/svg">
<path d="M14.061 25.3091C11.8967 25.2535 9.75561 25.0785 7.67207 24.4548C5.95149 23.9396 4.37846 23.1579 3.08237 21.8848C1.70823 20.5351 0.898311 18.8832 0.52846 17.0117C0.0701238 14.6927 0.101077 12.3793 0.784999 10.1063C1.67192 7.15863 3.6521 5.22012 6.47731 4.09673C8.06068 3.46711 9.71574 3.15769 11.4055 3.00189C12.9943 2.85538 14.585 2.84499 16.1744 2.95677C18.5021 3.12045 20.769 3.54914 22.858 4.65378C25.6446 6.12728 27.2296 8.45724 27.7241 11.5498C28.0522 13.6024 28.0175 15.6467 27.4814 17.6618C26.66 20.7496 24.6851 22.8139 21.7567 24.0085C20.2907 24.6066 18.7588 24.9436 17.1891 25.0966C16.1493 25.1979 15.1039 25.2403 14.061 25.3091ZM3.8662 12.0809C3.8294 12.2711 3.77958 12.4459 3.76372 12.6238C3.6346 14.0717 3.68344 15.5128 3.98772 16.937C4.31169 18.4531 4.94803 19.8108 6.08848 20.8952C7.08828 21.8459 8.29447 22.4137 9.61397 22.7602C11.4092 23.2317 13.2424 23.2807 15.0826 23.2257C16.4495 23.1849 17.7995 23.023 19.1077 22.5992C21.4738 21.8327 23.1257 20.3309 23.9217 17.9391C24.3609 16.6195 24.4959 15.2598 24.4733 13.8807C24.4621 13.202 24.4069 12.524 24.3693 11.8004C24.1936 11.8558 24.0828 11.8871 23.9746 11.9256C22.4188 12.4791 20.8653 13.0395 19.3069 13.5858C18.3011 13.9384 17.3792 14.4295 16.5818 15.1438C15.5465 16.0711 14.8372 17.2277 14.2386 18.4629C14.1871 18.5692 14.1304 18.6729 14.0619 18.8055C13.8941 18.4786 13.75 18.1958 13.6041 17.914C12.6484 16.0678 11.2573 14.673 9.29246 13.9449C7.51484 13.286 5.70665 12.7095 3.8662 12.0809ZM14.0894 15.2082C14.0714 15.2246 14.0892 15.2149 14.0973 15.1999C14.1405 15.1204 14.1827 15.0403 14.2226 14.9592C15.0682 13.2451 16.3056 11.8948 18.0042 11.0094C18.9121 10.5362 19.8646 10.1489 20.796 9.72068C21.577 9.3616 22.3564 8.99924 23.161 8.62699C23.0796 8.48606 23.0359 8.39768 22.9807 8.31707C22.5822 7.73443 22.1024 7.22874 21.5388 6.80289C20.1394 5.74539 18.5181 5.28717 16.8122 5.07443C14.8535 4.83014 12.8933 4.83758 10.9401 5.13284C9.46199 5.35624 8.05505 5.79056 6.81643 6.66321C6.01159 7.23027 5.34561 7.92529 4.86791 8.83518C5.15852 8.98628 5.42305 9.14455 5.70354 9.26601C6.81905 9.74912 7.94234 10.2144 9.05752 10.6982C10.4838 11.317 11.7782 12.1338 12.7668 13.3553C13.2443 13.9451 13.6525 14.5912 14.0894 15.2082Z" fill="black"/>
</svg>
