<svg width="29" height="28" viewBox="0 0 29 28" fill="none" xmlns="http://www.w3.org/2000/svg">
<g clip-path="url(#clip0_2141_495)">
<path d="M14.8425 6.69752e-06C22.5242 -0.00746807 28.7866 6.24268 28.7999 13.93C28.8134 21.7062 22.5589 27.9968 14.8111 28C7.10777 28.0032 0.802713 21.7103 0.799928 14.0157C0.797047 6.25495 7.0564 0.0075773 14.8425 6.69752e-06ZM3.65295 19.9316C3.80016 19.8784 3.85557 19.8721 3.89302 19.8428C6.79463 17.5833 9.69913 15.3274 12.5852 13.0483C12.7728 12.9001 12.8791 12.5814 12.9189 12.3258C13.1806 10.642 13.4214 8.95478 13.6543 7.26663C13.9208 5.33565 14.1721 3.40265 14.4437 1.36818C9.96474 1.67397 6.4959 3.56375 4.1593 7.2788C1.59848 11.3504 1.56314 15.5908 3.65295 19.9316ZM15.2629 1.37115C15.2629 1.63593 15.2451 1.78782 15.2655 1.93444C15.7529 5.43934 16.2362 8.94491 16.7515 12.4457C16.7904 12.7105 17.012 13.0042 17.2327 13.1781C19.8777 15.262 22.5385 17.3261 25.1956 19.3946C25.4285 19.5759 25.6654 19.7521 25.954 19.9712C27.9962 15.6722 28.0047 11.4986 25.6016 7.49624C23.3135 3.68564 19.8212 1.69678 15.2629 1.37115ZM4.10351 20.6912C6.91774 24.741 10.6636 26.8117 15.5057 26.5689C19.7911 26.354 23.0898 24.3003 25.4542 20.7554C25.3671 20.6472 25.3555 20.618 25.3352 20.6097C21.9319 19.2217 18.5299 17.8302 15.1189 16.461C14.9115 16.3777 14.6062 16.4055 14.3914 16.4924C11.0075 17.861 7.63102 19.2476 4.10351 20.6912Z" fill="black"/>
</g>
<defs>
<clipPath id="clip0_2141_495">
<rect width="28" height="28" fill="white" transform="translate(0.799927)"/>
</clipPath>
</defs>
</svg>
