<svg width="29" height="28" viewBox="0 0 29 28" fill="none" xmlns="http://www.w3.org/2000/svg">
<g clip-path="url(#clip0_2141_533)">
<path d="M3.61241 13.1044C2.89855 13.0593 2.20634 13.0161 1.51425 12.9716C1.34826 12.9609 1.18151 12.9533 1.01705 12.9308C0.809567 12.9024 0.737639 12.7846 0.858599 12.6084C1.04996 12.3296 1.24014 12.0466 1.46675 11.7967C1.55487 11.6995 1.7394 11.6479 1.88213 11.6435C2.44061 11.6262 3.0002 11.6265 3.55879 11.6408C3.78441 11.6466 3.87311 11.5811 3.93285 11.3565C4.77692 8.18365 6.67525 5.80803 9.62031 4.25678C11.403 3.31774 13.3277 2.90383 15.3457 3.01873C18.5114 3.19898 21.1709 4.45266 23.2534 6.80486C25.2023 9.00623 26.0988 11.5848 25.9852 14.4988C25.981 14.6043 25.9809 14.7101 25.9812 14.8157C25.9813 14.8335 25.9933 14.8513 26.0109 14.8998C26.4147 14.9296 26.8319 14.9627 27.2495 14.9903C27.66 15.0175 28.0711 15.0365 28.4816 15.0637C28.8181 15.086 28.8832 15.2157 28.6982 15.4834C28.6872 15.4993 28.6729 15.5135 28.6645 15.5306C28.3235 16.2286 27.7792 16.5168 26.9845 16.3885C26.6599 16.3362 26.3185 16.3909 25.9859 16.3757C25.7886 16.3667 25.7214 16.4405 25.6763 16.6232C25.2615 18.3039 24.4837 19.8082 23.3356 21.1217C21.5668 23.1454 19.3463 24.4294 16.6585 24.8433C12.8575 25.4285 9.5595 24.3723 6.82546 21.7187C5.17688 20.1186 4.16535 18.1635 3.77546 15.9254C3.64126 15.1551 3.66092 14.3588 3.61365 13.5743C3.605 13.4311 3.61241 13.287 3.61241 13.1044ZM5.50674 11.6361C5.63882 11.6361 5.76184 11.6361 5.88486 11.6361C10.4165 11.6361 14.9482 11.6351 19.4798 11.6413C19.6183 11.6415 19.7567 11.7189 19.8952 11.7602C19.7996 11.868 19.7213 12 19.6055 12.0795C18.7786 12.6471 17.9437 13.2036 17.1121 13.7646C16.8756 13.9242 16.6417 14.0873 16.4067 14.2487C16.4146 14.2699 16.4225 14.2911 16.4304 14.3122C19.081 14.4776 21.7317 14.643 24.38 14.8082C24.9039 10.2765 21.429 5.14724 15.6988 4.58325C10.6186 4.08327 6.4361 7.69019 5.50674 11.6361ZM5.16953 13.1946C5.01602 16.542 6.16216 19.3199 8.8185 21.3741C11.8766 23.739 15.2855 24.1577 18.8394 22.5681C21.5599 21.3512 23.2796 19.2296 24.1373 16.38C23.9589 16.38 23.8422 16.38 23.7255 16.38C19.1758 16.38 14.626 16.3809 10.0763 16.3744C9.95976 16.3742 9.84327 16.292 9.72678 16.248C9.79865 16.1558 9.85287 16.039 9.94522 15.9753C10.7702 15.4059 11.6025 14.8466 12.4314 14.2827C12.6915 14.1057 12.9481 13.9239 13.2799 13.693C10.532 13.5241 7.88061 13.3612 5.16953 13.1946Z" fill="black"/>
</g>
<defs>
<clipPath id="clip0_2141_533">
<rect width="28" height="28" fill="white" transform="translate(0.799805)"/>
</clipPath>
</defs>
</svg>
