<svg width="29" height="28" viewBox="0 0 29 28" fill="none" xmlns="http://www.w3.org/2000/svg">
<g clip-path="url(#clip0_2141_421)">
<path d="M13.7178 20.9985C10.0091 20.8437 6.58203 20.2443 3.53402 18.3332C2.75315 17.8437 2.02188 17.2172 1.41602 16.5269C-0.21071 14.6733 -0.190612 12.4001 1.38757 10.5105C2.65948 8.98757 4.33486 8.02588 6.18783 7.4066C12.2547 5.37925 18.2526 5.44179 24.0759 8.26096C25.0383 8.72684 25.9327 9.42862 26.6926 10.1841C28.6944 12.1742 28.6878 14.7453 26.7594 16.8088C25.1679 18.5117 23.1052 19.4203 20.9098 20.075C18.5108 20.7904 16.0456 21.0211 13.7178 20.9985ZM13.934 20.0874C16.5953 20.0821 18.9347 19.7847 21.1993 19.0326C22.8822 18.4737 24.4645 17.7275 25.7298 16.4492C27.5145 14.6461 27.5236 12.4442 25.7533 10.6362C24.726 9.58689 23.4744 8.87084 22.1072 8.36737C17.2615 6.58264 12.3557 6.5266 7.42448 7.98515C5.68434 8.49988 4.06948 9.28056 2.76561 10.5738C0.920982 12.4033 0.884078 14.6533 2.76126 16.4532C3.47936 17.1418 4.34191 17.7324 5.23338 18.1865C8.04104 19.6172 11.0889 20.0496 13.934 20.0874Z" fill="black"/>
<path d="M21.897 13.8996C21.8172 13.6445 21.7049 13.3945 21.6641 13.1334C21.5609 12.4726 21.1284 12.2872 20.5195 12.1965C18.4901 11.8947 16.5004 12.2715 14.5001 12.4773C13.9362 12.5354 13.3758 12.6262 12.8132 12.6966C11.9458 12.805 11.3794 13.2446 11.1565 14.1023C10.924 14.9963 10.667 15.8842 10.3043 16.8079C10.2421 16.6285 10.1679 16.4521 10.1199 16.269C9.92394 15.5224 9.74765 14.7708 9.54197 14.0269C9.33735 13.2871 8.86418 12.8417 8.06604 12.7364C6.49608 12.5296 4.92917 12.301 3.36121 12.0797C3.11299 12.0446 2.86594 12.0012 2.61831 11.9617C2.61431 11.9112 2.6102 11.8608 2.6062 11.8104C3.31996 11.7056 4.03336 11.599 4.74735 11.4966C5.83074 11.3414 6.91554 11.1952 7.99799 11.0335C8.80424 10.9131 9.34628 10.4819 9.59615 9.69495C9.809 9.02427 10.0546 8.36369 10.4232 7.69092C10.5954 8.20959 10.8002 8.72026 10.9329 9.24856C11.2107 10.355 11.8749 10.963 13.0465 11.0828C14.7774 11.26 16.4984 11.5488 18.2322 11.6776C19.0972 11.7419 19.9906 11.6077 20.8516 11.4558C21.15 11.4031 21.423 11.053 21.6445 10.7875C21.7929 10.6095 21.8303 10.341 21.945 10.0407C22.0305 10.1622 22.0946 10.2136 22.1052 10.2742C22.2765 11.2489 22.9342 11.5807 23.8553 11.6181C24.2305 11.6333 24.6019 11.7392 24.975 11.8039C24.9749 11.8533 24.9747 11.9027 24.9745 11.9522C24.5445 12.032 24.1165 12.1645 23.6839 12.1804C22.841 12.2114 22.3177 12.5518 22.197 13.4123C22.1742 13.5747 22.0825 13.7276 22.0226 13.8849C21.9808 13.8898 21.939 13.8947 21.897 13.8996Z" fill="#18232E"/>
<path d="M19.843 18.8267C19.7777 18.7818 19.7495 18.7726 19.7473 18.7594C19.5604 17.6096 18.6741 17.4309 17.745 17.4453C16.7726 17.4604 15.7968 17.5623 14.835 17.7072C14.6014 17.7423 14.3627 18.0654 14.224 18.3101C14.0608 18.5981 14.004 18.9449 13.7807 19.2605C13.6925 18.9927 13.5798 18.73 13.5215 18.4561C13.4101 17.9319 13.1168 17.6681 12.564 17.6167C11.9115 17.556 11.2651 17.4321 10.616 17.3355C10.6166 17.2769 10.6171 17.2184 10.6177 17.1598C11.0715 17.095 11.5244 16.9838 11.9793 16.9751C12.8913 16.9577 13.5299 16.647 13.6771 15.6761C13.6877 15.606 13.7531 15.5442 13.8399 15.4009C13.9379 15.6183 14.0362 15.7745 14.0797 15.9443C14.2339 16.5459 14.6161 16.8859 15.2393 16.9036C16.2892 16.9336 17.3401 16.9415 18.3904 16.9405C19.0697 16.94 19.4748 16.589 19.6125 15.9301C19.6337 15.8289 19.6979 15.7366 19.7632 15.5947C19.8494 15.6962 19.9311 15.7476 19.9376 15.8068C20.0384 16.7435 20.7203 16.8908 21.4884 16.9513C21.9221 16.9856 22.3521 17.0646 22.7838 17.1234C22.7824 17.1747 22.7811 17.226 22.7797 17.2774C22.2928 17.3541 21.8074 17.4804 21.3184 17.4959C20.5532 17.52 20.1227 17.873 19.9698 18.5972C19.955 18.6672 19.8986 18.7286 19.843 18.8267Z" fill="#18232E"/>
<path d="M17.8763 16.5915C17.7707 16.2639 17.6455 15.941 17.5644 15.6076C17.4689 15.2147 17.2279 15.0227 16.8355 14.9669C16.1293 14.8664 15.4247 14.7542 14.7194 14.6468C14.7184 14.5872 14.7176 14.5278 14.7167 14.4683C15.0923 14.4113 15.4669 14.3148 15.8437 14.3052C16.8197 14.2803 17.6319 14.0668 17.7977 12.9304C17.8066 12.8692 17.883 12.8177 17.9403 12.7466C18.2845 14.2956 19.5335 14.3211 20.716 14.3636C21.351 14.3865 22.0002 14.2728 22.6268 14.1439C22.8476 14.0984 23.0498 13.8468 23.2057 13.6475C23.341 13.4746 23.3989 13.2426 23.5695 12.9797C23.8122 14.4763 25.1327 14.1451 26.1984 14.5395C25.8772 14.62 25.708 14.6719 25.5349 14.703C25.3621 14.7341 25.1859 14.7463 25.0106 14.7634C24.3135 14.8309 23.8313 15.131 23.7381 15.8772C23.723 15.999 23.6443 16.1131 23.5675 16.2964C23.4847 16.1346 23.4022 16.0401 23.3892 15.9371C23.2798 15.0755 22.704 14.7555 21.921 14.7846C20.9107 14.8222 19.899 14.9048 18.898 15.0409C18.6827 15.0702 18.4556 15.3824 18.3329 15.6151C18.1764 15.912 18.1203 16.2606 18.0209 16.5867C17.9729 16.5884 17.9246 16.5899 17.8763 16.5915Z" fill="#18232E"/>
</g>
<defs>
<clipPath id="clip0_2141_421">
<rect width="28" height="28" fill="white" transform="translate(0.199951)"/>
</clipPath>
</defs>
</svg>
