<svg width="29" height="28" viewBox="0 0 29 28" fill="none" xmlns="http://www.w3.org/2000/svg">
<g clip-path="url(#clip0_2141_400)">
<path d="M0.600783 14.0874C0.602424 13.5 0.734061 13.0525 0.958775 12.6322C1.08817 12.3901 1.21914 12.15 1.4182 11.9556C1.54618 11.8306 1.64597 11.6744 1.77693 11.5535C1.98688 11.3595 2.20734 11.1766 2.43251 11.0016C2.62612 10.8512 2.8254 10.7053 3.0352 10.5808C3.36164 10.387 3.69413 10.2022 4.03347 10.0337C4.3591 9.87202 4.69255 9.72501 5.03011 9.5917C5.36296 9.46023 5.70432 9.35091 6.04367 9.2376C6.30687 9.14974 6.57059 9.06181 6.83811 8.98973C7.24742 8.87949 7.65873 8.7761 8.07191 8.68248C8.45951 8.5947 8.84876 8.51077 9.24068 8.448C9.79751 8.35876 10.3563 8.27945 10.9164 8.21629C11.4762 8.15313 12.0382 8.11021 12.5999 8.0669C13.6355 7.98697 14.6729 7.98989 15.7102 8.01789C16.1103 8.02866 16.5104 8.0499 16.9098 8.07867C17.3476 8.11021 17.7853 8.1486 18.2217 8.19775C18.6297 8.24376 19.0364 8.30307 19.4425 8.36515C19.8131 8.42185 20.1837 8.48116 20.5512 8.55555C20.9492 8.63609 21.345 8.72941 21.7392 8.82834C22.0962 8.91796 22.4509 9.01804 22.8045 9.12182C23.1127 9.21236 23.4208 9.30545 23.7233 9.41422C23.9849 9.50823 24.24 9.62255 24.4956 9.73378C24.7758 9.85572 25.0617 9.96772 25.3298 10.114C25.7176 10.3257 26.0969 10.5555 26.4695 10.7946C26.7144 10.9518 26.9563 11.1213 27.1722 11.3174C27.4891 11.6052 27.7875 11.9129 28.031 12.2772C28.2743 12.6413 28.454 13.0294 28.5463 13.4575C28.6148 13.7752 28.6152 14.0971 28.563 14.4222C28.5077 14.7676 28.3964 15.0889 28.2374 15.3945C28.1139 15.632 27.9604 15.8472 27.7906 16.0537C27.4754 16.437 27.1147 16.7656 26.7152 17.0491C26.4648 17.2268 26.2139 17.4075 25.9471 17.5563C25.5497 17.7781 25.1439 17.9864 24.7307 18.1751C24.3432 18.3522 23.9443 18.5043 23.545 18.652C23.2655 18.7554 22.9773 18.8337 22.6924 18.9217C22.494 18.9829 22.2962 19.0467 22.0957 19.1001C21.8322 19.1701 21.5671 19.2342 21.3014 19.2945C21.036 19.3546 20.7698 19.4121 20.5023 19.4613C20.1667 19.5231 19.83 19.5787 19.4929 19.6308C19.1203 19.6883 18.7474 19.7443 18.3734 19.7906C18.0206 19.8343 17.6668 19.871 17.3126 19.899C16.9003 19.9315 16.4872 19.9628 16.074 19.974C15.4141 19.992 14.7537 19.9963 14.0936 19.9996C13.774 20.0012 13.4538 19.9957 13.1345 19.9786C12.635 19.952 12.1355 19.9203 11.6371 19.8767C11.2073 19.839 10.7789 19.7839 10.3504 19.7318C10.0857 19.6996 9.82122 19.6635 9.55803 19.6206C9.25008 19.5706 8.94161 19.5209 8.63687 19.4539C8.1632 19.3497 7.69073 19.2384 7.22116 19.1164C6.79657 19.0061 6.37504 18.8825 5.95514 18.7544C5.76414 18.6962 5.58082 18.6116 5.39317 18.5413C5.26146 18.492 5.12445 18.4557 4.9964 18.3981C4.54712 18.1958 4.09739 17.994 3.65452 17.7774C3.41616 17.6609 3.18809 17.5203 2.96114 17.3806C2.57652 17.1439 2.21943 16.8664 1.88277 16.5626C1.66297 16.3643 1.45855 16.1487 1.29551 15.8961C1.15821 15.6832 1.00009 15.4805 0.891726 15.2528C0.70296 14.8564 0.590193 14.4331 0.600783 14.0874ZM14.8277 19.2993C15.3315 19.2795 15.9101 19.2618 16.4881 19.2321C16.8801 19.212 17.2719 19.1812 17.6627 19.1438C18.0824 19.1035 18.5018 19.0564 18.9197 19.0001C19.2424 18.9565 19.563 18.896 19.8838 18.8395C20.2142 18.7813 20.5458 18.7276 20.8735 18.6557C21.264 18.5699 21.6533 18.4759 22.0388 18.3689C22.4592 18.2522 22.8766 18.1228 23.2916 17.987C23.5908 17.889 23.8891 17.7838 24.1785 17.659C24.5196 17.5121 24.8546 17.3486 25.1847 17.1771C25.4328 17.0481 25.6718 16.8998 25.9098 16.7514C26.1004 16.6327 26.2897 16.5096 26.4678 16.3723C26.6399 16.2396 26.8025 16.0922 26.9589 15.9401C27.1142 15.7889 27.2768 15.6385 27.4 15.461C27.5619 15.2278 27.7042 14.9808 27.8062 14.7061C27.9395 14.3466 27.9626 13.9821 27.8996 13.6171C27.8415 13.2802 27.6933 12.9697 27.4959 12.6917C27.3807 12.5293 27.2538 12.3749 27.1232 12.2252C27.0316 12.1202 26.9311 12.0212 26.8237 11.9337C26.6153 11.7641 26.4041 11.5972 26.1851 11.4428C25.959 11.2833 25.7306 11.1232 25.488 10.9935C25.1382 10.8065 24.7765 10.6428 24.4165 10.4768C24.1669 10.3617 23.915 10.2501 23.6582 10.1539C23.3737 10.0474 23.0841 9.95449 22.7937 9.86633C22.3925 9.74455 21.9898 9.62785 21.5853 9.51846C21.3152 9.44546 21.0419 9.38368 20.768 9.32668C20.5067 9.27229 20.2429 9.23052 19.9802 9.18328C19.7356 9.13936 19.4917 9.09051 19.2462 9.05304C19.0147 9.01766 18.7817 8.99196 18.5489 8.96611C18.0799 8.91403 17.6113 8.85411 17.141 8.81741C16.6583 8.77972 16.174 8.75633 15.69 8.74395C15.1387 8.72987 14.5869 8.72825 14.0354 8.73364C13.588 8.73802 13.1406 8.7561 12.6936 8.77672C12.3717 8.79156 12.0498 8.81387 11.729 8.8448C11.313 8.88488 10.8977 8.93434 10.4828 8.98465C10.2444 9.01358 10.0065 9.04858 9.76946 9.08751C9.49418 9.13274 9.21987 9.18451 8.94541 9.23498C8.68415 9.28298 8.42103 9.32299 8.16268 9.38461C7.79447 9.47238 7.42939 9.57462 7.06394 9.67432C6.77785 9.75232 6.48996 9.82564 6.20864 9.91949C5.88123 10.0287 5.55747 10.1509 5.23707 10.2804C4.90742 10.4136 4.5762 10.5466 4.25946 10.7086C3.89766 10.8936 3.54974 11.108 3.19838 11.3142C2.86955 11.5071 2.57294 11.7465 2.29453 12.0095C2.04341 12.2467 1.80759 12.4988 1.63448 12.8047C1.55237 12.9499 1.46145 13.0936 1.40544 13.2499C1.28432 13.5877 1.23622 13.9363 1.28902 14.3002C1.35018 14.7222 1.53208 15.0846 1.77738 15.4153C1.90782 15.5911 2.05721 15.7547 2.21398 15.9063C2.41341 16.0991 2.62239 16.283 2.83972 16.4539C3.01402 16.591 3.20398 16.708 3.3923 16.8249C3.58979 16.9474 3.79116 17.0639 3.99551 17.1738C4.13595 17.2494 4.28459 17.3088 4.4292 17.3762C4.60596 17.4587 4.77914 17.5506 4.95955 17.6232C5.21186 17.7247 5.46947 17.8124 5.72483 17.9059C5.93172 17.9817 6.1357 18.0681 6.34632 18.1307C6.76957 18.2565 7.19454 18.3778 7.62249 18.4852C8.03619 18.5892 8.45325 18.6804 8.87128 18.7643C9.27096 18.8447 9.67236 18.9194 10.0757 18.9764C10.5293 19.0405 10.9852 19.0892 11.4413 19.1313C11.9955 19.1825 12.5503 19.2321 13.1059 19.2598C13.6542 19.2872 14.2037 19.2863 14.8277 19.2993Z" fill="black"/>
<path d="M14.7929 18.57C14.0119 18.546 13.2306 18.5288 12.45 18.4955C12.0511 18.4784 11.6527 18.4393 11.2553 18.3978C10.7796 18.3481 10.3045 18.2901 9.83031 18.2262C9.57345 18.1917 9.31913 18.1372 9.06361 18.0923C8.83644 18.0525 8.60852 18.0169 8.38209 17.973C8.19556 17.9368 8.01015 17.8943 7.82541 17.8494C7.5294 17.7774 7.23308 17.7061 6.93923 17.6254C6.62599 17.5394 6.30917 17.4607 6.00502 17.3471C5.38011 17.1137 4.75571 16.8788 4.16383 16.5591C3.7499 16.3356 3.35305 16.0872 2.99447 15.7814C2.80645 15.6211 2.65564 15.4151 2.48224 15.2357C2.3471 15.0958 2.26327 14.9245 2.17907 14.7524C2.03587 14.4598 1.99634 14.1514 2.03065 13.8258C2.06145 13.5331 2.15498 13.2647 2.31055 13.0252C2.49641 12.739 2.7124 12.4778 2.97918 12.2618C3.29257 12.008 3.61409 11.7698 3.97059 11.5843C4.2217 11.4537 4.46842 11.3131 4.72483 11.1947C4.97505 11.079 5.23393 10.983 5.49093 10.8834C5.67164 10.8135 5.85407 10.7476 6.03829 10.6882C6.2938 10.6058 6.55044 10.5266 6.80879 10.4543C7.11965 10.3674 7.43147 10.2832 7.74538 10.2091C8.03901 10.14 8.33518 10.0814 8.63164 10.0261C8.91423 9.97336 9.19801 9.92705 9.48224 9.88443C9.91064 9.82019 10.3386 9.74842 10.7691 9.7038C11.3795 9.64049 11.9918 9.59464 12.6039 9.54894C13.6464 9.47117 14.6906 9.47656 15.7343 9.50302C16.2986 9.51733 16.8629 9.5531 17.4258 9.59803C17.9293 9.63818 18.4314 9.70034 18.9332 9.75996C19.2675 9.79965 19.6016 9.84389 19.9335 9.90082C20.2899 9.9619 20.6443 10.0357 20.998 10.1121C21.4047 10.1998 21.8156 10.2752 22.2138 10.3943C22.8275 10.578 23.4394 10.7743 24.038 11.004C24.4431 11.1594 24.8291 11.3714 25.2143 11.5767C25.4603 11.7078 25.6931 11.8667 25.9249 12.024C26.2272 12.2291 26.4897 12.4848 26.7189 12.7714C26.9109 13.0116 27.0594 13.2892 27.1331 13.5898C27.2446 14.0448 27.1761 14.4827 26.9501 14.8989C26.7414 15.2831 26.4469 15.5888 26.1206 15.8528C25.8187 16.097 25.4815 16.2987 25.1467 16.4953C24.7336 16.738 24.2991 16.9379 23.8495 17.1012C23.6324 17.18 23.4206 17.2745 23.2022 17.3485C22.9652 17.4288 22.7242 17.4969 22.4833 17.5641C22.1957 17.6444 21.908 17.7258 21.6175 17.7928C21.2211 17.8842 20.8233 17.971 20.4234 18.0443C19.9808 18.1255 19.5365 18.2 19.0906 18.2576C18.5294 18.3299 17.967 18.4002 17.403 18.4385C16.6285 18.4911 15.8521 18.5133 15.0765 18.5473C14.9823 18.5514 14.888 18.5478 14.7937 18.5478C14.7931 18.5551 14.793 18.5625 14.7929 18.57ZM7.59085 13.5369C7.51396 13.548 7.43632 13.5508 7.3633 13.5713C7.06259 13.6554 6.81699 13.8399 6.61048 14.0686C6.33408 14.3749 6.10914 14.7158 5.99928 15.1317C5.92261 15.4219 5.91426 15.7097 5.99869 15.9878C6.07946 16.2537 6.26009 16.4699 6.45497 16.6591C6.69282 16.8899 6.97369 17.0479 7.30871 17.0736C7.56147 17.0929 7.81243 17.0842 8.05042 16.9799C8.18721 16.9199 8.32451 16.8597 8.45607 16.7888C8.59703 16.7128 8.73806 16.6336 8.86739 16.5389C9.01775 16.4288 9.15714 16.3023 9.29817 16.1791C9.39878 16.0913 9.49813 16.0014 9.59105 15.9052C9.68383 15.8092 9.76349 15.6998 9.85649 15.604C10.0897 15.3638 10.2923 15.0986 10.4753 14.8169C10.5462 14.7078 10.608 14.5921 10.6785 14.4826C10.814 14.272 10.9529 14.0636 11.0901 13.8541C11.1855 13.7082 11.2731 13.5718 11.4833 13.5746C11.7235 13.5778 11.964 13.5374 12.2047 13.5196C12.2665 13.5151 12.3298 13.5198 12.3915 13.5281C12.4894 13.5411 12.5916 13.5882 12.6825 13.5699C12.7764 13.5511 12.8864 13.492 12.941 13.4144C13.0676 13.2341 13.0868 13.0215 13.0068 12.8107C12.9813 12.7436 12.9408 12.6718 12.8871 12.6289C12.7167 12.4924 12.3423 12.568 12.2599 12.867C12.2403 12.938 12.2314 13.0337 12.1836 13.069C12.1324 13.1069 12.0411 13.0897 11.9672 13.0913C11.8492 13.0939 11.7311 13.092 11.592 13.092C11.7186 12.9312 11.8292 12.7819 11.949 12.6408C12.0641 12.5052 12.1865 12.376 12.3093 12.2477C12.4732 12.0765 12.6324 11.8993 12.8084 11.7421C13.0474 11.5285 13.3038 11.3356 13.5449 11.1244C13.6078 11.0693 13.6576 11.0708 13.7221 11.0947C13.7442 11.1029 13.7664 11.1117 13.7892 11.1176C14.2216 11.2298 14.6531 11.3466 15.0871 11.4518C15.3758 11.5219 15.6661 11.5942 15.9597 11.6313C16.3387 11.6792 16.7213 11.7013 17.1031 11.7186C17.4728 11.7355 17.8437 11.7039 18.1945 11.5831C18.5441 11.4627 18.8553 11.2685 19.0299 10.9069C19.1323 10.6945 19.2022 10.4736 19.1979 10.2319C19.1653 10.2274 19.1376 10.2164 19.1127 10.2212C18.9619 10.2506 18.8118 10.2831 18.6617 10.3155C18.4326 10.3649 18.2057 10.4325 17.9743 10.4613C17.529 10.5169 17.0818 10.5612 16.6342 10.5908C16.147 10.6229 15.6599 10.5963 15.1758 10.5286C14.9415 10.4958 14.7077 10.4589 14.4747 10.4182C14.1983 10.37 13.9237 10.3112 13.647 10.2653C13.3935 10.2233 13.1391 10.1813 12.8835 10.1593C12.3384 10.1124 11.7927 10.0615 11.2463 10.0437C10.5632 10.0213 9.8896 10.1211 9.22978 10.3042C9.05966 10.3515 8.88581 10.4131 8.73747 10.5078C8.5581 10.6223 8.39029 10.765 8.24217 10.9205C7.99374 11.1813 7.8627 11.5157 7.80848 11.8693C7.74658 12.2734 7.75478 12.6764 7.98352 13.0424C8.10658 13.2394 8.26746 13.3905 8.46666 13.4921C8.69436 13.6082 8.94227 13.6442 9.19458 13.6178C9.43331 13.5929 9.66966 13.5381 9.85716 13.3761C10.1791 13.0979 10.4267 12.7729 10.373 12.2998C10.3466 12.0685 10.3329 11.833 10.1791 11.6232C10.148 11.6443 10.0949 11.6601 10.0848 11.6909C10.0447 11.8133 10.0267 11.9437 9.98484 12.0654C9.89736 12.3194 9.77087 12.5482 9.56122 12.7213C9.46911 12.7974 9.37216 12.8114 9.25991 12.7983C9.17787 12.7886 9.08957 12.7833 9.01111 12.8041C8.84531 12.8482 8.72897 12.8113 8.67639 12.618C8.60576 12.3584 8.60479 12.1058 8.68914 11.8453C8.78065 11.5629 8.92452 11.3244 9.15624 11.1494C9.34098 11.01 9.54996 10.9306 9.77743 10.8796C10.2051 10.7836 10.6359 10.7323 11.0716 10.722C11.6613 10.7079 12.244 10.779 12.8222 10.8942C12.9165 10.913 13.0099 10.9368 13.1123 10.9603C12.923 11.1024 12.7474 11.2257 12.5813 11.3611C12.3445 11.5542 12.1074 11.7479 11.8838 11.9568C11.6728 12.1539 11.4757 12.3675 11.2788 12.5801C11.1266 12.7444 10.9791 12.914 10.8395 13.0898C10.7773 13.1683 10.7069 13.1874 10.6181 13.1897C10.4701 13.1934 10.3223 13.2072 10.1742 13.209C10.1001 13.2098 10.0687 13.2411 10.068 13.3131C10.0672 13.4035 10.0669 13.4939 10.0667 13.5843C10.0666 13.6539 10.1 13.6856 10.1679 13.6817C10.2087 13.6793 10.2497 13.6812 10.3156 13.6812C10.1884 13.8356 10.082 13.9681 9.97202 14.0973C9.82718 14.2675 9.67481 14.4311 9.53415 14.6048C9.31913 14.8703 9.07309 15.1022 8.80579 15.307C8.62381 15.4464 8.42363 15.5627 8.22427 15.6756C7.99173 15.8073 7.75381 15.9386 7.47339 15.8985C7.02239 15.8338 6.75338 15.5683 6.78209 15.101C6.80014 14.8074 6.89329 14.5361 7.03403 14.2806C7.16253 14.0473 7.34563 13.8631 7.54051 13.6935C7.59853 13.6432 7.62158 13.6128 7.59085 13.5369ZM19.9894 16.3077C19.9944 16.4158 20.0018 16.515 20.003 16.6143C20.0074 16.9815 20.3523 17.1503 20.6449 17.0589C20.9054 16.9776 21.128 16.8244 21.3224 16.6314C21.586 16.3697 21.8459 16.1037 22.1008 15.8328C22.179 15.7498 22.2388 15.647 22.2992 15.5481C22.3145 15.5231 22.3132 15.4643 22.2955 15.4463C22.2711 15.4216 22.2214 15.4073 22.1869 15.4137C22.1427 15.4221 22.0942 15.4465 22.0626 15.4794C21.9089 15.6391 21.7503 15.7958 21.612 15.9692C21.403 16.2315 21.1418 16.4303 20.8878 16.6383C20.821 16.693 20.7365 16.7285 20.6554 16.7596C20.5798 16.7886 20.5086 16.7154 20.5328 16.6381C20.579 16.491 20.6135 16.3366 20.6824 16.2013C20.8758 15.821 21.0803 15.4465 21.2881 15.0743C21.4294 14.8212 21.5857 14.5771 21.7313 14.3264C21.8445 14.1316 21.9483 13.9309 22.0621 13.7364C22.2081 13.487 22.363 13.2432 22.5082 12.9933C22.6234 12.7951 22.7271 12.5896 22.8409 12.3905C22.9681 12.1681 23.1024 11.9501 23.2306 11.7283C23.2797 11.6434 23.2608 11.6112 23.1617 11.6139C22.9769 11.6189 22.7917 11.6237 22.6081 11.6427C22.5585 11.6478 22.4968 11.6927 22.47 11.7378C22.3223 11.9865 22.1867 12.2428 22.0414 12.493C21.8624 12.8013 21.6751 13.1045 21.4969 13.4132C21.3467 13.6732 21.2051 13.9383 21.058 14.2C21.0256 14.2578 20.986 14.3113 20.9455 14.3732C20.9098 14.0867 20.7168 13.8995 20.4386 13.8726C20.2002 13.8496 19.9689 13.8914 19.7482 13.9775C19.4601 14.0898 19.1932 14.2445 18.9469 14.4384C18.6964 14.6356 18.4692 14.8579 18.2549 15.0946C18.1392 15.2225 18.0375 15.3648 17.9148 15.4846C17.7779 15.6183 17.6257 15.7355 17.4778 15.8568C17.3527 15.9592 17.1075 15.8692 17.0929 15.7143C17.065 15.4199 17.1635 15.1687 17.3757 14.9768C17.5379 14.8299 17.7275 14.7152 17.8911 14.5697C18.0186 14.4563 18.1335 14.3245 18.2379 14.1878C18.3101 14.0932 18.2306 13.8905 18.1222 13.8742C17.899 13.8408 17.6699 13.8616 17.5077 14.027C17.3719 14.1655 17.2797 14.3522 17.1802 14.5249C17.1024 14.6598 17.0687 14.8204 16.9446 14.9288C16.8481 15.013 16.7597 15.1071 16.6671 15.1961C16.6082 15.2527 16.5482 15.308 16.4683 15.383C16.481 15.3438 16.4817 15.3327 16.4873 15.3258C16.7302 15.0201 16.7821 14.6568 16.7629 14.281C16.7575 14.1763 16.7087 14.0486 16.6368 13.9784C16.4948 13.84 16.3046 13.8426 16.1227 13.8923C15.8968 13.9539 15.7151 14.0962 15.5465 14.2564C15.4591 14.3397 15.3769 14.4289 15.2929 14.5159C15.1473 14.6666 14.9957 14.8119 14.8584 14.9703C14.7116 15.1396 14.5818 15.3245 14.4386 15.4974C14.2813 15.6874 14.093 15.8393 13.8641 15.927C13.7599 15.9669 13.6492 15.9958 13.5202 15.9565C13.5963 15.8442 13.6762 15.7502 13.73 15.6422C13.8648 15.3714 14.0011 15.1013 14.0266 14.7869C14.0554 14.4344 13.9564 14.1408 13.6695 13.9414C13.416 13.7652 13.1273 13.7989 12.8622 13.8948C12.4263 14.0523 12.0349 14.3059 11.7023 14.6353C11.4532 14.882 11.237 15.1642 11.0084 15.4326C10.9768 15.4697 10.9535 15.5166 10.9347 15.5626C10.9106 15.6217 10.981 15.6968 11.044 15.6811C11.0742 15.6735 11.1027 15.659 11.1248 15.6504C11.1439 15.9025 11.145 16.1493 11.1854 16.389C11.2338 16.6758 11.3433 16.93 11.645 17.0435C11.8037 17.1032 11.961 17.0887 12.1111 17.0563C12.483 16.976 12.7748 16.7418 13.0461 16.4809C13.1883 16.3442 13.3058 16.2012 13.5436 16.2168C13.8882 16.2395 14.1944 16.0866 14.445 15.8476C14.6093 15.691 14.7617 15.5203 14.9002 15.3335C15.0684 15.1068 15.2726 14.9069 15.4723 14.7072C15.6609 14.5187 15.8385 14.3128 16.0836 14.195C16.1585 14.159 16.2425 14.1013 16.3151 14.1753C16.3897 14.2514 16.3205 14.3349 16.2818 14.4C16.138 14.6423 15.9881 14.881 15.8352 15.1174C15.6824 15.354 15.521 15.5847 15.3673 15.8207C15.2469 16.0056 15.134 16.1956 15.0153 16.3817C14.9127 16.5425 14.8042 16.6993 14.7034 16.8613C14.6428 16.9587 14.6648 17.0078 14.7751 17.0025C14.9826 16.9927 15.1897 16.9708 15.3963 16.9469C15.5302 16.9314 15.5718 16.7948 15.6461 16.7098C15.841 16.4869 16.012 16.2419 16.2028 16.0148C16.3502 15.8394 16.5116 15.6765 16.6698 15.511C16.7196 15.4589 16.7789 15.4166 16.847 15.3587C16.8313 15.4651 16.8199 15.5533 16.805 15.6408C16.7794 15.792 16.8852 16.067 17.0434 16.1111C17.2985 16.1823 17.5354 16.1441 17.7512 15.9897C17.8736 15.9022 17.9883 15.8032 18.112 15.7049C18.1021 15.7942 18.0868 15.8792 18.0845 15.9645C18.0775 16.2246 18.1269 16.4773 18.2315 16.7112C18.3623 17.0039 18.6106 17.1383 18.9071 17.0683C19.2145 16.9957 19.4768 16.8179 19.703 16.5886C19.7949 16.4956 19.8894 16.4057 19.9894 16.3077Z" fill="#18232E"/>
<path d="M12.827 13.1276C12.8067 13.1712 12.7969 13.2315 12.7633 13.2541C12.7199 13.2834 12.6574 13.2828 12.6031 13.295C12.5943 13.2442 12.5775 13.1932 12.5787 13.1426C12.5804 13.0711 12.5902 12.9985 12.6078 12.9295C12.6128 12.91 12.664 12.8831 12.6825 12.8904C12.7818 12.9297 12.8222 13.0111 12.827 13.1276Z" fill="#18232E"/>
<path d="M11.7051 16.4222C11.7193 16.1582 11.7875 15.911 11.887 15.6661C12.0338 15.3048 12.2626 15.0023 12.4888 14.6963C12.641 14.4905 12.8 14.2879 13.0395 14.1848C13.1325 14.1448 13.236 14.1241 13.3366 14.111C13.4458 14.0968 13.6101 14.3215 13.6277 14.4534C13.659 14.6892 13.6143 14.9143 13.5448 15.1364C13.452 15.4329 13.3029 15.7013 13.1054 15.9312C12.8733 16.2013 12.6442 16.4815 12.3288 16.6587C12.2443 16.7062 12.1565 16.7512 12.0651 16.7809C11.8528 16.8501 11.7139 16.7443 11.7051 16.516C11.704 16.4849 11.705 16.4536 11.7051 16.4222Z" fill="#18232E"/>
<path d="M20.2428 14.1479C20.5155 14.1476 20.6927 14.2747 20.6462 14.5245C20.5661 14.9546 20.3852 15.3359 20.1317 15.6824C19.9221 15.9689 19.6999 16.2468 19.4313 16.4758C19.2899 16.5964 19.1379 16.7189 18.9501 16.7576C18.7186 16.8053 18.6458 16.7088 18.6545 16.46C18.6593 16.3246 18.6928 16.1847 18.7405 16.0577C18.8368 15.8015 18.9306 15.54 19.0647 15.3046C19.1976 15.0712 19.3727 14.8619 19.5412 14.6522C19.635 14.5354 19.7424 14.4234 19.8629 14.338C19.9986 14.2419 20.1463 14.1525 20.2428 14.1479Z" fill="#18232E"/>
</g>
<defs>
<clipPath id="clip0_2141_400">
<rect width="28" height="28" fill="white" transform="translate(0.600098)"/>
</clipPath>
</defs>
</svg>
