<svg width="29" height="28" viewBox="0 0 29 28" fill="none" xmlns="http://www.w3.org/2000/svg">
<g clip-path="url(#clip0_2141_501)">
<path d="M28.3996 24.901C27.9459 24.901 27.5202 24.9002 27.0944 24.9011C25.9269 24.9037 24.7593 24.9057 23.5918 24.9102C22.0432 24.9163 20.4947 24.9236 18.9461 24.9339C18.8415 24.9346 18.7824 24.9068 18.7278 24.8121C17.8335 23.2618 16.9346 21.714 16.0361 20.1661C15.4758 19.2008 14.9144 18.2362 14.3537 17.2711C14.3307 17.2314 14.3106 17.1901 14.2798 17.1318C14.3348 17.1272 14.3775 17.1204 14.4203 17.1204C17.4131 17.1199 20.406 17.1204 23.3988 17.1179C23.4938 17.1178 23.5431 17.1465 23.5939 17.2278C24.5102 18.6951 25.4316 20.1592 26.3505 21.6249C27.0284 22.7062 27.7041 23.7888 28.3996 24.901Z" fill="black"/>
<path d="M0.399902 25C0.60737 24.6524 0.80127 24.3265 0.996136 24.0012C1.56192 23.0568 2.12786 22.1124 2.69419 21.1683C3.22901 20.2767 3.76408 19.3852 4.29966 18.494C4.55686 18.066 4.81343 17.6377 5.07677 17.2134C5.10458 17.1687 5.17637 17.1239 5.22786 17.1238C8.15875 17.1197 11.0896 17.1202 14.0205 17.1206C14.0353 17.1206 14.0501 17.1247 14.0879 17.1302C13.9493 17.3621 13.8165 17.5856 13.6823 17.8083C12.8379 19.21 11.9928 20.6113 11.1486 22.0132C10.5671 22.9787 9.98803 23.9456 9.40184 24.9083C9.37323 24.9553 9.28682 24.9927 9.22713 24.993C8.0505 24.9988 6.87387 24.9987 5.69724 24.9992C4.16129 24.9998 2.62534 24.9998 1.08939 25C0.867555 25 0.645764 25 0.399902 25Z" fill="#18232E"/>
<path d="M14.218 2C14.4468 2.34364 14.6619 2.66792 14.8783 2.99138C15.5312 3.96783 16.1846 4.94399 16.838 5.9202C17.4486 6.83249 18.0603 7.74417 18.6693 8.65746C18.7623 8.79684 18.9099 8.94261 18.9119 9.08714C18.9139 9.2269 18.7606 9.36873 18.6758 9.50978C17.6489 11.2169 16.6226 12.9244 15.5952 14.6312C15.1386 15.3898 14.68 16.1473 14.2222 16.9052C14.2125 16.9212 14.2018 16.9367 14.1789 16.9722C13.9819 16.6331 13.7943 16.3096 13.6063 15.9864C12.8615 14.7057 12.1164 13.4252 11.3718 12.1443C10.8237 11.2014 10.2769 10.2577 9.72723 9.31568C9.68396 9.24157 9.68068 9.18732 9.72962 9.1101C11.0661 7.00002 12.3996 4.888 13.7331 2.77606C13.892 2.52456 14.0485 2.27156 14.218 2Z" fill="#18232E"/>
</g>
<defs>
<clipPath id="clip0_2141_501">
<rect width="28" height="28" fill="white" transform="translate(0.399902)"/>
</clipPath>
</defs>
</svg>
