<svg width="29" height="28" viewBox="0 0 29 28" fill="none" xmlns="http://www.w3.org/2000/svg">
<path d="M14.3857 25.9886C13.5214 25.9889 12.6561 25.9655 11.7932 25.9986C11.3532 26.0155 11.0883 25.8778 10.8762 25.5137C9.10438 22.4718 7.3147 19.4393 5.54237 16.3976C5.19633 15.8037 4.92423 15.1706 4.57688 14.5774C4.35168 14.1929 4.33691 13.858 4.55843 13.4691C6.36228 10.3008 8.14927 7.12379 9.95572 3.9568C10.2802 3.38793 10.6518 2.84065 11.0421 2.31049C11.1535 2.15928 11.4065 2.0193 11.5964 2.01702C13.4743 1.99486 15.3527 1.99429 17.2306 2.01559C17.4193 2.01778 17.6795 2.15928 17.7823 2.3121C20.2309 5.95182 22.3813 9.74978 24.33 13.6517C24.4319 13.8558 24.419 14.1914 24.3136 14.3982C22.3695 18.2138 20.2553 21.9417 17.9165 25.5527C17.708 25.8747 17.478 26.0088 17.0779 25.9968C16.1814 25.9699 15.2833 25.9884 14.3857 25.9886ZM17.2313 2.29518C15.2903 2.29518 13.4635 2.28795 11.6371 2.3083C11.4837 2.31001 11.2845 2.46721 11.1887 2.60433C10.8121 3.14363 10.4407 3.68948 10.1171 4.25854C8.38675 7.30124 6.66631 10.3492 4.95556 13.4019C4.65561 13.937 4.72446 14.0144 5.35279 14.0149C6.63209 14.0157 7.91219 13.9904 9.19039 14.0263C9.77182 14.0426 10.0974 13.8204 10.377 13.3586C11.9692 10.7292 13.5805 8.11023 15.1963 5.49384C15.8417 4.44854 16.5152 3.41884 17.2313 2.29518ZM23.9602 14.015C24.0026 13.9664 24.0449 13.9178 24.0873 13.8692C22.1645 9.91135 19.9584 6.10017 17.4711 2.35537C16.6192 3.97715 15.8016 5.51295 15.0142 7.06264C14.9297 7.22878 14.9452 7.51616 15.0414 7.67915C16.205 9.64965 17.3924 11.6075 18.5739 13.5684C18.7644 13.8845 19.0393 14.025 19.4341 14.0206C20.7135 14.006 21.9931 14.0151 23.2727 14.0151C23.5018 14.015 23.731 14.015 23.9602 14.015ZM14.4252 8.35187C14.2623 8.58961 14.168 8.7139 14.0879 8.84608C13.157 10.38 12.2401 11.9219 11.2903 13.445C11.062 13.8112 11.0812 14.0914 11.3006 14.4467C12.2525 15.9875 13.1783 17.5431 14.1159 19.092C14.1933 19.2197 14.289 19.3372 14.4041 19.4987C14.5091 19.3661 14.5753 19.2984 14.6227 19.2203C15.6202 17.5773 16.6273 15.9391 17.5954 14.2804C17.7049 14.0928 17.6812 13.7412 17.5682 13.5445C16.8822 12.3517 16.153 11.1815 15.4369 10.0044C15.1231 9.48846 14.8064 8.97427 14.4252 8.35187ZM9.96789 14.1513C10.0651 14.3378 10.1338 14.4934 10.2231 14.6375C11.3703 16.4888 12.5084 18.3454 13.679 20.1831C13.9361 20.5868 13.9514 20.9147 13.7193 21.3241C12.986 22.6173 12.2799 23.9245 11.5711 25.2301C11.5034 25.3547 11.4896 25.5058 11.4508 25.6446C11.4951 25.6577 11.5393 25.6708 11.5836 25.6839C14.2858 21.9958 16.4999 18.0287 18.8978 14.1374C18.4102 13.9909 18.1493 14.1007 17.9301 14.4741C16.9177 16.1981 15.8787 17.9079 14.844 19.6199C14.7428 19.7874 14.6066 19.9358 14.4446 20.1481C14.2854 19.9238 14.1674 19.7749 14.0684 19.6156C12.9959 17.8878 11.9197 16.1619 10.8618 14.426C10.6593 14.0935 10.4244 13.9779 9.96789 14.1513Z" fill="black"/>
</svg>
