<svg width="28" height="28" viewBox="0 0 28 28" fill="none" xmlns="http://www.w3.org/2000/svg">
<path d="M28 14.0152C27.9555 21.8432 21.6651 28.0486 13.824 27.9997C6.14709 27.9517 -0.0588289 21.6041 0.000420751 13.8443C0.0569146 6.45156 5.99889 -0.0933288 14.1655 0.0010074C22.1266 0.0929318 27.9826 6.51572 28 14.0152ZM27.6555 13.9907C27.6326 6.42489 21.5189 0.315645 13.9853 0.333079C6.29755 0.350858 0.216062 6.65043 0.331668 14.2168C0.444311 21.5868 6.47689 27.6957 14.0739 27.6675C21.5685 27.6397 27.6783 21.4953 27.6555 13.9907Z" fill="black"/>
<path d="M26.6732 14.0032C26.6728 21.0237 20.9941 26.6915 13.9675 26.6848C6.97746 26.678 1.30052 20.98 1.31044 13.9808C1.32029 6.97542 6.99654 1.31739 14.0065 1.32545C21.0249 1.33365 26.6736 6.98721 26.6732 14.0032ZM13.9899 25.5854C20.3729 25.5878 25.5606 20.4109 25.567 14.032C25.5735 7.61 20.4277 2.43867 14.0178 2.42544C7.6177 2.41228 2.41475 7.59422 2.40966 13.9868C2.40449 20.3776 7.60158 25.5829 13.9899 25.5854Z" fill="#18232E"/>
<path d="M10.0405 10.2972C9.75397 10.0499 9.52241 9.81199 9.25476 9.62593C8.32309 8.9784 7.38378 8.34147 6.43702 7.7162C6.07898 7.4797 6.059 7.45655 6.34236 7.12889C6.98605 6.38481 7.73907 5.77538 8.5676 5.24471C8.93185 5.01145 9.21742 5.024 9.57691 5.23906C10.7342 5.93132 11.8166 6.71805 12.7983 7.64412C13.1375 7.96406 13.5107 8.22564 14.1353 8.15204C13.6163 7.48749 13.1702 6.85063 12.6552 6.27552C12.159 5.72128 11.5876 5.23472 11.059 4.70867C10.9612 4.6113 10.8347 4.44964 10.858 4.34959C10.8817 4.24788 11.0641 4.14961 11.1948 4.11185C12.3288 3.78453 13.487 3.63424 14.6652 3.73733C14.8999 3.75787 15.1654 3.86061 15.3448 4.01117C17.4617 5.78723 18.7137 8.07686 19.1895 10.7753C19.4968 12.5185 19.4219 14.275 19.0449 16.0094C18.8747 16.7922 18.6706 17.5675 18.4891 18.3479C18.3909 18.7701 18.5836 18.99 19.0009 18.9815C19.289 18.9757 19.3361 18.7997 19.3462 18.5728C19.3737 17.9599 19.4004 17.9401 20.0206 18.0773C21.0286 18.3001 21.9151 18.7611 22.6822 19.4498C22.9573 19.6968 22.9557 19.848 22.6787 20.0985C21.8583 20.8403 20.897 21.3032 19.8152 21.5154C19.4433 21.5884 19.3501 21.4979 19.3456 21.1059C19.3399 20.6064 19.3156 20.5811 18.8188 20.5811C15.8107 20.5807 12.8024 20.5746 9.79427 20.5913C9.51456 20.5929 9.22616 20.7174 8.95844 20.8258C8.50098 21.0111 8.15264 21.4463 7.5897 21.3971C7.31626 21.3731 7.0382 21.3803 6.76365 21.3969C6.54209 21.4102 6.41374 21.3234 6.28628 21.1429C5.72437 20.3471 5.13546 19.5704 4.5772 18.7721C4.47207 18.6218 4.38306 18.378 4.43397 18.2271C4.47283 18.1121 4.74331 18.0179 4.91314 18.0139C5.79671 17.9931 6.68119 17.9984 7.56511 18.0092C7.73066 18.0113 7.90634 18.0552 8.05846 18.1225C8.60384 18.3634 9.13309 18.643 9.68604 18.8636C9.87323 18.9383 10.1634 18.9589 10.3129 18.8611C10.4385 18.7789 10.4956 18.4789 10.4679 18.2923C10.1182 15.9387 8.74983 14.3905 6.57777 13.5397C5.857 13.2574 5.08537 13.1009 4.33139 12.9088C3.89769 12.7982 3.78822 12.6743 3.86442 12.2356C4.04595 11.1903 4.37197 10.1948 4.86429 9.25114C5.03322 8.92741 5.2543 8.80854 5.58837 8.93485C6.62683 9.32749 7.65942 9.73577 8.70029 10.1217C9.03843 10.2471 9.3931 10.3306 9.74494 10.4134C9.81349 10.4296 9.90361 10.354 10.0405 10.2972ZM14.5784 16.491C14.5794 17.2103 15.1434 17.7856 15.8545 17.7926C16.5699 17.7996 17.1654 17.2013 17.1624 16.4785C17.1594 15.7634 16.5899 15.1911 15.8768 15.1867C15.1402 15.1821 14.5774 15.7474 14.5784 16.491Z" fill="#18232E"/>
</svg>
