<svg width="24" height="24" viewBox="0 0 24 24" fill="none" xmlns="http://www.w3.org/2000/svg">
<g clip-path="url(#clip0_2017_22)">
<path d="M23.0929 16.7391C23.6724 17.3202 23.9978 18.1074 23.9978 18.9281C23.9978 19.7488 23.6724 20.536 23.0929 21.1171L22.1829 22.1661C13.9929 30.0071 -5.9371 10.0821 1.78289 1.86613L2.93289 0.866132C3.51466 0.302809 4.29482 -0.0088188 5.10459 -0.00133303C5.91436 0.00615273 6.68863 0.332151 7.25989 0.906132C7.29089 0.937132 9.14388 3.34413 9.14388 3.34413C9.69371 3.92176 9.99979 4.68906 9.99848 5.48654C9.99718 6.28401 9.6886 7.05031 9.13688 7.62613L7.97888 9.08213C8.61973 10.6392 9.56195 12.0544 10.7514 13.2462C11.9408 14.4381 13.3541 15.3831 14.9099 16.0271L16.3749 14.8621C16.9508 14.3108 17.7169 14.0026 18.5142 14.0015C19.3114 14.0004 20.0784 14.3065 20.6559 14.8561C20.6559 14.8561 23.0619 16.7081 23.0929 16.7391ZM21.7169 18.1931C21.7169 18.1931 19.3239 16.3521 19.2929 16.3211C19.0869 16.1169 18.8085 16.0023 18.5184 16.0023C18.2283 16.0023 17.9499 16.1169 17.7439 16.3211C17.7169 16.3491 15.6999 17.9561 15.6999 17.9561C15.564 18.0643 15.4022 18.1352 15.2305 18.1619C15.0589 18.1885 14.8832 18.17 14.7209 18.1081C12.7053 17.3577 10.8746 16.1829 9.35272 14.6632C7.83082 13.1436 6.65329 11.3146 5.89989 9.30013C5.83309 9.13559 5.81131 8.95622 5.83679 8.78047C5.86227 8.60472 5.9341 8.43893 6.04489 8.30013C6.04489 8.30013 7.65189 6.28213 7.67888 6.25613C7.88315 6.05012 7.99776 5.77175 7.99776 5.48163C7.99776 5.19152 7.88315 4.91315 7.67888 4.70713C7.64788 4.67713 5.80689 2.28213 5.80689 2.28213C5.59779 2.09464 5.32489 1.99423 5.04414 2.00148C4.76338 2.00873 4.49603 2.1231 4.29689 2.32113L3.14689 3.32113C-2.4951 10.1051 14.7759 26.4181 20.7209 20.8001L21.6319 19.7501C21.8453 19.5524 21.9736 19.2794 21.9894 18.9888C22.0053 18.6983 21.9076 18.4129 21.7169 18.1931Z" fill="black"/>
</g>
<defs>
<clipPath id="clip0_2017_22">
<rect width="24" height="24" fill="white"/>
</clipPath>
</defs>
</svg>
